%TF.GenerationSoftware,KiCad,Pcbnew,7.0.7*%
%TF.CreationDate,2023-11-26T12:29:05-07:00*%
%TF.ProjectId,mouse,6d6f7573-652e-46b6-9963-61645f706362,rev?*%
%TF.SameCoordinates,Original*%
%TF.FileFunction,Profile,NP*%
%FSLAX46Y46*%
G04 Gerber Fmt 4.6, Leading zero omitted, Abs format (unit mm)*
G04 Created by KiCad (PCBNEW 7.0.7) date 2023-11-26 12:29:05*
%MOMM*%
%LPD*%
G01*
G04 APERTURE LIST*
%TA.AperFunction,Profile*%
%ADD10C,0.200000*%
%TD*%
%TA.AperFunction,Profile*%
%ADD11C,0.100000*%
%TD*%
%TA.AperFunction,Profile*%
%ADD12C,0.050000*%
%TD*%
G04 APERTURE END LIST*
D10*
X251200000Y-45950000D02*
X251200000Y-102950000D01*
X238700000Y-115450000D01*
X238700000Y-134450000D01*
X204200000Y-134450000D01*
X204200000Y-115450000D01*
X191700000Y-102950000D01*
X191700000Y-45950000D01*
X204200000Y-33450000D01*
X238700000Y-33450000D01*
X251200000Y-45950000D01*
D11*
X214700000Y-45450000D02*
X227700000Y-45450000D01*
X227700000Y-65450000D01*
X214700000Y-65450000D01*
X214700000Y-45450000D01*
D12*
%TO.C,PAW1*%
X225500000Y-95117500D02*
X216900000Y-95117500D01*
X216900000Y-95117500D02*
X216900000Y-112377500D01*
X216900000Y-112377500D02*
X225500000Y-112377500D01*
X225500000Y-112377500D02*
X225500000Y-95117500D01*
%TO.C,ENC1*%
X229200000Y-60850000D02*
X231300000Y-60850000D01*
X231300000Y-60850000D02*
X231300000Y-59050000D01*
X231300000Y-59050000D02*
X229200000Y-59050000D01*
X229200000Y-59050000D02*
X229200000Y-60850000D01*
X229200000Y-51850000D02*
X231300000Y-51850000D01*
X231300000Y-51850000D02*
X231300000Y-50050000D01*
X231300000Y-50050000D02*
X229200000Y-50050000D01*
X229200000Y-50050000D02*
X229200000Y-51850000D01*
%TD*%
M02*
