%TF.GenerationSoftware,KiCad,Pcbnew,7.0.7*%
%TF.CreationDate,2023-11-26T12:29:05-07:00*%
%TF.ProjectId,mouse,6d6f7573-652e-46b6-9963-61645f706362,rev?*%
%TF.SameCoordinates,Original*%
%TF.FileFunction,Copper,L2,Bot*%
%TF.FilePolarity,Positive*%
%FSLAX46Y46*%
G04 Gerber Fmt 4.6, Leading zero omitted, Abs format (unit mm)*
G04 Created by KiCad (PCBNEW 7.0.7) date 2023-11-26 12:29:05*
%MOMM*%
%LPD*%
G01*
G04 APERTURE LIST*
%TA.AperFunction,EtchedComponent*%
%ADD10C,0.010000*%
%TD*%
%TA.AperFunction,ComponentPad*%
%ADD11O,1.500000X1.200000*%
%TD*%
%TA.AperFunction,ComponentPad*%
%ADD12O,1.000000X1.500000*%
%TD*%
%TA.AperFunction,ComponentPad*%
%ADD13C,1.500000*%
%TD*%
%TA.AperFunction,ComponentPad*%
%ADD14C,1.450000*%
%TD*%
%TA.AperFunction,ComponentPad*%
%ADD15O,1.200000X1.900000*%
%TD*%
%TA.AperFunction,ComponentPad*%
%ADD16C,0.400000*%
%TD*%
%TA.AperFunction,ComponentPad*%
%ADD17C,1.320800*%
%TD*%
%TA.AperFunction,ComponentPad*%
%ADD18C,1.701800*%
%TD*%
%TA.AperFunction,ComponentPad*%
%ADD19R,1.900000X1.900000*%
%TD*%
%TA.AperFunction,ComponentPad*%
%ADD20C,1.900000*%
%TD*%
%TA.AperFunction,ViaPad*%
%ADD21C,0.800000*%
%TD*%
%TA.AperFunction,ViaPad*%
%ADD22C,0.600000*%
%TD*%
%TA.AperFunction,Conductor*%
%ADD23C,0.250000*%
%TD*%
%TA.AperFunction,Conductor*%
%ADD24C,0.200000*%
%TD*%
G04 APERTURE END LIST*
%TO.C,J5*%
D10*
X224826000Y-33951000D02*
X224852000Y-33953000D01*
X224878000Y-33956000D01*
X224904000Y-33961000D01*
X224929000Y-33967000D01*
X224955000Y-33974000D01*
X224979000Y-33983000D01*
X225003000Y-33993000D01*
X225027000Y-34004000D01*
X225050000Y-34017000D01*
X225072000Y-34031000D01*
X225094000Y-34045000D01*
X225115000Y-34061000D01*
X225135000Y-34078000D01*
X225154000Y-34096000D01*
X225172000Y-34115000D01*
X225189000Y-34135000D01*
X225205000Y-34156000D01*
X225219000Y-34178000D01*
X225233000Y-34200000D01*
X225246000Y-34223000D01*
X225257000Y-34247000D01*
X225267000Y-34271000D01*
X225276000Y-34295000D01*
X225283000Y-34321000D01*
X225289000Y-34346000D01*
X225294000Y-34372000D01*
X225297000Y-34398000D01*
X225299000Y-34424000D01*
X225300000Y-34450000D01*
X225300000Y-35350000D01*
X225299000Y-35376000D01*
X225297000Y-35402000D01*
X225294000Y-35428000D01*
X225289000Y-35454000D01*
X225283000Y-35479000D01*
X225276000Y-35505000D01*
X225267000Y-35529000D01*
X225257000Y-35553000D01*
X225246000Y-35577000D01*
X225233000Y-35600000D01*
X225219000Y-35622000D01*
X225205000Y-35644000D01*
X225189000Y-35665000D01*
X225172000Y-35685000D01*
X225154000Y-35704000D01*
X225135000Y-35722000D01*
X225115000Y-35739000D01*
X225094000Y-35755000D01*
X225072000Y-35769000D01*
X225050000Y-35783000D01*
X225027000Y-35796000D01*
X225003000Y-35807000D01*
X224979000Y-35817000D01*
X224955000Y-35826000D01*
X224929000Y-35833000D01*
X224904000Y-35839000D01*
X224878000Y-35844000D01*
X224852000Y-35847000D01*
X224826000Y-35849000D01*
X224800000Y-35850000D01*
X223500000Y-35850000D01*
X223500000Y-33950000D01*
X224800000Y-33950000D01*
X224826000Y-33951000D01*
%TA.AperFunction,EtchedComponent*%
G36*
X224826000Y-33951000D02*
G01*
X224852000Y-33953000D01*
X224878000Y-33956000D01*
X224904000Y-33961000D01*
X224929000Y-33967000D01*
X224955000Y-33974000D01*
X224979000Y-33983000D01*
X225003000Y-33993000D01*
X225027000Y-34004000D01*
X225050000Y-34017000D01*
X225072000Y-34031000D01*
X225094000Y-34045000D01*
X225115000Y-34061000D01*
X225135000Y-34078000D01*
X225154000Y-34096000D01*
X225172000Y-34115000D01*
X225189000Y-34135000D01*
X225205000Y-34156000D01*
X225219000Y-34178000D01*
X225233000Y-34200000D01*
X225246000Y-34223000D01*
X225257000Y-34247000D01*
X225267000Y-34271000D01*
X225276000Y-34295000D01*
X225283000Y-34321000D01*
X225289000Y-34346000D01*
X225294000Y-34372000D01*
X225297000Y-34398000D01*
X225299000Y-34424000D01*
X225300000Y-34450000D01*
X225300000Y-35350000D01*
X225299000Y-35376000D01*
X225297000Y-35402000D01*
X225294000Y-35428000D01*
X225289000Y-35454000D01*
X225283000Y-35479000D01*
X225276000Y-35505000D01*
X225267000Y-35529000D01*
X225257000Y-35553000D01*
X225246000Y-35577000D01*
X225233000Y-35600000D01*
X225219000Y-35622000D01*
X225205000Y-35644000D01*
X225189000Y-35665000D01*
X225172000Y-35685000D01*
X225154000Y-35704000D01*
X225135000Y-35722000D01*
X225115000Y-35739000D01*
X225094000Y-35755000D01*
X225072000Y-35769000D01*
X225050000Y-35783000D01*
X225027000Y-35796000D01*
X225003000Y-35807000D01*
X224979000Y-35817000D01*
X224955000Y-35826000D01*
X224929000Y-35833000D01*
X224904000Y-35839000D01*
X224878000Y-35844000D01*
X224852000Y-35847000D01*
X224826000Y-35849000D01*
X224800000Y-35850000D01*
X223500000Y-35850000D01*
X223500000Y-33950000D01*
X224800000Y-33950000D01*
X224826000Y-33951000D01*
G37*
%TD.AperFunction*%
X218900000Y-35850000D02*
X217600000Y-35850000D01*
X217574000Y-35849000D01*
X217548000Y-35847000D01*
X217522000Y-35844000D01*
X217496000Y-35839000D01*
X217471000Y-35833000D01*
X217445000Y-35826000D01*
X217421000Y-35817000D01*
X217397000Y-35807000D01*
X217373000Y-35796000D01*
X217350000Y-35783000D01*
X217328000Y-35769000D01*
X217306000Y-35755000D01*
X217285000Y-35739000D01*
X217265000Y-35722000D01*
X217246000Y-35704000D01*
X217228000Y-35685000D01*
X217211000Y-35665000D01*
X217195000Y-35644000D01*
X217181000Y-35622000D01*
X217167000Y-35600000D01*
X217154000Y-35577000D01*
X217143000Y-35553000D01*
X217133000Y-35529000D01*
X217124000Y-35505000D01*
X217117000Y-35479000D01*
X217111000Y-35454000D01*
X217106000Y-35428000D01*
X217103000Y-35402000D01*
X217101000Y-35376000D01*
X217100000Y-35350000D01*
X217100000Y-34450000D01*
X217101000Y-34424000D01*
X217103000Y-34398000D01*
X217106000Y-34372000D01*
X217111000Y-34346000D01*
X217117000Y-34321000D01*
X217124000Y-34295000D01*
X217133000Y-34271000D01*
X217143000Y-34247000D01*
X217154000Y-34223000D01*
X217167000Y-34200000D01*
X217181000Y-34178000D01*
X217195000Y-34156000D01*
X217211000Y-34135000D01*
X217228000Y-34115000D01*
X217246000Y-34096000D01*
X217265000Y-34078000D01*
X217285000Y-34061000D01*
X217306000Y-34045000D01*
X217328000Y-34031000D01*
X217350000Y-34017000D01*
X217373000Y-34004000D01*
X217397000Y-33993000D01*
X217421000Y-33983000D01*
X217445000Y-33974000D01*
X217471000Y-33967000D01*
X217496000Y-33961000D01*
X217522000Y-33956000D01*
X217548000Y-33953000D01*
X217574000Y-33951000D01*
X217600000Y-33950000D01*
X218900000Y-33950000D01*
X218900000Y-35850000D01*
%TA.AperFunction,EtchedComponent*%
G36*
X218900000Y-35850000D02*
G01*
X217600000Y-35850000D01*
X217574000Y-35849000D01*
X217548000Y-35847000D01*
X217522000Y-35844000D01*
X217496000Y-35839000D01*
X217471000Y-35833000D01*
X217445000Y-35826000D01*
X217421000Y-35817000D01*
X217397000Y-35807000D01*
X217373000Y-35796000D01*
X217350000Y-35783000D01*
X217328000Y-35769000D01*
X217306000Y-35755000D01*
X217285000Y-35739000D01*
X217265000Y-35722000D01*
X217246000Y-35704000D01*
X217228000Y-35685000D01*
X217211000Y-35665000D01*
X217195000Y-35644000D01*
X217181000Y-35622000D01*
X217167000Y-35600000D01*
X217154000Y-35577000D01*
X217143000Y-35553000D01*
X217133000Y-35529000D01*
X217124000Y-35505000D01*
X217117000Y-35479000D01*
X217111000Y-35454000D01*
X217106000Y-35428000D01*
X217103000Y-35402000D01*
X217101000Y-35376000D01*
X217100000Y-35350000D01*
X217100000Y-34450000D01*
X217101000Y-34424000D01*
X217103000Y-34398000D01*
X217106000Y-34372000D01*
X217111000Y-34346000D01*
X217117000Y-34321000D01*
X217124000Y-34295000D01*
X217133000Y-34271000D01*
X217143000Y-34247000D01*
X217154000Y-34223000D01*
X217167000Y-34200000D01*
X217181000Y-34178000D01*
X217195000Y-34156000D01*
X217211000Y-34135000D01*
X217228000Y-34115000D01*
X217246000Y-34096000D01*
X217265000Y-34078000D01*
X217285000Y-34061000D01*
X217306000Y-34045000D01*
X217328000Y-34031000D01*
X217350000Y-34017000D01*
X217373000Y-34004000D01*
X217397000Y-33993000D01*
X217421000Y-33983000D01*
X217445000Y-33974000D01*
X217471000Y-33967000D01*
X217496000Y-33961000D01*
X217522000Y-33956000D01*
X217548000Y-33953000D01*
X217574000Y-33951000D01*
X217600000Y-33950000D01*
X218900000Y-33950000D01*
X218900000Y-35850000D01*
G37*
%TD.AperFunction*%
%TD*%
D11*
%TO.P,PAW1,1,NC1*%
%TO.N,unconnected-(PAW1-NC1-Pad1)*%
X215850000Y-96247500D03*
%TO.P,PAW1,2,NC2*%
%TO.N,unconnected-(PAW1-NC2-Pad2)*%
X215850000Y-98027500D03*
%TO.P,PAW1,3,GND*%
%TO.N,GND*%
X215850000Y-99807500D03*
%TO.P,PAW1,4,VDD*%
%TO.N,PWR_1.9V*%
X215850000Y-101587500D03*
%TO.P,PAW1,5,VDDREG*%
%TO.N,VDDREG*%
X215850000Y-103367500D03*
%TO.P,PAW1,6,NC6*%
%TO.N,unconnected-(PAW1-NC6-Pad6)*%
X215850000Y-105147500D03*
%TO.P,PAW1,7,VDDIO*%
%TO.N,PWR_3.3V*%
X215850000Y-106927500D03*
%TO.P,PAW1,8,GNDIO*%
%TO.N,GND1*%
X215850000Y-108707500D03*
%TO.P,PAW1,9,MOTION*%
%TO.N,MOTION*%
X226550000Y-109597500D03*
%TO.P,PAW1,10,SCLK*%
%TO.N,SCLK*%
X226550000Y-107817500D03*
%TO.P,PAW1,11,MOSI*%
%TO.N,MOSI*%
X226550000Y-106037500D03*
%TO.P,PAW1,12,MISO*%
%TO.N,MISO*%
X226550000Y-104257500D03*
%TO.P,PAW1,13,NCS*%
%TO.N,NCS*%
X226550000Y-102477500D03*
%TO.P,PAW1,14,NRESET*%
%TO.N,NRESET*%
X226550000Y-100697500D03*
%TO.P,PAW1,15,LED_P*%
%TO.N,LED_P*%
X226550000Y-98917500D03*
%TO.P,PAW1,16,NC16*%
%TO.N,unconnected-(PAW1-NC16-Pad16)*%
X226550000Y-97137500D03*
%TD*%
D12*
%TO.P,SMB5,1,COM*%
%TO.N,SW4_COM_OFF*%
X213450000Y-119870000D03*
%TO.P,SMB5,2,NO*%
%TO.N,PWR_3.3V_OFF*%
X213450000Y-124950000D03*
%TO.P,SMB5,3,NC*%
%TO.N,GND_OFF*%
X213450000Y-130030000D03*
%TD*%
%TO.P,MMB1,3,NC*%
%TO.N,GND*%
X210200000Y-62030000D03*
%TO.P,MMB1,2,NO*%
%TO.N,SW5_NO*%
X210200000Y-56950000D03*
%TO.P,MMB1,1,COM*%
%TO.N,SCROLL_CLICK*%
X210200000Y-51870000D03*
%TD*%
D13*
%TO.P,ENC1,1,A*%
%TO.N,SCROLL_UP*%
X232200000Y-57950000D03*
%TO.P,ENC1,2,B*%
%TO.N,SCROLL_DOWN*%
X232200000Y-55450000D03*
%TO.P,ENC1,3,COM*%
%TO.N,GND*%
X232200000Y-52950000D03*
%TD*%
D14*
%TO.P,J5,SH1,SHIELD1*%
%TO.N,GND*%
X223700000Y-37600000D03*
%TO.P,J5,SH2,SHIELD2*%
X218700000Y-37600000D03*
D15*
%TO.P,J5,SH3,SHIELD3*%
%TO.N,unconnected-(J5-SHIELD3-PadSH3)*%
X224700000Y-34900000D03*
%TO.P,J5,SH6,SHIELD6*%
%TO.N,unconnected-(J5-SHIELD6-PadSH6)*%
X217700000Y-34900000D03*
%TD*%
D12*
%TO.P,LMB1,1,COM*%
%TO.N,GND*%
X203700000Y-46370000D03*
%TO.P,LMB1,2,NO*%
%TO.N,SW1_NO*%
X203700000Y-51450000D03*
%TO.P,LMB1,3,NC*%
%TO.N,SW1_NC*%
X203700000Y-56530000D03*
%TD*%
%TO.P,RMB1,1,COM*%
%TO.N,GND*%
X239200000Y-46440000D03*
%TO.P,RMB1,2,NO*%
%TO.N,SW2_NO*%
X239200000Y-51520000D03*
%TO.P,RMB1,3,NC*%
%TO.N,SW2_NC*%
X239200000Y-56600000D03*
%TD*%
%TO.P,SMB4,1,COM*%
%TO.N,SW3_COM_OFF*%
X220450000Y-119870000D03*
%TO.P,SMB4,2,NO*%
%TO.N,PWR_3.3V_OFF*%
X220450000Y-124950000D03*
%TO.P,SMB4,3,NC*%
%TO.N,GND_OFF*%
X220450000Y-130030000D03*
%TD*%
D16*
%TO.P,ESP1,41_21*%
%TO.N,N/C*%
X216500000Y-80720000D03*
%TO.P,ESP1,41_20*%
X215100000Y-80720000D03*
%TO.P,ESP1,41_19*%
X217200000Y-80020000D03*
%TO.P,ESP1,41_18*%
X215800000Y-80020000D03*
%TO.P,ESP1,41_17*%
X214400000Y-80020000D03*
%TO.P,ESP1,41_16*%
X216500000Y-79320000D03*
%TO.P,ESP1,41_15*%
X215100000Y-79320000D03*
%TO.P,ESP1,41_14*%
X217200000Y-78620000D03*
%TO.P,ESP1,41_13*%
X215800000Y-78620000D03*
%TO.P,ESP1,41_12*%
X214400000Y-78620000D03*
%TO.P,ESP1,41_11*%
X216500000Y-77920000D03*
%TO.P,ESP1,41_10*%
X215100000Y-77920000D03*
%TD*%
D17*
%TO.P,J2,1,1*%
%TO.N,+BATT*%
X245075001Y-71600000D03*
%TO.P,J2,2,2*%
%TO.N,GND*%
X243074999Y-71600000D03*
D18*
%TO.P,J2,3*%
%TO.N,N/C*%
X246575000Y-69900000D03*
%TD*%
D19*
%TO.P,S4,1*%
%TO.N,PWR_EN*%
X241200000Y-85120000D03*
D20*
%TO.P,S4,2*%
%TO.N,PWR_OUT*%
X238700000Y-85120000D03*
%TO.P,S4,3*%
%TO.N,GND*%
X236200000Y-85120000D03*
%TD*%
D21*
%TO.N,SW2_NC*%
X239200000Y-61950000D03*
%TO.N,SW2_NO*%
X239200000Y-60450000D03*
%TO.N,SW2_NC*%
X214700000Y-67950000D03*
X214700000Y-72450000D03*
%TO.N,GND*%
X237995400Y-63450000D03*
X237995400Y-59450000D03*
%TO.N,PWR_3.3V*%
X235020000Y-59450000D03*
X235020000Y-63450000D03*
%TO.N,SW2_NO*%
X213200000Y-67950000D03*
X213200000Y-72450000D03*
%TO.N,GND*%
X219900000Y-40950000D03*
%TO.N,USB_D-*%
X241200000Y-42285000D03*
%TO.N,USB_D+*%
X242200000Y-43130000D03*
%TO.N,SW3_COM*%
X215395000Y-91225500D03*
%TO.N,SW4_COM*%
X214125000Y-91225500D03*
%TO.N,SW2_NC*%
X211200000Y-79220000D03*
%TO.N,PWR_3.3V*%
X206200000Y-68950000D03*
%TO.N,PWR_OUT*%
X238700000Y-93950000D03*
%TO.N,PWR_3.3V*%
X231840000Y-105450000D03*
%TO.N,PWR_1.9V_EN*%
X229200000Y-72870000D03*
X235200000Y-90950000D03*
%TO.N,GND*%
X236200000Y-91950000D03*
%TO.N,NRESET*%
X237200000Y-88950000D03*
%TO.N,PWR_1.9V*%
X211337500Y-97950000D03*
%TO.N,+BATT*%
X235404600Y-76450000D03*
%TO.N,VBUS*%
X237995400Y-76450000D03*
%TO.N,GND*%
X232200000Y-75810000D03*
X237995400Y-71600000D03*
%TO.N,PWR_3.3V*%
X244520000Y-66950000D03*
%TO.N,VDDREG*%
X210200000Y-103367500D03*
D22*
%TO.N,+BATT*%
X244075000Y-82450000D03*
D21*
%TO.N,VBUS*%
X246850500Y-77450000D03*
X243575000Y-76130000D03*
X223700000Y-40950000D03*
%TO.N,Net-(C12-Pad2)*%
X202200000Y-79620000D03*
X199700000Y-78120000D03*
%TO.N,Net-(C13-Pad2)*%
X199700000Y-84120000D03*
X202200000Y-82620000D03*
%TO.N,EN*%
X203200000Y-74140000D03*
%TO.N,SW1_NO*%
X212200000Y-75450000D03*
%TO.N,SW1_NC*%
X211200000Y-76680000D03*
%TO.N,SW2_NO*%
X211200000Y-77950000D03*
%TO.N,SCROLL_UP*%
X219200000Y-84300000D03*
%TO.N,SCROLL_DOWN*%
X236700000Y-63450000D03*
X220200000Y-85570000D03*
X222700000Y-69950000D03*
%TO.N,SW3_COM*%
X205200000Y-69950000D03*
%TO.N,SW4_COM*%
X204187701Y-69962299D03*
%TO.N,XTAL1*%
X205700000Y-80490000D03*
%TO.N,XTAL2*%
X205700000Y-81760000D03*
%TO.N,SCROLL_CLICK*%
X218200000Y-83030000D03*
%TO.N,USB_D-*%
X222700000Y-86840000D03*
%TO.N,USB_D+*%
X224200000Y-86840000D03*
%TO.N,NCS*%
X230200000Y-88120000D03*
X230200000Y-102450000D03*
%TO.N,MOSI*%
X229200000Y-86840000D03*
X229200000Y-106037500D03*
%TO.N,SCLK*%
X228200000Y-85570000D03*
X228200000Y-107817500D03*
%TO.N,MISO*%
X231200000Y-84300000D03*
X231200000Y-102950000D03*
%TO.N,NRESET*%
X237200000Y-100697500D03*
%TO.N,TCK*%
X221200000Y-81760000D03*
%TO.N,TDO*%
X220200000Y-80490000D03*
%TO.N,TDI*%
X221200000Y-79220000D03*
%TO.N,TMS*%
X220200000Y-77950000D03*
%TO.N,RXD0*%
X221200000Y-76680000D03*
%TO.N,TXD0*%
X220240000Y-75410000D03*
%TO.N,MOTION*%
X233200000Y-90950000D03*
X223700000Y-74140000D03*
X225200000Y-90950000D03*
X233200000Y-109597500D03*
%TO.N,PWR_OUT*%
X245075000Y-83450000D03*
%TO.N,GND*%
X237200000Y-81950000D03*
X239700000Y-81950000D03*
X213200000Y-43950000D03*
X247575000Y-76130000D03*
X217200000Y-71600000D03*
X202700000Y-64950000D03*
X197380000Y-71600000D03*
X219900000Y-43950000D03*
X197380000Y-77120000D03*
X236200000Y-98950000D03*
X247575000Y-78709999D03*
X213200000Y-64950000D03*
X203200000Y-71600000D03*
X232200000Y-43950000D03*
X232200000Y-71600000D03*
X210200000Y-64950000D03*
%TO.N,PWR_3.3V*%
X237200000Y-78450000D03*
X206200000Y-72870000D03*
X194700000Y-68950000D03*
X198380000Y-59450000D03*
X194700000Y-75770000D03*
X212200000Y-106950000D03*
X200700000Y-68950000D03*
X234200000Y-66950000D03*
%TD*%
D23*
%TO.N,+BATT*%
X235404600Y-76450000D02*
X236404600Y-77450000D01*
X236404600Y-77450000D02*
X239200000Y-77450000D01*
%TO.N,GND*%
X203700000Y-42450000D02*
X203700000Y-46370000D01*
X205200000Y-40950000D02*
X203700000Y-42450000D01*
X219900000Y-40950000D02*
X205200000Y-40950000D01*
%TO.N,VBUS*%
X245200000Y-68450000D02*
X238700000Y-68450000D01*
X246200000Y-67450000D02*
X245200000Y-68450000D01*
X246200000Y-45450000D02*
X246200000Y-67450000D01*
X241700000Y-40950000D02*
X246200000Y-45450000D01*
X223700000Y-40950000D02*
X241700000Y-40950000D01*
X236700000Y-70450000D02*
X236700000Y-75154600D01*
X236700000Y-75154600D02*
X237995400Y-76450000D01*
X238700000Y-68450000D02*
X236700000Y-70450000D01*
%TO.N,PWR_3.3V*%
X194700000Y-85950000D02*
X194700000Y-75770000D01*
X212200000Y-103450000D02*
X194700000Y-85950000D01*
X212200000Y-106950000D02*
X212200000Y-103450000D01*
%TO.N,SCROLL_DOWN*%
X236700000Y-63450000D02*
X236700000Y-59950000D01*
X236700000Y-59950000D02*
X232200000Y-55450000D01*
%TO.N,SW2_NC*%
X240200000Y-60950000D02*
X240200000Y-57600000D01*
X240200000Y-57600000D02*
X239200000Y-56600000D01*
X239200000Y-61950000D02*
X240200000Y-60950000D01*
%TO.N,GND*%
X237995400Y-59450000D02*
X237995400Y-63450000D01*
%TO.N,PWR_3.3V*%
X235020000Y-59450000D02*
X235020000Y-63450000D01*
%TO.N,SCROLL_DOWN*%
X222700000Y-69950000D02*
X222700000Y-83070000D01*
X222700000Y-83070000D02*
X220200000Y-85570000D01*
%TO.N,MOTION*%
X223200000Y-90950000D02*
X225200000Y-90950000D01*
X221200000Y-88950000D02*
X223200000Y-90950000D01*
X221200000Y-86450000D02*
X221200000Y-88950000D01*
X223700000Y-83950000D02*
X221200000Y-86450000D01*
X223700000Y-74140000D02*
X223700000Y-83950000D01*
%TO.N,SW2_NC*%
X214700000Y-72450000D02*
X214700000Y-67950000D01*
%TO.N,SCROLL_UP*%
X232200000Y-64450000D02*
X232200000Y-57950000D01*
X229700000Y-66950000D02*
X232200000Y-64450000D01*
X220259337Y-66950000D02*
X229700000Y-66950000D01*
X219200000Y-68009337D02*
X220259337Y-66950000D01*
X219200000Y-84300000D02*
X219200000Y-68009337D01*
D24*
%TO.N,USB_D-*%
X238200000Y-64950000D02*
X241200000Y-61950000D01*
X241200000Y-61950000D02*
X241200000Y-42285000D01*
X226700000Y-82840000D02*
X226700000Y-71450000D01*
X233200000Y-64950000D02*
X238200000Y-64950000D01*
X222700000Y-86840000D02*
X226700000Y-82840000D01*
X226700000Y-71450000D02*
X233200000Y-64950000D01*
%TO.N,USB_D+*%
X227700000Y-83340000D02*
X224200000Y-86840000D01*
X227700000Y-71950000D02*
X227700000Y-83340000D01*
X233700000Y-65950000D02*
X227700000Y-71950000D01*
X238700000Y-65950000D02*
X233700000Y-65950000D01*
X242200000Y-62450000D02*
X238700000Y-65950000D01*
X242200000Y-43130000D02*
X242200000Y-62450000D01*
D23*
%TO.N,SW2_NO*%
X213200000Y-72450000D02*
X213200000Y-67950000D01*
%TO.N,SW1_NC*%
X203700000Y-63450000D02*
X203700000Y-56530000D01*
X211200000Y-70950000D02*
X203700000Y-63450000D01*
X211200000Y-76680000D02*
X211200000Y-70950000D01*
%TO.N,SW1_NO*%
X205200000Y-51450000D02*
X203700000Y-51450000D01*
X212200000Y-70450000D02*
X206700000Y-64950000D01*
X212200000Y-75450000D02*
X212200000Y-70450000D01*
X206700000Y-64950000D02*
X206700000Y-52950000D01*
X206700000Y-52950000D02*
X205200000Y-51450000D01*
%TO.N,SCROLL_CLICK*%
X211700000Y-54950000D02*
X210200000Y-53450000D01*
X211700000Y-65950000D02*
X211700000Y-54950000D01*
X210200000Y-53450000D02*
X210200000Y-51870000D01*
X218200000Y-67950000D02*
X217200000Y-66950000D01*
X217200000Y-66950000D02*
X212700000Y-66950000D01*
X218200000Y-83030000D02*
X218200000Y-67950000D01*
X212700000Y-66950000D02*
X211700000Y-65950000D01*
%TO.N,PWR_3.3V*%
X194700000Y-75770000D02*
X194700000Y-68950000D01*
X206200000Y-68950000D02*
X206200000Y-72870000D01*
%TO.N,GND*%
X219900000Y-43950000D02*
X213200000Y-43950000D01*
%TO.N,PWR_1.9V_EN*%
X229200000Y-79950000D02*
X232200000Y-82950000D01*
X232200000Y-82950000D02*
X232200000Y-87950000D01*
X232200000Y-87950000D02*
X235200000Y-90950000D01*
X229200000Y-72870000D02*
X229200000Y-79950000D01*
%TO.N,GND*%
X234690000Y-46440000D02*
X232200000Y-43950000D01*
X239200000Y-46440000D02*
X234690000Y-46440000D01*
X232200000Y-43950000D02*
X219900000Y-43950000D01*
%TO.N,SW4_COM*%
X214125000Y-85375000D02*
X214125000Y-91225500D01*
X204187701Y-69962299D02*
X204187701Y-75437701D01*
X204187701Y-75437701D02*
X214125000Y-85375000D01*
%TO.N,SW3_COM*%
X215395000Y-85145000D02*
X215395000Y-91225500D01*
X205200000Y-74950000D02*
X215395000Y-85145000D01*
X205200000Y-69950000D02*
X205200000Y-74950000D01*
%TO.N,SW4_COM*%
X214132347Y-91218153D02*
X214125000Y-91225500D01*
%TO.N,PWR_3.3V*%
X206200000Y-68950000D02*
X200700000Y-68950000D01*
X200700000Y-68749999D02*
X200713605Y-68763604D01*
%TO.N,GND*%
X232200000Y-71600000D02*
X232200000Y-75810000D01*
X232200000Y-81120000D02*
X236200000Y-85120000D01*
X232200000Y-75810000D02*
X232200000Y-81120000D01*
%TO.N,+BATT*%
X239225001Y-77450000D02*
X245075001Y-71600000D01*
%TO.N,PWR_3.3V*%
X237200000Y-78450000D02*
X235200000Y-78450000D01*
X235200000Y-78450000D02*
X234200000Y-77450000D01*
X234200000Y-77450000D02*
X234200000Y-66950000D01*
X234200000Y-66950000D02*
X244520000Y-66950000D01*
%TO.N,PWR_OUT*%
X238700000Y-85120000D02*
X238700000Y-93950000D01*
%TO.N,PWR_3.3V*%
X231840000Y-111310000D02*
X231840000Y-105450000D01*
X229200000Y-113950000D02*
X231840000Y-111310000D01*
X214700000Y-113950000D02*
X229200000Y-113950000D01*
X212200000Y-111450000D02*
X214700000Y-113950000D01*
X212200000Y-106950000D02*
X212200000Y-111450000D01*
X231700000Y-105590000D02*
X231840000Y-105450000D01*
%TO.N,MOTION*%
X233200000Y-109597500D02*
X233200000Y-90950000D01*
%TO.N,GND*%
X236200000Y-91950000D02*
X236200000Y-85120000D01*
X236200000Y-98950000D02*
X236200000Y-91950000D01*
%TO.N,NRESET*%
X237200000Y-88950000D02*
X237200000Y-100697500D01*
%TO.N,PWR_1.9V*%
X211337500Y-97950000D02*
X211337500Y-100268750D01*
X211337500Y-100268750D02*
X212656250Y-101587500D01*
X212656250Y-101587500D02*
X215850000Y-101587500D01*
D24*
%TO.N,+BATT*%
X247575000Y-82450000D02*
X248575000Y-81450000D01*
X244075000Y-82450000D02*
X247575000Y-82450000D01*
X248575000Y-72950000D02*
X247225000Y-71600000D01*
X248575000Y-81450000D02*
X248575000Y-72950000D01*
X247225000Y-71600000D02*
X245075001Y-71600000D01*
D23*
%TO.N,VBUS*%
X246850500Y-77450000D02*
X244895000Y-77450000D01*
X244895000Y-77450000D02*
X243575000Y-76130000D01*
%TO.N,NCS*%
X230200000Y-88120000D02*
X230200000Y-102450000D01*
%TO.N,MOSI*%
X229200000Y-86840000D02*
X229200000Y-105950000D01*
X229218245Y-86583510D02*
X229200000Y-86601755D01*
%TO.N,SCLK*%
X228200000Y-85570000D02*
X228200000Y-107950000D01*
%TO.N,MISO*%
X231200000Y-84300000D02*
X231200000Y-102950000D01*
%TO.N,GND*%
X197380000Y-71620000D02*
X197380000Y-77120000D01*
X197400000Y-71600000D02*
X197380000Y-71620000D01*
X218700000Y-37600000D02*
X223700000Y-37600000D01*
X239700000Y-81950000D02*
X237200000Y-81950000D01*
%TD*%
M02*
