%TF.GenerationSoftware,KiCad,Pcbnew,7.0.7*%
%TF.CreationDate,2023-11-26T12:30:20-07:00*%
%TF.ProjectId,mouse,6d6f7573-652e-46b6-9963-61645f706362,rev?*%
%TF.SameCoordinates,Original*%
%TF.FileFunction,Plated,1,2,PTH,Mixed*%
%TF.FilePolarity,Positive*%
%FSLAX46Y46*%
G04 Gerber Fmt 4.6, Leading zero omitted, Abs format (unit mm)*
G04 Created by KiCad (PCBNEW 7.0.7) date 2023-11-26 12:30:20*
%MOMM*%
%LPD*%
G01*
G04 APERTURE LIST*
%TA.AperFunction,ComponentDrill*%
%ADD10C,0.200000*%
%TD*%
%TA.AperFunction,ViaDrill*%
%ADD11C,0.300000*%
%TD*%
%TA.AperFunction,ViaDrill*%
%ADD12C,0.400000*%
%TD*%
G04 aperture for slot hole*
%TA.AperFunction,ComponentDrill*%
%ADD13O,0.500000X0.700000*%
%TD*%
G04 aperture for slot hole*
%TA.AperFunction,ComponentDrill*%
%ADD14O,0.600000X1.100000*%
%TD*%
G04 aperture for slot hole*
%TA.AperFunction,ComponentDrill*%
%ADD15O,0.600000X1.300000*%
%TD*%
%TA.AperFunction,ComponentDrill*%
%ADD16C,0.812800*%
%TD*%
%TA.AperFunction,ComponentDrill*%
%ADD17C,0.850000*%
%TD*%
%TA.AperFunction,ComponentDrill*%
%ADD18C,0.900000*%
%TD*%
%TA.AperFunction,ComponentDrill*%
%ADD19C,1.000000*%
%TD*%
%TA.AperFunction,ComponentDrill*%
%ADD20C,1.193800*%
%TD*%
G04 APERTURE END LIST*
D10*
%TO.C,ESP1*%
X214400000Y-78620000D03*
X214400000Y-80020000D03*
X215100000Y-77920000D03*
X215100000Y-79320000D03*
X215100000Y-80720000D03*
X215800000Y-78620000D03*
X215800000Y-80020000D03*
X216500000Y-77920000D03*
X216500000Y-79320000D03*
X216500000Y-80720000D03*
X217200000Y-78620000D03*
X217200000Y-80020000D03*
%TD*%
D11*
X244075000Y-82450000D03*
D12*
X194700000Y-68950000D03*
X194700000Y-75770000D03*
X197380000Y-71600000D03*
X197380000Y-77120000D03*
X198380000Y-59450000D03*
X199700000Y-78120000D03*
X199700000Y-84120000D03*
X200700000Y-68950000D03*
X202200000Y-79620000D03*
X202200000Y-82620000D03*
X202700000Y-64950000D03*
X203200000Y-71600000D03*
X203200000Y-74140000D03*
X204187701Y-69962299D03*
X205200000Y-69950000D03*
X205700000Y-80490000D03*
X205700000Y-81760000D03*
X206200000Y-68950000D03*
X206200000Y-72870000D03*
X210200000Y-64950000D03*
X210200000Y-103367500D03*
X211200000Y-76680000D03*
X211200000Y-77950000D03*
X211200000Y-79220000D03*
X211337500Y-97950000D03*
X212200000Y-75450000D03*
X212200000Y-106950000D03*
X213200000Y-43950000D03*
X213200000Y-64950000D03*
X213200000Y-67950000D03*
X213200000Y-72450000D03*
X214125000Y-91225500D03*
X214700000Y-67950000D03*
X214700000Y-72450000D03*
X215395000Y-91225500D03*
X217200000Y-71600000D03*
X218200000Y-83030000D03*
X219200000Y-84300000D03*
X219900000Y-40950000D03*
X219900000Y-43950000D03*
X220200000Y-77950000D03*
X220200000Y-80490000D03*
X220200000Y-85570000D03*
X220240000Y-75410000D03*
X221200000Y-76680000D03*
X221200000Y-79220000D03*
X221200000Y-81760000D03*
X222700000Y-69950000D03*
X222700000Y-86840000D03*
X223700000Y-40950000D03*
X223700000Y-74140000D03*
X224200000Y-86840000D03*
X225200000Y-90950000D03*
X228200000Y-85570000D03*
X228200000Y-107817500D03*
X229200000Y-72870000D03*
X229200000Y-86840000D03*
X229200000Y-106037500D03*
X230200000Y-88120000D03*
X230200000Y-102450000D03*
X231200000Y-84300000D03*
X231200000Y-102950000D03*
X231840000Y-105450000D03*
X232200000Y-43950000D03*
X232200000Y-71600000D03*
X232200000Y-75810000D03*
X233200000Y-90950000D03*
X233200000Y-109597500D03*
X234200000Y-66950000D03*
X235020000Y-59450000D03*
X235020000Y-63450000D03*
X235200000Y-90950000D03*
X235404600Y-76450000D03*
X236200000Y-91950000D03*
X236200000Y-98950000D03*
X236700000Y-63450000D03*
X237200000Y-78450000D03*
X237200000Y-81950000D03*
X237200000Y-88950000D03*
X237200000Y-100697500D03*
X237995400Y-59450000D03*
X237995400Y-63450000D03*
X237995400Y-71600000D03*
X237995400Y-76450000D03*
X238700000Y-93950000D03*
X239200000Y-60450000D03*
X239200000Y-61950000D03*
X239700000Y-81950000D03*
X241200000Y-42285000D03*
X242200000Y-43130000D03*
X243575000Y-76130000D03*
X244520000Y-66950000D03*
X245075000Y-83450000D03*
X246850500Y-77450000D03*
X247575000Y-76130000D03*
X247575000Y-78709999D03*
D13*
%TO.C,PAW1*%
X215850000Y-96247500D03*
X215850000Y-98027500D03*
X215850000Y-99807500D03*
X215850000Y-101587500D03*
X215850000Y-103367500D03*
X215850000Y-105147500D03*
X215850000Y-106927500D03*
X215850000Y-108707500D03*
X226550000Y-97137500D03*
X226550000Y-98917500D03*
X226550000Y-100697500D03*
X226550000Y-102477500D03*
X226550000Y-104257500D03*
X226550000Y-106037500D03*
X226550000Y-107817500D03*
X226550000Y-109597500D03*
D14*
%TO.C,LMB1*%
X203700000Y-46370000D03*
X203700000Y-51450000D03*
X203700000Y-56530000D03*
%TO.C,MMB1*%
X210200000Y-51870000D03*
X210200000Y-56950000D03*
X210200000Y-62030000D03*
%TO.C,SMB5*%
X213450000Y-119870000D03*
X213450000Y-124950000D03*
X213450000Y-130030000D03*
D15*
%TO.C,J5*%
X217700000Y-34900000D03*
D14*
%TO.C,SMB4*%
X220450000Y-119870000D03*
X220450000Y-124950000D03*
X220450000Y-130030000D03*
D15*
%TO.C,J5*%
X224700000Y-34900000D03*
D14*
%TO.C,RMB1*%
X239200000Y-46440000D03*
X239200000Y-51520000D03*
X239200000Y-56600000D03*
D16*
%TO.C,J2*%
X243074999Y-71600000D03*
X245075001Y-71600000D03*
D17*
%TO.C,J5*%
X218700000Y-37600000D03*
X223700000Y-37600000D03*
D18*
%TO.C,S4*%
X236200000Y-85120000D03*
X238700000Y-85120000D03*
X241200000Y-85120000D03*
D19*
%TO.C,ENC1*%
X232200000Y-52950000D03*
X232200000Y-55450000D03*
X232200000Y-57950000D03*
D20*
%TO.C,J2*%
X246575000Y-69900000D03*
M02*
