%TF.GenerationSoftware,KiCad,Pcbnew,7.0.7*%
%TF.CreationDate,2023-11-26T12:30:26-07:00*%
%TF.ProjectId,mouse,6d6f7573-652e-46b6-9963-61645f706362,rev?*%
%TF.SameCoordinates,Original*%
%TF.FileFunction,Drillmap*%
%TF.FilePolarity,Positive*%
%FSLAX45Y45*%
G04 Gerber Fmt 4.5, Leading zero omitted, Abs format (unit mm)*
G04 Created by KiCad (PCBNEW 7.0.7) date 2023-11-26 12:30:26*
%MOMM*%
%LPD*%
G01*
G04 APERTURE LIST*
%ADD10C,0.200000*%
%ADD11C,0.100000*%
%ADD12C,0.020000*%
%ADD13C,0.030000*%
%ADD14C,0.040000*%
%ADD15C,0.050000*%
%ADD16C,0.060000*%
%ADD17C,0.081280*%
%ADD18C,0.085000*%
%ADD19C,0.090000*%
%ADD20C,0.119380*%
G04 APERTURE END LIST*
D10*
X25120000Y-4595000D02*
X25120000Y-10295000D01*
X23870000Y-11545000D01*
X23870000Y-13445000D01*
X20420000Y-13445000D01*
X20420000Y-11545000D01*
X19170000Y-10295000D01*
X19170000Y-4595000D01*
X20420000Y-3345000D01*
X23870000Y-3345000D01*
X25120000Y-4595000D01*
D11*
X21470000Y-4545000D02*
X22770000Y-4545000D01*
X22770000Y-6545000D01*
X21470000Y-6545000D01*
X21470000Y-4545000D01*
D10*
D12*
X21430000Y-7852000D02*
X21450000Y-7872000D01*
X21450000Y-7852000D02*
X21430000Y-7872000D01*
X21430000Y-7992000D02*
X21450000Y-8012000D01*
X21450000Y-7992000D02*
X21430000Y-8012000D01*
X21500000Y-7782000D02*
X21520000Y-7802000D01*
X21520000Y-7782000D02*
X21500000Y-7802000D01*
X21500000Y-7922000D02*
X21520000Y-7942000D01*
X21520000Y-7922000D02*
X21500000Y-7942000D01*
X21500000Y-8062000D02*
X21520000Y-8082000D01*
X21520000Y-8062000D02*
X21500000Y-8082000D01*
X21570000Y-7852000D02*
X21590000Y-7872000D01*
X21590000Y-7852000D02*
X21570000Y-7872000D01*
X21570000Y-7992000D02*
X21590000Y-8012000D01*
X21590000Y-7992000D02*
X21570000Y-8012000D01*
X21640000Y-7782000D02*
X21660000Y-7802000D01*
X21660000Y-7782000D02*
X21640000Y-7802000D01*
X21640000Y-7922000D02*
X21660000Y-7942000D01*
X21660000Y-7922000D02*
X21640000Y-7942000D01*
X21640000Y-8062000D02*
X21660000Y-8082000D01*
X21660000Y-8062000D02*
X21640000Y-8082000D01*
X21710000Y-7852000D02*
X21730000Y-7872000D01*
X21730000Y-7852000D02*
X21710000Y-7872000D01*
X21710000Y-7992000D02*
X21730000Y-8012000D01*
X21730000Y-7992000D02*
X21710000Y-8012000D01*
D13*
X24422500Y-8245000D02*
G75*
G03*
X24422500Y-8245000I-15000J0D01*
G01*
D14*
X19470000Y-6875000D02*
X19470000Y-6915000D01*
X19450000Y-6895000D02*
X19490000Y-6895000D01*
X19470000Y-7557000D02*
X19470000Y-7597000D01*
X19450000Y-7577000D02*
X19490000Y-7577000D01*
X19738000Y-7140000D02*
X19738000Y-7180000D01*
X19718000Y-7160000D02*
X19758000Y-7160000D01*
X19738000Y-7692000D02*
X19738000Y-7732000D01*
X19718000Y-7712000D02*
X19758000Y-7712000D01*
X19838000Y-5925000D02*
X19838000Y-5965000D01*
X19818000Y-5945000D02*
X19858000Y-5945000D01*
X19970000Y-7792000D02*
X19970000Y-7832000D01*
X19950000Y-7812000D02*
X19990000Y-7812000D01*
X19970000Y-8392000D02*
X19970000Y-8432000D01*
X19950000Y-8412000D02*
X19990000Y-8412000D01*
X20070000Y-6875000D02*
X20070000Y-6915000D01*
X20050000Y-6895000D02*
X20090000Y-6895000D01*
X20220000Y-7942000D02*
X20220000Y-7982000D01*
X20200000Y-7962000D02*
X20240000Y-7962000D01*
X20220000Y-8242000D02*
X20220000Y-8282000D01*
X20200000Y-8262000D02*
X20240000Y-8262000D01*
X20270000Y-6475000D02*
X20270000Y-6515000D01*
X20250000Y-6495000D02*
X20290000Y-6495000D01*
X20320000Y-7140000D02*
X20320000Y-7180000D01*
X20300000Y-7160000D02*
X20340000Y-7160000D01*
X20320000Y-7394000D02*
X20320000Y-7434000D01*
X20300000Y-7414000D02*
X20340000Y-7414000D01*
X20418770Y-6976230D02*
X20418770Y-7016230D01*
X20398770Y-6996230D02*
X20438770Y-6996230D01*
X20520000Y-6975000D02*
X20520000Y-7015000D01*
X20500000Y-6995000D02*
X20540000Y-6995000D01*
X20570000Y-8029000D02*
X20570000Y-8069000D01*
X20550000Y-8049000D02*
X20590000Y-8049000D01*
X20570000Y-8156000D02*
X20570000Y-8196000D01*
X20550000Y-8176000D02*
X20590000Y-8176000D01*
X20620000Y-6875000D02*
X20620000Y-6915000D01*
X20600000Y-6895000D02*
X20640000Y-6895000D01*
X20620000Y-7267000D02*
X20620000Y-7307000D01*
X20600000Y-7287000D02*
X20640000Y-7287000D01*
X21020000Y-6475000D02*
X21020000Y-6515000D01*
X21000000Y-6495000D02*
X21040000Y-6495000D01*
X21020000Y-10316750D02*
X21020000Y-10356750D01*
X21000000Y-10336750D02*
X21040000Y-10336750D01*
X21120000Y-7648000D02*
X21120000Y-7688000D01*
X21100000Y-7668000D02*
X21140000Y-7668000D01*
X21120000Y-7775000D02*
X21120000Y-7815000D01*
X21100000Y-7795000D02*
X21140000Y-7795000D01*
X21120000Y-7902000D02*
X21120000Y-7942000D01*
X21100000Y-7922000D02*
X21140000Y-7922000D01*
X21133750Y-9775000D02*
X21133750Y-9815000D01*
X21113750Y-9795000D02*
X21153750Y-9795000D01*
X21220000Y-7525000D02*
X21220000Y-7565000D01*
X21200000Y-7545000D02*
X21240000Y-7545000D01*
X21220000Y-10675000D02*
X21220000Y-10715000D01*
X21200000Y-10695000D02*
X21240000Y-10695000D01*
X21320000Y-4375000D02*
X21320000Y-4415000D01*
X21300000Y-4395000D02*
X21340000Y-4395000D01*
X21320000Y-6475000D02*
X21320000Y-6515000D01*
X21300000Y-6495000D02*
X21340000Y-6495000D01*
X21320000Y-6775000D02*
X21320000Y-6815000D01*
X21300000Y-6795000D02*
X21340000Y-6795000D01*
X21320000Y-7225000D02*
X21320000Y-7265000D01*
X21300000Y-7245000D02*
X21340000Y-7245000D01*
X21412500Y-9102550D02*
X21412500Y-9142550D01*
X21392500Y-9122550D02*
X21432500Y-9122550D01*
X21470000Y-6775000D02*
X21470000Y-6815000D01*
X21450000Y-6795000D02*
X21490000Y-6795000D01*
X21470000Y-7225000D02*
X21470000Y-7265000D01*
X21450000Y-7245000D02*
X21490000Y-7245000D01*
X21539500Y-9102550D02*
X21539500Y-9142550D01*
X21519500Y-9122550D02*
X21559500Y-9122550D01*
X21720000Y-7140000D02*
X21720000Y-7180000D01*
X21700000Y-7160000D02*
X21740000Y-7160000D01*
X21820000Y-8283000D02*
X21820000Y-8323000D01*
X21800000Y-8303000D02*
X21840000Y-8303000D01*
X21920000Y-8410000D02*
X21920000Y-8450000D01*
X21900000Y-8430000D02*
X21940000Y-8430000D01*
X21990000Y-4075000D02*
X21990000Y-4115000D01*
X21970000Y-4095000D02*
X22010000Y-4095000D01*
X21990000Y-4375000D02*
X21990000Y-4415000D01*
X21970000Y-4395000D02*
X22010000Y-4395000D01*
X22020000Y-7775000D02*
X22020000Y-7815000D01*
X22000000Y-7795000D02*
X22040000Y-7795000D01*
X22020000Y-8029000D02*
X22020000Y-8069000D01*
X22000000Y-8049000D02*
X22040000Y-8049000D01*
X22020000Y-8537000D02*
X22020000Y-8577000D01*
X22000000Y-8557000D02*
X22040000Y-8557000D01*
X22024000Y-7521000D02*
X22024000Y-7561000D01*
X22004000Y-7541000D02*
X22044000Y-7541000D01*
X22120000Y-7648000D02*
X22120000Y-7688000D01*
X22100000Y-7668000D02*
X22140000Y-7668000D01*
X22120000Y-7902000D02*
X22120000Y-7942000D01*
X22100000Y-7922000D02*
X22140000Y-7922000D01*
X22120000Y-8156000D02*
X22120000Y-8196000D01*
X22100000Y-8176000D02*
X22140000Y-8176000D01*
X22270000Y-6975000D02*
X22270000Y-7015000D01*
X22250000Y-6995000D02*
X22290000Y-6995000D01*
X22270000Y-8664000D02*
X22270000Y-8704000D01*
X22250000Y-8684000D02*
X22290000Y-8684000D01*
X22370000Y-4075000D02*
X22370000Y-4115000D01*
X22350000Y-4095000D02*
X22390000Y-4095000D01*
X22370000Y-7394000D02*
X22370000Y-7434000D01*
X22350000Y-7414000D02*
X22390000Y-7414000D01*
X22420000Y-8664000D02*
X22420000Y-8704000D01*
X22400000Y-8684000D02*
X22440000Y-8684000D01*
X22520000Y-9075000D02*
X22520000Y-9115000D01*
X22500000Y-9095000D02*
X22540000Y-9095000D01*
X22820000Y-8537000D02*
X22820000Y-8577000D01*
X22800000Y-8557000D02*
X22840000Y-8557000D01*
X22820000Y-10761750D02*
X22820000Y-10801750D01*
X22800000Y-10781750D02*
X22840000Y-10781750D01*
X22920000Y-7267000D02*
X22920000Y-7307000D01*
X22900000Y-7287000D02*
X22940000Y-7287000D01*
X22920000Y-8664000D02*
X22920000Y-8704000D01*
X22900000Y-8684000D02*
X22940000Y-8684000D01*
X22920000Y-10583750D02*
X22920000Y-10623750D01*
X22900000Y-10603750D02*
X22940000Y-10603750D01*
X23020000Y-8792000D02*
X23020000Y-8832000D01*
X23000000Y-8812000D02*
X23040000Y-8812000D01*
X23020000Y-10225000D02*
X23020000Y-10265000D01*
X23000000Y-10245000D02*
X23040000Y-10245000D01*
X23120000Y-8410000D02*
X23120000Y-8450000D01*
X23100000Y-8430000D02*
X23140000Y-8430000D01*
X23120000Y-10275000D02*
X23120000Y-10315000D01*
X23100000Y-10295000D02*
X23140000Y-10295000D01*
X23184000Y-10525000D02*
X23184000Y-10565000D01*
X23164000Y-10545000D02*
X23204000Y-10545000D01*
X23220000Y-4375000D02*
X23220000Y-4415000D01*
X23200000Y-4395000D02*
X23240000Y-4395000D01*
X23220000Y-7140000D02*
X23220000Y-7180000D01*
X23200000Y-7160000D02*
X23240000Y-7160000D01*
X23220000Y-7561000D02*
X23220000Y-7601000D01*
X23200000Y-7581000D02*
X23240000Y-7581000D01*
X23320000Y-9075000D02*
X23320000Y-9115000D01*
X23300000Y-9095000D02*
X23340000Y-9095000D01*
X23320000Y-10939750D02*
X23320000Y-10979750D01*
X23300000Y-10959750D02*
X23340000Y-10959750D01*
X23420000Y-6675000D02*
X23420000Y-6715000D01*
X23400000Y-6695000D02*
X23440000Y-6695000D01*
X23502000Y-5925000D02*
X23502000Y-5965000D01*
X23482000Y-5945000D02*
X23522000Y-5945000D01*
X23502000Y-6325000D02*
X23502000Y-6365000D01*
X23482000Y-6345000D02*
X23522000Y-6345000D01*
X23520000Y-9075000D02*
X23520000Y-9115000D01*
X23500000Y-9095000D02*
X23540000Y-9095000D01*
X23540460Y-7625000D02*
X23540460Y-7665000D01*
X23520460Y-7645000D02*
X23560460Y-7645000D01*
X23620000Y-9175000D02*
X23620000Y-9215000D01*
X23600000Y-9195000D02*
X23640000Y-9195000D01*
X23620000Y-9875000D02*
X23620000Y-9915000D01*
X23600000Y-9895000D02*
X23640000Y-9895000D01*
X23670000Y-6325000D02*
X23670000Y-6365000D01*
X23650000Y-6345000D02*
X23690000Y-6345000D01*
X23720000Y-7825000D02*
X23720000Y-7865000D01*
X23700000Y-7845000D02*
X23740000Y-7845000D01*
X23720000Y-8175000D02*
X23720000Y-8215000D01*
X23700000Y-8195000D02*
X23740000Y-8195000D01*
X23720000Y-8875000D02*
X23720000Y-8915000D01*
X23700000Y-8895000D02*
X23740000Y-8895000D01*
X23720000Y-10049750D02*
X23720000Y-10089750D01*
X23700000Y-10069750D02*
X23740000Y-10069750D01*
X23799540Y-5925000D02*
X23799540Y-5965000D01*
X23779540Y-5945000D02*
X23819540Y-5945000D01*
X23799540Y-6325000D02*
X23799540Y-6365000D01*
X23779540Y-6345000D02*
X23819540Y-6345000D01*
X23799540Y-7140000D02*
X23799540Y-7180000D01*
X23779540Y-7160000D02*
X23819540Y-7160000D01*
X23799540Y-7625000D02*
X23799540Y-7665000D01*
X23779540Y-7645000D02*
X23819540Y-7645000D01*
X23870000Y-9375000D02*
X23870000Y-9415000D01*
X23850000Y-9395000D02*
X23890000Y-9395000D01*
X23920000Y-6025000D02*
X23920000Y-6065000D01*
X23900000Y-6045000D02*
X23940000Y-6045000D01*
X23920000Y-6175000D02*
X23920000Y-6215000D01*
X23900000Y-6195000D02*
X23940000Y-6195000D01*
X23970000Y-8175000D02*
X23970000Y-8215000D01*
X23950000Y-8195000D02*
X23990000Y-8195000D01*
X24120000Y-4208500D02*
X24120000Y-4248500D01*
X24100000Y-4228500D02*
X24140000Y-4228500D01*
X24220000Y-4293000D02*
X24220000Y-4333000D01*
X24200000Y-4313000D02*
X24240000Y-4313000D01*
X24357500Y-7593000D02*
X24357500Y-7633000D01*
X24337500Y-7613000D02*
X24377500Y-7613000D01*
X24452000Y-6675000D02*
X24452000Y-6715000D01*
X24432000Y-6695000D02*
X24472000Y-6695000D01*
X24507500Y-8325000D02*
X24507500Y-8365000D01*
X24487500Y-8345000D02*
X24527500Y-8345000D01*
X24685050Y-7725000D02*
X24685050Y-7765000D01*
X24665050Y-7745000D02*
X24705050Y-7745000D01*
X24757500Y-7593000D02*
X24757500Y-7633000D01*
X24737500Y-7613000D02*
X24777500Y-7613000D01*
X24757500Y-7851000D02*
X24757500Y-7891000D01*
X24737500Y-7871000D02*
X24777500Y-7871000D01*
D15*
X21602678Y-9642428D02*
X21602678Y-9607072D01*
X21567322Y-9607072D01*
X21567322Y-9642428D01*
X21602678Y-9642428D01*
D10*
X21560000Y-9614750D02*
X21560000Y-9634750D01*
X21560000Y-9634750D02*
G75*
G03*
X21610000Y-9634750I25000J0D01*
G01*
X21610000Y-9634750D02*
X21610000Y-9614750D01*
X21610000Y-9614750D02*
G75*
G03*
X21560000Y-9614750I-25000J0D01*
G01*
D15*
X21602678Y-9820428D02*
X21602678Y-9785072D01*
X21567322Y-9785072D01*
X21567322Y-9820428D01*
X21602678Y-9820428D01*
D10*
X21560000Y-9792750D02*
X21560000Y-9812750D01*
X21560000Y-9812750D02*
G75*
G03*
X21610000Y-9812750I25000J0D01*
G01*
X21610000Y-9812750D02*
X21610000Y-9792750D01*
X21610000Y-9792750D02*
G75*
G03*
X21560000Y-9792750I-25000J0D01*
G01*
D15*
X21602678Y-9998428D02*
X21602678Y-9963072D01*
X21567322Y-9963072D01*
X21567322Y-9998428D01*
X21602678Y-9998428D01*
D10*
X21560000Y-9970750D02*
X21560000Y-9990750D01*
X21560000Y-9990750D02*
G75*
G03*
X21610000Y-9990750I25000J0D01*
G01*
X21610000Y-9990750D02*
X21610000Y-9970750D01*
X21610000Y-9970750D02*
G75*
G03*
X21560000Y-9970750I-25000J0D01*
G01*
D15*
X21602678Y-10176428D02*
X21602678Y-10141072D01*
X21567322Y-10141072D01*
X21567322Y-10176428D01*
X21602678Y-10176428D01*
D10*
X21560000Y-10148750D02*
X21560000Y-10168750D01*
X21560000Y-10168750D02*
G75*
G03*
X21610000Y-10168750I25000J0D01*
G01*
X21610000Y-10168750D02*
X21610000Y-10148750D01*
X21610000Y-10148750D02*
G75*
G03*
X21560000Y-10148750I-25000J0D01*
G01*
D15*
X21602678Y-10354428D02*
X21602678Y-10319072D01*
X21567322Y-10319072D01*
X21567322Y-10354428D01*
X21602678Y-10354428D01*
D10*
X21560000Y-10326750D02*
X21560000Y-10346750D01*
X21560000Y-10346750D02*
G75*
G03*
X21610000Y-10346750I25000J0D01*
G01*
X21610000Y-10346750D02*
X21610000Y-10326750D01*
X21610000Y-10326750D02*
G75*
G03*
X21560000Y-10326750I-25000J0D01*
G01*
D15*
X21602678Y-10532428D02*
X21602678Y-10497072D01*
X21567322Y-10497072D01*
X21567322Y-10532428D01*
X21602678Y-10532428D01*
D10*
X21560000Y-10504750D02*
X21560000Y-10524750D01*
X21560000Y-10524750D02*
G75*
G03*
X21610000Y-10524750I25000J0D01*
G01*
X21610000Y-10524750D02*
X21610000Y-10504750D01*
X21610000Y-10504750D02*
G75*
G03*
X21560000Y-10504750I-25000J0D01*
G01*
D15*
X21602678Y-10710428D02*
X21602678Y-10675072D01*
X21567322Y-10675072D01*
X21567322Y-10710428D01*
X21602678Y-10710428D01*
D10*
X21560000Y-10682750D02*
X21560000Y-10702750D01*
X21560000Y-10702750D02*
G75*
G03*
X21610000Y-10702750I25000J0D01*
G01*
X21610000Y-10702750D02*
X21610000Y-10682750D01*
X21610000Y-10682750D02*
G75*
G03*
X21560000Y-10682750I-25000J0D01*
G01*
D15*
X21602678Y-10888428D02*
X21602678Y-10853072D01*
X21567322Y-10853072D01*
X21567322Y-10888428D01*
X21602678Y-10888428D01*
D10*
X21560000Y-10860750D02*
X21560000Y-10880750D01*
X21560000Y-10880750D02*
G75*
G03*
X21610000Y-10880750I25000J0D01*
G01*
X21610000Y-10880750D02*
X21610000Y-10860750D01*
X21610000Y-10860750D02*
G75*
G03*
X21560000Y-10860750I-25000J0D01*
G01*
D15*
X22672678Y-9731428D02*
X22672678Y-9696072D01*
X22637322Y-9696072D01*
X22637322Y-9731428D01*
X22672678Y-9731428D01*
D10*
X22630000Y-9703750D02*
X22630000Y-9723750D01*
X22630000Y-9723750D02*
G75*
G03*
X22680000Y-9723750I25000J0D01*
G01*
X22680000Y-9723750D02*
X22680000Y-9703750D01*
X22680000Y-9703750D02*
G75*
G03*
X22630000Y-9703750I-25000J0D01*
G01*
D15*
X22672678Y-9909428D02*
X22672678Y-9874072D01*
X22637322Y-9874072D01*
X22637322Y-9909428D01*
X22672678Y-9909428D01*
D10*
X22630000Y-9881750D02*
X22630000Y-9901750D01*
X22630000Y-9901750D02*
G75*
G03*
X22680000Y-9901750I25000J0D01*
G01*
X22680000Y-9901750D02*
X22680000Y-9881750D01*
X22680000Y-9881750D02*
G75*
G03*
X22630000Y-9881750I-25000J0D01*
G01*
D15*
X22672678Y-10087428D02*
X22672678Y-10052072D01*
X22637322Y-10052072D01*
X22637322Y-10087428D01*
X22672678Y-10087428D01*
D10*
X22630000Y-10059750D02*
X22630000Y-10079750D01*
X22630000Y-10079750D02*
G75*
G03*
X22680000Y-10079750I25000J0D01*
G01*
X22680000Y-10079750D02*
X22680000Y-10059750D01*
X22680000Y-10059750D02*
G75*
G03*
X22630000Y-10059750I-25000J0D01*
G01*
D15*
X22672678Y-10265428D02*
X22672678Y-10230072D01*
X22637322Y-10230072D01*
X22637322Y-10265428D01*
X22672678Y-10265428D01*
D10*
X22630000Y-10237750D02*
X22630000Y-10257750D01*
X22630000Y-10257750D02*
G75*
G03*
X22680000Y-10257750I25000J0D01*
G01*
X22680000Y-10257750D02*
X22680000Y-10237750D01*
X22680000Y-10237750D02*
G75*
G03*
X22630000Y-10237750I-25000J0D01*
G01*
D15*
X22672678Y-10443428D02*
X22672678Y-10408072D01*
X22637322Y-10408072D01*
X22637322Y-10443428D01*
X22672678Y-10443428D01*
D10*
X22630000Y-10415750D02*
X22630000Y-10435750D01*
X22630000Y-10435750D02*
G75*
G03*
X22680000Y-10435750I25000J0D01*
G01*
X22680000Y-10435750D02*
X22680000Y-10415750D01*
X22680000Y-10415750D02*
G75*
G03*
X22630000Y-10415750I-25000J0D01*
G01*
D15*
X22672678Y-10621428D02*
X22672678Y-10586072D01*
X22637322Y-10586072D01*
X22637322Y-10621428D01*
X22672678Y-10621428D01*
D10*
X22630000Y-10593750D02*
X22630000Y-10613750D01*
X22630000Y-10613750D02*
G75*
G03*
X22680000Y-10613750I25000J0D01*
G01*
X22680000Y-10613750D02*
X22680000Y-10593750D01*
X22680000Y-10593750D02*
G75*
G03*
X22630000Y-10593750I-25000J0D01*
G01*
D15*
X22672678Y-10799428D02*
X22672678Y-10764072D01*
X22637322Y-10764072D01*
X22637322Y-10799428D01*
X22672678Y-10799428D01*
D10*
X22630000Y-10771750D02*
X22630000Y-10791750D01*
X22630000Y-10791750D02*
G75*
G03*
X22680000Y-10791750I25000J0D01*
G01*
X22680000Y-10791750D02*
X22680000Y-10771750D01*
X22680000Y-10771750D02*
G75*
G03*
X22630000Y-10771750I-25000J0D01*
G01*
D15*
X22672678Y-10977428D02*
X22672678Y-10942072D01*
X22637322Y-10942072D01*
X22637322Y-10977428D01*
X22672678Y-10977428D01*
D10*
X22630000Y-10949750D02*
X22630000Y-10969750D01*
X22630000Y-10969750D02*
G75*
G03*
X22680000Y-10969750I25000J0D01*
G01*
X22680000Y-10969750D02*
X22680000Y-10949750D01*
X22680000Y-10949750D02*
G75*
G03*
X22630000Y-10949750I-25000J0D01*
G01*
D16*
X20370000Y-4667000D02*
X20400000Y-4637000D01*
X20370000Y-4607000D01*
X20340000Y-4637000D01*
X20370000Y-4667000D01*
D10*
X20340000Y-4612000D02*
X20340000Y-4662000D01*
X20340000Y-4662000D02*
G75*
G03*
X20400000Y-4662000I30000J0D01*
G01*
X20400000Y-4662000D02*
X20400000Y-4612000D01*
X20400000Y-4612000D02*
G75*
G03*
X20340000Y-4612000I-30000J0D01*
G01*
D16*
X20370000Y-5175000D02*
X20400000Y-5145000D01*
X20370000Y-5115000D01*
X20340000Y-5145000D01*
X20370000Y-5175000D01*
D10*
X20340000Y-5120000D02*
X20340000Y-5170000D01*
X20340000Y-5170000D02*
G75*
G03*
X20400000Y-5170000I30000J0D01*
G01*
X20400000Y-5170000D02*
X20400000Y-5120000D01*
X20400000Y-5120000D02*
G75*
G03*
X20340000Y-5120000I-30000J0D01*
G01*
D16*
X20370000Y-5683000D02*
X20400000Y-5653000D01*
X20370000Y-5623000D01*
X20340000Y-5653000D01*
X20370000Y-5683000D01*
D10*
X20340000Y-5628000D02*
X20340000Y-5678000D01*
X20340000Y-5678000D02*
G75*
G03*
X20400000Y-5678000I30000J0D01*
G01*
X20400000Y-5678000D02*
X20400000Y-5628000D01*
X20400000Y-5628000D02*
G75*
G03*
X20340000Y-5628000I-30000J0D01*
G01*
D16*
X21020000Y-5217000D02*
X21050000Y-5187000D01*
X21020000Y-5157000D01*
X20990000Y-5187000D01*
X21020000Y-5217000D01*
D10*
X20990000Y-5162000D02*
X20990000Y-5212000D01*
X20990000Y-5212000D02*
G75*
G03*
X21050000Y-5212000I30000J0D01*
G01*
X21050000Y-5212000D02*
X21050000Y-5162000D01*
X21050000Y-5162000D02*
G75*
G03*
X20990000Y-5162000I-30000J0D01*
G01*
D16*
X21020000Y-5725000D02*
X21050000Y-5695000D01*
X21020000Y-5665000D01*
X20990000Y-5695000D01*
X21020000Y-5725000D01*
D10*
X20990000Y-5670000D02*
X20990000Y-5720000D01*
X20990000Y-5720000D02*
G75*
G03*
X21050000Y-5720000I30000J0D01*
G01*
X21050000Y-5720000D02*
X21050000Y-5670000D01*
X21050000Y-5670000D02*
G75*
G03*
X20990000Y-5670000I-30000J0D01*
G01*
D16*
X21020000Y-6233000D02*
X21050000Y-6203000D01*
X21020000Y-6173000D01*
X20990000Y-6203000D01*
X21020000Y-6233000D01*
D10*
X20990000Y-6178000D02*
X20990000Y-6228000D01*
X20990000Y-6228000D02*
G75*
G03*
X21050000Y-6228000I30000J0D01*
G01*
X21050000Y-6228000D02*
X21050000Y-6178000D01*
X21050000Y-6178000D02*
G75*
G03*
X20990000Y-6178000I-30000J0D01*
G01*
D16*
X21345000Y-12017000D02*
X21375000Y-11987000D01*
X21345000Y-11957000D01*
X21315000Y-11987000D01*
X21345000Y-12017000D01*
D10*
X21315000Y-11962000D02*
X21315000Y-12012000D01*
X21315000Y-12012000D02*
G75*
G03*
X21375000Y-12012000I30000J0D01*
G01*
X21375000Y-12012000D02*
X21375000Y-11962000D01*
X21375000Y-11962000D02*
G75*
G03*
X21315000Y-11962000I-30000J0D01*
G01*
D16*
X21345000Y-12525000D02*
X21375000Y-12495000D01*
X21345000Y-12465000D01*
X21315000Y-12495000D01*
X21345000Y-12525000D01*
D10*
X21315000Y-12470000D02*
X21315000Y-12520000D01*
X21315000Y-12520000D02*
G75*
G03*
X21375000Y-12520000I30000J0D01*
G01*
X21375000Y-12520000D02*
X21375000Y-12470000D01*
X21375000Y-12470000D02*
G75*
G03*
X21315000Y-12470000I-30000J0D01*
G01*
D16*
X21345000Y-13033000D02*
X21375000Y-13003000D01*
X21345000Y-12973000D01*
X21315000Y-13003000D01*
X21345000Y-13033000D01*
D10*
X21315000Y-12978000D02*
X21315000Y-13028000D01*
X21315000Y-13028000D02*
G75*
G03*
X21375000Y-13028000I30000J0D01*
G01*
X21375000Y-13028000D02*
X21375000Y-12978000D01*
X21375000Y-12978000D02*
G75*
G03*
X21315000Y-12978000I-30000J0D01*
G01*
D16*
X21770000Y-3520000D02*
X21800000Y-3490000D01*
X21770000Y-3460000D01*
X21740000Y-3490000D01*
X21770000Y-3520000D01*
D10*
X21800000Y-3525000D02*
X21800000Y-3455000D01*
X21800000Y-3455000D02*
G75*
G03*
X21740000Y-3455000I-30000J0D01*
G01*
X21740000Y-3455000D02*
X21740000Y-3525000D01*
X21740000Y-3525000D02*
G75*
G03*
X21800000Y-3525000I30000J0D01*
G01*
D16*
X22045000Y-12017000D02*
X22075000Y-11987000D01*
X22045000Y-11957000D01*
X22015000Y-11987000D01*
X22045000Y-12017000D01*
D10*
X22015000Y-11962000D02*
X22015000Y-12012000D01*
X22015000Y-12012000D02*
G75*
G03*
X22075000Y-12012000I30000J0D01*
G01*
X22075000Y-12012000D02*
X22075000Y-11962000D01*
X22075000Y-11962000D02*
G75*
G03*
X22015000Y-11962000I-30000J0D01*
G01*
D16*
X22045000Y-12525000D02*
X22075000Y-12495000D01*
X22045000Y-12465000D01*
X22015000Y-12495000D01*
X22045000Y-12525000D01*
D10*
X22015000Y-12470000D02*
X22015000Y-12520000D01*
X22015000Y-12520000D02*
G75*
G03*
X22075000Y-12520000I30000J0D01*
G01*
X22075000Y-12520000D02*
X22075000Y-12470000D01*
X22075000Y-12470000D02*
G75*
G03*
X22015000Y-12470000I-30000J0D01*
G01*
D16*
X22045000Y-13033000D02*
X22075000Y-13003000D01*
X22045000Y-12973000D01*
X22015000Y-13003000D01*
X22045000Y-13033000D01*
D10*
X22015000Y-12978000D02*
X22015000Y-13028000D01*
X22015000Y-13028000D02*
G75*
G03*
X22075000Y-13028000I30000J0D01*
G01*
X22075000Y-13028000D02*
X22075000Y-12978000D01*
X22075000Y-12978000D02*
G75*
G03*
X22015000Y-12978000I-30000J0D01*
G01*
D16*
X22470000Y-3520000D02*
X22500000Y-3490000D01*
X22470000Y-3460000D01*
X22440000Y-3490000D01*
X22470000Y-3520000D01*
D10*
X22500000Y-3525000D02*
X22500000Y-3455000D01*
X22500000Y-3455000D02*
G75*
G03*
X22440000Y-3455000I-30000J0D01*
G01*
X22440000Y-3455000D02*
X22440000Y-3525000D01*
X22440000Y-3525000D02*
G75*
G03*
X22500000Y-3525000I30000J0D01*
G01*
D16*
X23920000Y-4674000D02*
X23950000Y-4644000D01*
X23920000Y-4614000D01*
X23890000Y-4644000D01*
X23920000Y-4674000D01*
D10*
X23890000Y-4619000D02*
X23890000Y-4669000D01*
X23890000Y-4669000D02*
G75*
G03*
X23950000Y-4669000I30000J0D01*
G01*
X23950000Y-4669000D02*
X23950000Y-4619000D01*
X23950000Y-4619000D02*
G75*
G03*
X23890000Y-4619000I-30000J0D01*
G01*
D16*
X23920000Y-5182000D02*
X23950000Y-5152000D01*
X23920000Y-5122000D01*
X23890000Y-5152000D01*
X23920000Y-5182000D01*
D10*
X23890000Y-5127000D02*
X23890000Y-5177000D01*
X23890000Y-5177000D02*
G75*
G03*
X23950000Y-5177000I30000J0D01*
G01*
X23950000Y-5177000D02*
X23950000Y-5127000D01*
X23950000Y-5127000D02*
G75*
G03*
X23890000Y-5127000I-30000J0D01*
G01*
D16*
X23920000Y-5690000D02*
X23950000Y-5660000D01*
X23920000Y-5630000D01*
X23890000Y-5660000D01*
X23920000Y-5690000D01*
D10*
X23890000Y-5635000D02*
X23890000Y-5685000D01*
X23890000Y-5685000D02*
G75*
G03*
X23950000Y-5685000I30000J0D01*
G01*
X23950000Y-5685000D02*
X23950000Y-5635000D01*
X23950000Y-5635000D02*
G75*
G03*
X23890000Y-5635000I-30000J0D01*
G01*
D17*
X24266860Y-7119360D02*
X24348140Y-7200640D01*
X24348140Y-7119360D02*
X24266860Y-7200640D01*
X24348140Y-7160000D02*
G75*
G03*
X24348140Y-7160000I-40640J0D01*
G01*
X24466860Y-7119360D02*
X24548140Y-7200640D01*
X24548140Y-7119360D02*
X24466860Y-7200640D01*
X24548140Y-7160000D02*
G75*
G03*
X24548140Y-7160000I-40640J0D01*
G01*
D18*
X21827500Y-3717500D02*
X21912500Y-3802500D01*
X21912500Y-3717500D02*
X21827500Y-3802500D01*
X21870000Y-3717500D02*
X21870000Y-3802500D01*
X21827500Y-3760000D02*
X21912500Y-3760000D01*
X22327500Y-3717500D02*
X22412500Y-3802500D01*
X22412500Y-3717500D02*
X22327500Y-3802500D01*
X22370000Y-3717500D02*
X22370000Y-3802500D01*
X22327500Y-3760000D02*
X22412500Y-3760000D01*
D19*
X23575000Y-8467000D02*
X23665000Y-8557000D01*
X23665000Y-8467000D02*
X23575000Y-8557000D01*
X23651820Y-8543820D02*
X23651820Y-8480180D01*
X23588180Y-8480180D01*
X23588180Y-8543820D01*
X23651820Y-8543820D01*
X23825000Y-8467000D02*
X23915000Y-8557000D01*
X23915000Y-8467000D02*
X23825000Y-8557000D01*
X23901820Y-8543820D02*
X23901820Y-8480180D01*
X23838180Y-8480180D01*
X23838180Y-8543820D01*
X23901820Y-8543820D01*
X24075000Y-8467000D02*
X24165000Y-8557000D01*
X24165000Y-8467000D02*
X24075000Y-8557000D01*
X24151820Y-8543820D02*
X24151820Y-8480180D01*
X24088180Y-8480180D01*
X24088180Y-8543820D01*
X24151820Y-8543820D01*
D11*
X23170000Y-5245000D02*
X23270000Y-5345000D01*
X23270000Y-5245000D02*
X23170000Y-5345000D01*
X23220000Y-5345000D02*
X23270000Y-5295000D01*
X23220000Y-5245000D01*
X23170000Y-5295000D01*
X23220000Y-5345000D01*
X23170000Y-5495000D02*
X23270000Y-5595000D01*
X23270000Y-5495000D02*
X23170000Y-5595000D01*
X23220000Y-5595000D02*
X23270000Y-5545000D01*
X23220000Y-5495000D01*
X23170000Y-5545000D01*
X23220000Y-5595000D01*
X23170000Y-5745000D02*
X23270000Y-5845000D01*
X23270000Y-5745000D02*
X23170000Y-5845000D01*
X23220000Y-5845000D02*
X23270000Y-5795000D01*
X23220000Y-5745000D01*
X23170000Y-5795000D01*
X23220000Y-5845000D01*
D20*
X24657500Y-6930310D02*
X24657500Y-7049690D01*
X24597810Y-6990000D02*
X24717190Y-6990000D01*
X24717190Y-6990000D02*
G75*
G03*
X24717190Y-6990000I-59690J0D01*
G01*
D10*
X19420777Y-13766484D02*
X19420777Y-13566484D01*
X19420777Y-13566484D02*
X19468396Y-13566484D01*
X19468396Y-13566484D02*
X19496967Y-13576008D01*
X19496967Y-13576008D02*
X19516015Y-13595055D01*
X19516015Y-13595055D02*
X19525539Y-13614103D01*
X19525539Y-13614103D02*
X19535063Y-13652198D01*
X19535063Y-13652198D02*
X19535063Y-13680769D01*
X19535063Y-13680769D02*
X19525539Y-13718865D01*
X19525539Y-13718865D02*
X19516015Y-13737912D01*
X19516015Y-13737912D02*
X19496967Y-13756960D01*
X19496967Y-13756960D02*
X19468396Y-13766484D01*
X19468396Y-13766484D02*
X19420777Y-13766484D01*
X19620777Y-13766484D02*
X19620777Y-13633150D01*
X19620777Y-13671246D02*
X19630301Y-13652198D01*
X19630301Y-13652198D02*
X19639824Y-13642674D01*
X19639824Y-13642674D02*
X19658872Y-13633150D01*
X19658872Y-13633150D02*
X19677920Y-13633150D01*
X19744586Y-13766484D02*
X19744586Y-13633150D01*
X19744586Y-13566484D02*
X19735063Y-13576008D01*
X19735063Y-13576008D02*
X19744586Y-13585531D01*
X19744586Y-13585531D02*
X19754110Y-13576008D01*
X19754110Y-13576008D02*
X19744586Y-13566484D01*
X19744586Y-13566484D02*
X19744586Y-13585531D01*
X19868396Y-13766484D02*
X19849348Y-13756960D01*
X19849348Y-13756960D02*
X19839824Y-13737912D01*
X19839824Y-13737912D02*
X19839824Y-13566484D01*
X19973158Y-13766484D02*
X19954110Y-13756960D01*
X19954110Y-13756960D02*
X19944586Y-13737912D01*
X19944586Y-13737912D02*
X19944586Y-13566484D01*
X20201729Y-13766484D02*
X20201729Y-13566484D01*
X20201729Y-13566484D02*
X20268396Y-13709341D01*
X20268396Y-13709341D02*
X20335063Y-13566484D01*
X20335063Y-13566484D02*
X20335063Y-13766484D01*
X20516015Y-13766484D02*
X20516015Y-13661722D01*
X20516015Y-13661722D02*
X20506491Y-13642674D01*
X20506491Y-13642674D02*
X20487444Y-13633150D01*
X20487444Y-13633150D02*
X20449348Y-13633150D01*
X20449348Y-13633150D02*
X20430301Y-13642674D01*
X20516015Y-13756960D02*
X20496967Y-13766484D01*
X20496967Y-13766484D02*
X20449348Y-13766484D01*
X20449348Y-13766484D02*
X20430301Y-13756960D01*
X20430301Y-13756960D02*
X20420777Y-13737912D01*
X20420777Y-13737912D02*
X20420777Y-13718865D01*
X20420777Y-13718865D02*
X20430301Y-13699817D01*
X20430301Y-13699817D02*
X20449348Y-13690293D01*
X20449348Y-13690293D02*
X20496967Y-13690293D01*
X20496967Y-13690293D02*
X20516015Y-13680769D01*
X20611253Y-13633150D02*
X20611253Y-13833150D01*
X20611253Y-13642674D02*
X20630301Y-13633150D01*
X20630301Y-13633150D02*
X20668396Y-13633150D01*
X20668396Y-13633150D02*
X20687444Y-13642674D01*
X20687444Y-13642674D02*
X20696967Y-13652198D01*
X20696967Y-13652198D02*
X20706491Y-13671246D01*
X20706491Y-13671246D02*
X20706491Y-13728388D01*
X20706491Y-13728388D02*
X20696967Y-13747436D01*
X20696967Y-13747436D02*
X20687444Y-13756960D01*
X20687444Y-13756960D02*
X20668396Y-13766484D01*
X20668396Y-13766484D02*
X20630301Y-13766484D01*
X20630301Y-13766484D02*
X20611253Y-13756960D01*
X20792205Y-13747436D02*
X20801729Y-13756960D01*
X20801729Y-13756960D02*
X20792205Y-13766484D01*
X20792205Y-13766484D02*
X20782682Y-13756960D01*
X20782682Y-13756960D02*
X20792205Y-13747436D01*
X20792205Y-13747436D02*
X20792205Y-13766484D01*
X20792205Y-13642674D02*
X20801729Y-13652198D01*
X20801729Y-13652198D02*
X20792205Y-13661722D01*
X20792205Y-13661722D02*
X20782682Y-13652198D01*
X20782682Y-13652198D02*
X20792205Y-13642674D01*
X20792205Y-13642674D02*
X20792205Y-13661722D01*
D12*
X19140000Y-14085000D02*
X19160000Y-14105000D01*
X19160000Y-14085000D02*
X19140000Y-14105000D01*
D10*
X19458872Y-13986484D02*
X19477920Y-13986484D01*
X19477920Y-13986484D02*
X19496967Y-13996008D01*
X19496967Y-13996008D02*
X19506491Y-14005531D01*
X19506491Y-14005531D02*
X19516015Y-14024579D01*
X19516015Y-14024579D02*
X19525539Y-14062674D01*
X19525539Y-14062674D02*
X19525539Y-14110293D01*
X19525539Y-14110293D02*
X19516015Y-14148388D01*
X19516015Y-14148388D02*
X19506491Y-14167436D01*
X19506491Y-14167436D02*
X19496967Y-14176960D01*
X19496967Y-14176960D02*
X19477920Y-14186484D01*
X19477920Y-14186484D02*
X19458872Y-14186484D01*
X19458872Y-14186484D02*
X19439824Y-14176960D01*
X19439824Y-14176960D02*
X19430301Y-14167436D01*
X19430301Y-14167436D02*
X19420777Y-14148388D01*
X19420777Y-14148388D02*
X19411253Y-14110293D01*
X19411253Y-14110293D02*
X19411253Y-14062674D01*
X19411253Y-14062674D02*
X19420777Y-14024579D01*
X19420777Y-14024579D02*
X19430301Y-14005531D01*
X19430301Y-14005531D02*
X19439824Y-13996008D01*
X19439824Y-13996008D02*
X19458872Y-13986484D01*
X19611253Y-14167436D02*
X19620777Y-14176960D01*
X19620777Y-14176960D02*
X19611253Y-14186484D01*
X19611253Y-14186484D02*
X19601729Y-14176960D01*
X19601729Y-14176960D02*
X19611253Y-14167436D01*
X19611253Y-14167436D02*
X19611253Y-14186484D01*
X19696967Y-14005531D02*
X19706491Y-13996008D01*
X19706491Y-13996008D02*
X19725539Y-13986484D01*
X19725539Y-13986484D02*
X19773158Y-13986484D01*
X19773158Y-13986484D02*
X19792205Y-13996008D01*
X19792205Y-13996008D02*
X19801729Y-14005531D01*
X19801729Y-14005531D02*
X19811253Y-14024579D01*
X19811253Y-14024579D02*
X19811253Y-14043627D01*
X19811253Y-14043627D02*
X19801729Y-14072198D01*
X19801729Y-14072198D02*
X19687444Y-14186484D01*
X19687444Y-14186484D02*
X19811253Y-14186484D01*
X19935063Y-13986484D02*
X19954110Y-13986484D01*
X19954110Y-13986484D02*
X19973158Y-13996008D01*
X19973158Y-13996008D02*
X19982682Y-14005531D01*
X19982682Y-14005531D02*
X19992205Y-14024579D01*
X19992205Y-14024579D02*
X20001729Y-14062674D01*
X20001729Y-14062674D02*
X20001729Y-14110293D01*
X20001729Y-14110293D02*
X19992205Y-14148388D01*
X19992205Y-14148388D02*
X19982682Y-14167436D01*
X19982682Y-14167436D02*
X19973158Y-14176960D01*
X19973158Y-14176960D02*
X19954110Y-14186484D01*
X19954110Y-14186484D02*
X19935063Y-14186484D01*
X19935063Y-14186484D02*
X19916015Y-14176960D01*
X19916015Y-14176960D02*
X19906491Y-14167436D01*
X19906491Y-14167436D02*
X19896967Y-14148388D01*
X19896967Y-14148388D02*
X19887444Y-14110293D01*
X19887444Y-14110293D02*
X19887444Y-14062674D01*
X19887444Y-14062674D02*
X19896967Y-14024579D01*
X19896967Y-14024579D02*
X19906491Y-14005531D01*
X19906491Y-14005531D02*
X19916015Y-13996008D01*
X19916015Y-13996008D02*
X19935063Y-13986484D01*
X20125539Y-13986484D02*
X20144586Y-13986484D01*
X20144586Y-13986484D02*
X20163634Y-13996008D01*
X20163634Y-13996008D02*
X20173158Y-14005531D01*
X20173158Y-14005531D02*
X20182682Y-14024579D01*
X20182682Y-14024579D02*
X20192205Y-14062674D01*
X20192205Y-14062674D02*
X20192205Y-14110293D01*
X20192205Y-14110293D02*
X20182682Y-14148388D01*
X20182682Y-14148388D02*
X20173158Y-14167436D01*
X20173158Y-14167436D02*
X20163634Y-14176960D01*
X20163634Y-14176960D02*
X20144586Y-14186484D01*
X20144586Y-14186484D02*
X20125539Y-14186484D01*
X20125539Y-14186484D02*
X20106491Y-14176960D01*
X20106491Y-14176960D02*
X20096967Y-14167436D01*
X20096967Y-14167436D02*
X20087444Y-14148388D01*
X20087444Y-14148388D02*
X20077920Y-14110293D01*
X20077920Y-14110293D02*
X20077920Y-14062674D01*
X20077920Y-14062674D02*
X20087444Y-14024579D01*
X20087444Y-14024579D02*
X20096967Y-14005531D01*
X20096967Y-14005531D02*
X20106491Y-13996008D01*
X20106491Y-13996008D02*
X20125539Y-13986484D01*
X20277920Y-14186484D02*
X20277920Y-14053150D01*
X20277920Y-14072198D02*
X20287444Y-14062674D01*
X20287444Y-14062674D02*
X20306491Y-14053150D01*
X20306491Y-14053150D02*
X20335063Y-14053150D01*
X20335063Y-14053150D02*
X20354110Y-14062674D01*
X20354110Y-14062674D02*
X20363634Y-14081722D01*
X20363634Y-14081722D02*
X20363634Y-14186484D01*
X20363634Y-14081722D02*
X20373158Y-14062674D01*
X20373158Y-14062674D02*
X20392205Y-14053150D01*
X20392205Y-14053150D02*
X20420777Y-14053150D01*
X20420777Y-14053150D02*
X20439825Y-14062674D01*
X20439825Y-14062674D02*
X20449348Y-14081722D01*
X20449348Y-14081722D02*
X20449348Y-14186484D01*
X20544586Y-14186484D02*
X20544586Y-14053150D01*
X20544586Y-14072198D02*
X20554110Y-14062674D01*
X20554110Y-14062674D02*
X20573158Y-14053150D01*
X20573158Y-14053150D02*
X20601729Y-14053150D01*
X20601729Y-14053150D02*
X20620777Y-14062674D01*
X20620777Y-14062674D02*
X20630301Y-14081722D01*
X20630301Y-14081722D02*
X20630301Y-14186484D01*
X20630301Y-14081722D02*
X20639825Y-14062674D01*
X20639825Y-14062674D02*
X20658872Y-14053150D01*
X20658872Y-14053150D02*
X20687444Y-14053150D01*
X20687444Y-14053150D02*
X20706491Y-14062674D01*
X20706491Y-14062674D02*
X20716015Y-14081722D01*
X20716015Y-14081722D02*
X20716015Y-14186484D01*
X21106491Y-13976960D02*
X20935063Y-14234103D01*
X21363634Y-13986484D02*
X21382682Y-13986484D01*
X21382682Y-13986484D02*
X21401729Y-13996008D01*
X21401729Y-13996008D02*
X21411253Y-14005531D01*
X21411253Y-14005531D02*
X21420777Y-14024579D01*
X21420777Y-14024579D02*
X21430301Y-14062674D01*
X21430301Y-14062674D02*
X21430301Y-14110293D01*
X21430301Y-14110293D02*
X21420777Y-14148388D01*
X21420777Y-14148388D02*
X21411253Y-14167436D01*
X21411253Y-14167436D02*
X21401729Y-14176960D01*
X21401729Y-14176960D02*
X21382682Y-14186484D01*
X21382682Y-14186484D02*
X21363634Y-14186484D01*
X21363634Y-14186484D02*
X21344587Y-14176960D01*
X21344587Y-14176960D02*
X21335063Y-14167436D01*
X21335063Y-14167436D02*
X21325539Y-14148388D01*
X21325539Y-14148388D02*
X21316015Y-14110293D01*
X21316015Y-14110293D02*
X21316015Y-14062674D01*
X21316015Y-14062674D02*
X21325539Y-14024579D01*
X21325539Y-14024579D02*
X21335063Y-14005531D01*
X21335063Y-14005531D02*
X21344587Y-13996008D01*
X21344587Y-13996008D02*
X21363634Y-13986484D01*
X21516015Y-14167436D02*
X21525539Y-14176960D01*
X21525539Y-14176960D02*
X21516015Y-14186484D01*
X21516015Y-14186484D02*
X21506491Y-14176960D01*
X21506491Y-14176960D02*
X21516015Y-14167436D01*
X21516015Y-14167436D02*
X21516015Y-14186484D01*
X21649348Y-13986484D02*
X21668396Y-13986484D01*
X21668396Y-13986484D02*
X21687444Y-13996008D01*
X21687444Y-13996008D02*
X21696968Y-14005531D01*
X21696968Y-14005531D02*
X21706491Y-14024579D01*
X21706491Y-14024579D02*
X21716015Y-14062674D01*
X21716015Y-14062674D02*
X21716015Y-14110293D01*
X21716015Y-14110293D02*
X21706491Y-14148388D01*
X21706491Y-14148388D02*
X21696968Y-14167436D01*
X21696968Y-14167436D02*
X21687444Y-14176960D01*
X21687444Y-14176960D02*
X21668396Y-14186484D01*
X21668396Y-14186484D02*
X21649348Y-14186484D01*
X21649348Y-14186484D02*
X21630301Y-14176960D01*
X21630301Y-14176960D02*
X21620777Y-14167436D01*
X21620777Y-14167436D02*
X21611253Y-14148388D01*
X21611253Y-14148388D02*
X21601729Y-14110293D01*
X21601729Y-14110293D02*
X21601729Y-14062674D01*
X21601729Y-14062674D02*
X21611253Y-14024579D01*
X21611253Y-14024579D02*
X21620777Y-14005531D01*
X21620777Y-14005531D02*
X21630301Y-13996008D01*
X21630301Y-13996008D02*
X21649348Y-13986484D01*
X21839825Y-13986484D02*
X21858872Y-13986484D01*
X21858872Y-13986484D02*
X21877920Y-13996008D01*
X21877920Y-13996008D02*
X21887444Y-14005531D01*
X21887444Y-14005531D02*
X21896968Y-14024579D01*
X21896968Y-14024579D02*
X21906491Y-14062674D01*
X21906491Y-14062674D02*
X21906491Y-14110293D01*
X21906491Y-14110293D02*
X21896968Y-14148388D01*
X21896968Y-14148388D02*
X21887444Y-14167436D01*
X21887444Y-14167436D02*
X21877920Y-14176960D01*
X21877920Y-14176960D02*
X21858872Y-14186484D01*
X21858872Y-14186484D02*
X21839825Y-14186484D01*
X21839825Y-14186484D02*
X21820777Y-14176960D01*
X21820777Y-14176960D02*
X21811253Y-14167436D01*
X21811253Y-14167436D02*
X21801729Y-14148388D01*
X21801729Y-14148388D02*
X21792206Y-14110293D01*
X21792206Y-14110293D02*
X21792206Y-14062674D01*
X21792206Y-14062674D02*
X21801729Y-14024579D01*
X21801729Y-14024579D02*
X21811253Y-14005531D01*
X21811253Y-14005531D02*
X21820777Y-13996008D01*
X21820777Y-13996008D02*
X21839825Y-13986484D01*
X21973158Y-13986484D02*
X22106491Y-13986484D01*
X22106491Y-13986484D02*
X22020777Y-14186484D01*
X22192206Y-14186484D02*
X22230301Y-14186484D01*
X22230301Y-14186484D02*
X22249349Y-14176960D01*
X22249349Y-14176960D02*
X22258872Y-14167436D01*
X22258872Y-14167436D02*
X22277920Y-14138865D01*
X22277920Y-14138865D02*
X22287444Y-14100769D01*
X22287444Y-14100769D02*
X22287444Y-14024579D01*
X22287444Y-14024579D02*
X22277920Y-14005531D01*
X22277920Y-14005531D02*
X22268396Y-13996008D01*
X22268396Y-13996008D02*
X22249349Y-13986484D01*
X22249349Y-13986484D02*
X22211253Y-13986484D01*
X22211253Y-13986484D02*
X22192206Y-13996008D01*
X22192206Y-13996008D02*
X22182682Y-14005531D01*
X22182682Y-14005531D02*
X22173158Y-14024579D01*
X22173158Y-14024579D02*
X22173158Y-14072198D01*
X22173158Y-14072198D02*
X22182682Y-14091246D01*
X22182682Y-14091246D02*
X22192206Y-14100769D01*
X22192206Y-14100769D02*
X22211253Y-14110293D01*
X22211253Y-14110293D02*
X22249349Y-14110293D01*
X22249349Y-14110293D02*
X22268396Y-14100769D01*
X22268396Y-14100769D02*
X22277920Y-14091246D01*
X22277920Y-14091246D02*
X22287444Y-14072198D01*
X22363634Y-13986484D02*
X22363634Y-14024579D01*
X22439825Y-13986484D02*
X22439825Y-14024579D01*
X22735063Y-14262674D02*
X22725539Y-14253150D01*
X22725539Y-14253150D02*
X22706491Y-14224579D01*
X22706491Y-14224579D02*
X22696968Y-14205531D01*
X22696968Y-14205531D02*
X22687444Y-14176960D01*
X22687444Y-14176960D02*
X22677920Y-14129341D01*
X22677920Y-14129341D02*
X22677920Y-14091246D01*
X22677920Y-14091246D02*
X22687444Y-14043627D01*
X22687444Y-14043627D02*
X22696968Y-14015055D01*
X22696968Y-14015055D02*
X22706491Y-13996008D01*
X22706491Y-13996008D02*
X22725539Y-13967436D01*
X22725539Y-13967436D02*
X22735063Y-13957912D01*
X22916015Y-14186484D02*
X22801729Y-14186484D01*
X22858872Y-14186484D02*
X22858872Y-13986484D01*
X22858872Y-13986484D02*
X22839825Y-14015055D01*
X22839825Y-14015055D02*
X22820777Y-14034103D01*
X22820777Y-14034103D02*
X22801729Y-14043627D01*
X22992206Y-14005531D02*
X23001729Y-13996008D01*
X23001729Y-13996008D02*
X23020777Y-13986484D01*
X23020777Y-13986484D02*
X23068396Y-13986484D01*
X23068396Y-13986484D02*
X23087444Y-13996008D01*
X23087444Y-13996008D02*
X23096968Y-14005531D01*
X23096968Y-14005531D02*
X23106491Y-14024579D01*
X23106491Y-14024579D02*
X23106491Y-14043627D01*
X23106491Y-14043627D02*
X23096968Y-14072198D01*
X23096968Y-14072198D02*
X22982682Y-14186484D01*
X22982682Y-14186484D02*
X23106491Y-14186484D01*
X23344587Y-14186484D02*
X23344587Y-13986484D01*
X23430301Y-14186484D02*
X23430301Y-14081722D01*
X23430301Y-14081722D02*
X23420777Y-14062674D01*
X23420777Y-14062674D02*
X23401730Y-14053150D01*
X23401730Y-14053150D02*
X23373158Y-14053150D01*
X23373158Y-14053150D02*
X23354110Y-14062674D01*
X23354110Y-14062674D02*
X23344587Y-14072198D01*
X23554110Y-14186484D02*
X23535063Y-14176960D01*
X23535063Y-14176960D02*
X23525539Y-14167436D01*
X23525539Y-14167436D02*
X23516015Y-14148388D01*
X23516015Y-14148388D02*
X23516015Y-14091246D01*
X23516015Y-14091246D02*
X23525539Y-14072198D01*
X23525539Y-14072198D02*
X23535063Y-14062674D01*
X23535063Y-14062674D02*
X23554110Y-14053150D01*
X23554110Y-14053150D02*
X23582682Y-14053150D01*
X23582682Y-14053150D02*
X23601730Y-14062674D01*
X23601730Y-14062674D02*
X23611253Y-14072198D01*
X23611253Y-14072198D02*
X23620777Y-14091246D01*
X23620777Y-14091246D02*
X23620777Y-14148388D01*
X23620777Y-14148388D02*
X23611253Y-14167436D01*
X23611253Y-14167436D02*
X23601730Y-14176960D01*
X23601730Y-14176960D02*
X23582682Y-14186484D01*
X23582682Y-14186484D02*
X23554110Y-14186484D01*
X23735063Y-14186484D02*
X23716015Y-14176960D01*
X23716015Y-14176960D02*
X23706491Y-14157912D01*
X23706491Y-14157912D02*
X23706491Y-13986484D01*
X23887444Y-14176960D02*
X23868396Y-14186484D01*
X23868396Y-14186484D02*
X23830301Y-14186484D01*
X23830301Y-14186484D02*
X23811253Y-14176960D01*
X23811253Y-14176960D02*
X23801730Y-14157912D01*
X23801730Y-14157912D02*
X23801730Y-14081722D01*
X23801730Y-14081722D02*
X23811253Y-14062674D01*
X23811253Y-14062674D02*
X23830301Y-14053150D01*
X23830301Y-14053150D02*
X23868396Y-14053150D01*
X23868396Y-14053150D02*
X23887444Y-14062674D01*
X23887444Y-14062674D02*
X23896968Y-14081722D01*
X23896968Y-14081722D02*
X23896968Y-14100769D01*
X23896968Y-14100769D02*
X23801730Y-14119817D01*
X23973158Y-14176960D02*
X23992206Y-14186484D01*
X23992206Y-14186484D02*
X24030301Y-14186484D01*
X24030301Y-14186484D02*
X24049349Y-14176960D01*
X24049349Y-14176960D02*
X24058872Y-14157912D01*
X24058872Y-14157912D02*
X24058872Y-14148388D01*
X24058872Y-14148388D02*
X24049349Y-14129341D01*
X24049349Y-14129341D02*
X24030301Y-14119817D01*
X24030301Y-14119817D02*
X24001730Y-14119817D01*
X24001730Y-14119817D02*
X23982682Y-14110293D01*
X23982682Y-14110293D02*
X23973158Y-14091246D01*
X23973158Y-14091246D02*
X23973158Y-14081722D01*
X23973158Y-14081722D02*
X23982682Y-14062674D01*
X23982682Y-14062674D02*
X24001730Y-14053150D01*
X24001730Y-14053150D02*
X24030301Y-14053150D01*
X24030301Y-14053150D02*
X24049349Y-14062674D01*
X24125539Y-14262674D02*
X24135063Y-14253150D01*
X24135063Y-14253150D02*
X24154111Y-14224579D01*
X24154111Y-14224579D02*
X24163634Y-14205531D01*
X24163634Y-14205531D02*
X24173158Y-14176960D01*
X24173158Y-14176960D02*
X24182682Y-14129341D01*
X24182682Y-14129341D02*
X24182682Y-14091246D01*
X24182682Y-14091246D02*
X24173158Y-14043627D01*
X24173158Y-14043627D02*
X24163634Y-14015055D01*
X24163634Y-14015055D02*
X24154111Y-13996008D01*
X24154111Y-13996008D02*
X24135063Y-13967436D01*
X24135063Y-13967436D02*
X24125539Y-13957912D01*
D13*
X19160000Y-14359000D02*
G75*
G03*
X19160000Y-14359000I-15000J0D01*
G01*
D10*
X19458872Y-14250484D02*
X19477920Y-14250484D01*
X19477920Y-14250484D02*
X19496967Y-14260008D01*
X19496967Y-14260008D02*
X19506491Y-14269531D01*
X19506491Y-14269531D02*
X19516015Y-14288579D01*
X19516015Y-14288579D02*
X19525539Y-14326674D01*
X19525539Y-14326674D02*
X19525539Y-14374293D01*
X19525539Y-14374293D02*
X19516015Y-14412388D01*
X19516015Y-14412388D02*
X19506491Y-14431436D01*
X19506491Y-14431436D02*
X19496967Y-14440960D01*
X19496967Y-14440960D02*
X19477920Y-14450484D01*
X19477920Y-14450484D02*
X19458872Y-14450484D01*
X19458872Y-14450484D02*
X19439824Y-14440960D01*
X19439824Y-14440960D02*
X19430301Y-14431436D01*
X19430301Y-14431436D02*
X19420777Y-14412388D01*
X19420777Y-14412388D02*
X19411253Y-14374293D01*
X19411253Y-14374293D02*
X19411253Y-14326674D01*
X19411253Y-14326674D02*
X19420777Y-14288579D01*
X19420777Y-14288579D02*
X19430301Y-14269531D01*
X19430301Y-14269531D02*
X19439824Y-14260008D01*
X19439824Y-14260008D02*
X19458872Y-14250484D01*
X19611253Y-14431436D02*
X19620777Y-14440960D01*
X19620777Y-14440960D02*
X19611253Y-14450484D01*
X19611253Y-14450484D02*
X19601729Y-14440960D01*
X19601729Y-14440960D02*
X19611253Y-14431436D01*
X19611253Y-14431436D02*
X19611253Y-14450484D01*
X19687444Y-14250484D02*
X19811253Y-14250484D01*
X19811253Y-14250484D02*
X19744586Y-14326674D01*
X19744586Y-14326674D02*
X19773158Y-14326674D01*
X19773158Y-14326674D02*
X19792205Y-14336198D01*
X19792205Y-14336198D02*
X19801729Y-14345722D01*
X19801729Y-14345722D02*
X19811253Y-14364769D01*
X19811253Y-14364769D02*
X19811253Y-14412388D01*
X19811253Y-14412388D02*
X19801729Y-14431436D01*
X19801729Y-14431436D02*
X19792205Y-14440960D01*
X19792205Y-14440960D02*
X19773158Y-14450484D01*
X19773158Y-14450484D02*
X19716015Y-14450484D01*
X19716015Y-14450484D02*
X19696967Y-14440960D01*
X19696967Y-14440960D02*
X19687444Y-14431436D01*
X19935063Y-14250484D02*
X19954110Y-14250484D01*
X19954110Y-14250484D02*
X19973158Y-14260008D01*
X19973158Y-14260008D02*
X19982682Y-14269531D01*
X19982682Y-14269531D02*
X19992205Y-14288579D01*
X19992205Y-14288579D02*
X20001729Y-14326674D01*
X20001729Y-14326674D02*
X20001729Y-14374293D01*
X20001729Y-14374293D02*
X19992205Y-14412388D01*
X19992205Y-14412388D02*
X19982682Y-14431436D01*
X19982682Y-14431436D02*
X19973158Y-14440960D01*
X19973158Y-14440960D02*
X19954110Y-14450484D01*
X19954110Y-14450484D02*
X19935063Y-14450484D01*
X19935063Y-14450484D02*
X19916015Y-14440960D01*
X19916015Y-14440960D02*
X19906491Y-14431436D01*
X19906491Y-14431436D02*
X19896967Y-14412388D01*
X19896967Y-14412388D02*
X19887444Y-14374293D01*
X19887444Y-14374293D02*
X19887444Y-14326674D01*
X19887444Y-14326674D02*
X19896967Y-14288579D01*
X19896967Y-14288579D02*
X19906491Y-14269531D01*
X19906491Y-14269531D02*
X19916015Y-14260008D01*
X19916015Y-14260008D02*
X19935063Y-14250484D01*
X20125539Y-14250484D02*
X20144586Y-14250484D01*
X20144586Y-14250484D02*
X20163634Y-14260008D01*
X20163634Y-14260008D02*
X20173158Y-14269531D01*
X20173158Y-14269531D02*
X20182682Y-14288579D01*
X20182682Y-14288579D02*
X20192205Y-14326674D01*
X20192205Y-14326674D02*
X20192205Y-14374293D01*
X20192205Y-14374293D02*
X20182682Y-14412388D01*
X20182682Y-14412388D02*
X20173158Y-14431436D01*
X20173158Y-14431436D02*
X20163634Y-14440960D01*
X20163634Y-14440960D02*
X20144586Y-14450484D01*
X20144586Y-14450484D02*
X20125539Y-14450484D01*
X20125539Y-14450484D02*
X20106491Y-14440960D01*
X20106491Y-14440960D02*
X20096967Y-14431436D01*
X20096967Y-14431436D02*
X20087444Y-14412388D01*
X20087444Y-14412388D02*
X20077920Y-14374293D01*
X20077920Y-14374293D02*
X20077920Y-14326674D01*
X20077920Y-14326674D02*
X20087444Y-14288579D01*
X20087444Y-14288579D02*
X20096967Y-14269531D01*
X20096967Y-14269531D02*
X20106491Y-14260008D01*
X20106491Y-14260008D02*
X20125539Y-14250484D01*
X20277920Y-14450484D02*
X20277920Y-14317150D01*
X20277920Y-14336198D02*
X20287444Y-14326674D01*
X20287444Y-14326674D02*
X20306491Y-14317150D01*
X20306491Y-14317150D02*
X20335063Y-14317150D01*
X20335063Y-14317150D02*
X20354110Y-14326674D01*
X20354110Y-14326674D02*
X20363634Y-14345722D01*
X20363634Y-14345722D02*
X20363634Y-14450484D01*
X20363634Y-14345722D02*
X20373158Y-14326674D01*
X20373158Y-14326674D02*
X20392205Y-14317150D01*
X20392205Y-14317150D02*
X20420777Y-14317150D01*
X20420777Y-14317150D02*
X20439825Y-14326674D01*
X20439825Y-14326674D02*
X20449348Y-14345722D01*
X20449348Y-14345722D02*
X20449348Y-14450484D01*
X20544586Y-14450484D02*
X20544586Y-14317150D01*
X20544586Y-14336198D02*
X20554110Y-14326674D01*
X20554110Y-14326674D02*
X20573158Y-14317150D01*
X20573158Y-14317150D02*
X20601729Y-14317150D01*
X20601729Y-14317150D02*
X20620777Y-14326674D01*
X20620777Y-14326674D02*
X20630301Y-14345722D01*
X20630301Y-14345722D02*
X20630301Y-14450484D01*
X20630301Y-14345722D02*
X20639825Y-14326674D01*
X20639825Y-14326674D02*
X20658872Y-14317150D01*
X20658872Y-14317150D02*
X20687444Y-14317150D01*
X20687444Y-14317150D02*
X20706491Y-14326674D01*
X20706491Y-14326674D02*
X20716015Y-14345722D01*
X20716015Y-14345722D02*
X20716015Y-14450484D01*
X21106491Y-14240960D02*
X20935063Y-14498103D01*
X21363634Y-14250484D02*
X21382682Y-14250484D01*
X21382682Y-14250484D02*
X21401729Y-14260008D01*
X21401729Y-14260008D02*
X21411253Y-14269531D01*
X21411253Y-14269531D02*
X21420777Y-14288579D01*
X21420777Y-14288579D02*
X21430301Y-14326674D01*
X21430301Y-14326674D02*
X21430301Y-14374293D01*
X21430301Y-14374293D02*
X21420777Y-14412388D01*
X21420777Y-14412388D02*
X21411253Y-14431436D01*
X21411253Y-14431436D02*
X21401729Y-14440960D01*
X21401729Y-14440960D02*
X21382682Y-14450484D01*
X21382682Y-14450484D02*
X21363634Y-14450484D01*
X21363634Y-14450484D02*
X21344587Y-14440960D01*
X21344587Y-14440960D02*
X21335063Y-14431436D01*
X21335063Y-14431436D02*
X21325539Y-14412388D01*
X21325539Y-14412388D02*
X21316015Y-14374293D01*
X21316015Y-14374293D02*
X21316015Y-14326674D01*
X21316015Y-14326674D02*
X21325539Y-14288579D01*
X21325539Y-14288579D02*
X21335063Y-14269531D01*
X21335063Y-14269531D02*
X21344587Y-14260008D01*
X21344587Y-14260008D02*
X21363634Y-14250484D01*
X21516015Y-14431436D02*
X21525539Y-14440960D01*
X21525539Y-14440960D02*
X21516015Y-14450484D01*
X21516015Y-14450484D02*
X21506491Y-14440960D01*
X21506491Y-14440960D02*
X21516015Y-14431436D01*
X21516015Y-14431436D02*
X21516015Y-14450484D01*
X21649348Y-14250484D02*
X21668396Y-14250484D01*
X21668396Y-14250484D02*
X21687444Y-14260008D01*
X21687444Y-14260008D02*
X21696968Y-14269531D01*
X21696968Y-14269531D02*
X21706491Y-14288579D01*
X21706491Y-14288579D02*
X21716015Y-14326674D01*
X21716015Y-14326674D02*
X21716015Y-14374293D01*
X21716015Y-14374293D02*
X21706491Y-14412388D01*
X21706491Y-14412388D02*
X21696968Y-14431436D01*
X21696968Y-14431436D02*
X21687444Y-14440960D01*
X21687444Y-14440960D02*
X21668396Y-14450484D01*
X21668396Y-14450484D02*
X21649348Y-14450484D01*
X21649348Y-14450484D02*
X21630301Y-14440960D01*
X21630301Y-14440960D02*
X21620777Y-14431436D01*
X21620777Y-14431436D02*
X21611253Y-14412388D01*
X21611253Y-14412388D02*
X21601729Y-14374293D01*
X21601729Y-14374293D02*
X21601729Y-14326674D01*
X21601729Y-14326674D02*
X21611253Y-14288579D01*
X21611253Y-14288579D02*
X21620777Y-14269531D01*
X21620777Y-14269531D02*
X21630301Y-14260008D01*
X21630301Y-14260008D02*
X21649348Y-14250484D01*
X21906491Y-14450484D02*
X21792206Y-14450484D01*
X21849348Y-14450484D02*
X21849348Y-14250484D01*
X21849348Y-14250484D02*
X21830301Y-14279055D01*
X21830301Y-14279055D02*
X21811253Y-14298103D01*
X21811253Y-14298103D02*
X21792206Y-14307627D01*
X22096968Y-14450484D02*
X21982682Y-14450484D01*
X22039825Y-14450484D02*
X22039825Y-14250484D01*
X22039825Y-14250484D02*
X22020777Y-14279055D01*
X22020777Y-14279055D02*
X22001729Y-14298103D01*
X22001729Y-14298103D02*
X21982682Y-14307627D01*
X22211253Y-14336198D02*
X22192206Y-14326674D01*
X22192206Y-14326674D02*
X22182682Y-14317150D01*
X22182682Y-14317150D02*
X22173158Y-14298103D01*
X22173158Y-14298103D02*
X22173158Y-14288579D01*
X22173158Y-14288579D02*
X22182682Y-14269531D01*
X22182682Y-14269531D02*
X22192206Y-14260008D01*
X22192206Y-14260008D02*
X22211253Y-14250484D01*
X22211253Y-14250484D02*
X22249349Y-14250484D01*
X22249349Y-14250484D02*
X22268396Y-14260008D01*
X22268396Y-14260008D02*
X22277920Y-14269531D01*
X22277920Y-14269531D02*
X22287444Y-14288579D01*
X22287444Y-14288579D02*
X22287444Y-14298103D01*
X22287444Y-14298103D02*
X22277920Y-14317150D01*
X22277920Y-14317150D02*
X22268396Y-14326674D01*
X22268396Y-14326674D02*
X22249349Y-14336198D01*
X22249349Y-14336198D02*
X22211253Y-14336198D01*
X22211253Y-14336198D02*
X22192206Y-14345722D01*
X22192206Y-14345722D02*
X22182682Y-14355246D01*
X22182682Y-14355246D02*
X22173158Y-14374293D01*
X22173158Y-14374293D02*
X22173158Y-14412388D01*
X22173158Y-14412388D02*
X22182682Y-14431436D01*
X22182682Y-14431436D02*
X22192206Y-14440960D01*
X22192206Y-14440960D02*
X22211253Y-14450484D01*
X22211253Y-14450484D02*
X22249349Y-14450484D01*
X22249349Y-14450484D02*
X22268396Y-14440960D01*
X22268396Y-14440960D02*
X22277920Y-14431436D01*
X22277920Y-14431436D02*
X22287444Y-14412388D01*
X22287444Y-14412388D02*
X22287444Y-14374293D01*
X22287444Y-14374293D02*
X22277920Y-14355246D01*
X22277920Y-14355246D02*
X22268396Y-14345722D01*
X22268396Y-14345722D02*
X22249349Y-14336198D01*
X22363634Y-14250484D02*
X22363634Y-14288579D01*
X22439825Y-14250484D02*
X22439825Y-14288579D01*
X22735063Y-14526674D02*
X22725539Y-14517150D01*
X22725539Y-14517150D02*
X22706491Y-14488579D01*
X22706491Y-14488579D02*
X22696968Y-14469531D01*
X22696968Y-14469531D02*
X22687444Y-14440960D01*
X22687444Y-14440960D02*
X22677920Y-14393341D01*
X22677920Y-14393341D02*
X22677920Y-14355246D01*
X22677920Y-14355246D02*
X22687444Y-14307627D01*
X22687444Y-14307627D02*
X22696968Y-14279055D01*
X22696968Y-14279055D02*
X22706491Y-14260008D01*
X22706491Y-14260008D02*
X22725539Y-14231436D01*
X22725539Y-14231436D02*
X22735063Y-14221912D01*
X22916015Y-14450484D02*
X22801729Y-14450484D01*
X22858872Y-14450484D02*
X22858872Y-14250484D01*
X22858872Y-14250484D02*
X22839825Y-14279055D01*
X22839825Y-14279055D02*
X22820777Y-14298103D01*
X22820777Y-14298103D02*
X22801729Y-14307627D01*
X23154110Y-14450484D02*
X23154110Y-14250484D01*
X23239825Y-14450484D02*
X23239825Y-14345722D01*
X23239825Y-14345722D02*
X23230301Y-14326674D01*
X23230301Y-14326674D02*
X23211253Y-14317150D01*
X23211253Y-14317150D02*
X23182682Y-14317150D01*
X23182682Y-14317150D02*
X23163634Y-14326674D01*
X23163634Y-14326674D02*
X23154110Y-14336198D01*
X23363634Y-14450484D02*
X23344587Y-14440960D01*
X23344587Y-14440960D02*
X23335063Y-14431436D01*
X23335063Y-14431436D02*
X23325539Y-14412388D01*
X23325539Y-14412388D02*
X23325539Y-14355246D01*
X23325539Y-14355246D02*
X23335063Y-14336198D01*
X23335063Y-14336198D02*
X23344587Y-14326674D01*
X23344587Y-14326674D02*
X23363634Y-14317150D01*
X23363634Y-14317150D02*
X23392206Y-14317150D01*
X23392206Y-14317150D02*
X23411253Y-14326674D01*
X23411253Y-14326674D02*
X23420777Y-14336198D01*
X23420777Y-14336198D02*
X23430301Y-14355246D01*
X23430301Y-14355246D02*
X23430301Y-14412388D01*
X23430301Y-14412388D02*
X23420777Y-14431436D01*
X23420777Y-14431436D02*
X23411253Y-14440960D01*
X23411253Y-14440960D02*
X23392206Y-14450484D01*
X23392206Y-14450484D02*
X23363634Y-14450484D01*
X23544587Y-14450484D02*
X23525539Y-14440960D01*
X23525539Y-14440960D02*
X23516015Y-14421912D01*
X23516015Y-14421912D02*
X23516015Y-14250484D01*
X23696968Y-14440960D02*
X23677920Y-14450484D01*
X23677920Y-14450484D02*
X23639825Y-14450484D01*
X23639825Y-14450484D02*
X23620777Y-14440960D01*
X23620777Y-14440960D02*
X23611253Y-14421912D01*
X23611253Y-14421912D02*
X23611253Y-14345722D01*
X23611253Y-14345722D02*
X23620777Y-14326674D01*
X23620777Y-14326674D02*
X23639825Y-14317150D01*
X23639825Y-14317150D02*
X23677920Y-14317150D01*
X23677920Y-14317150D02*
X23696968Y-14326674D01*
X23696968Y-14326674D02*
X23706491Y-14345722D01*
X23706491Y-14345722D02*
X23706491Y-14364769D01*
X23706491Y-14364769D02*
X23611253Y-14383817D01*
X23773158Y-14526674D02*
X23782682Y-14517150D01*
X23782682Y-14517150D02*
X23801730Y-14488579D01*
X23801730Y-14488579D02*
X23811253Y-14469531D01*
X23811253Y-14469531D02*
X23820777Y-14440960D01*
X23820777Y-14440960D02*
X23830301Y-14393341D01*
X23830301Y-14393341D02*
X23830301Y-14355246D01*
X23830301Y-14355246D02*
X23820777Y-14307627D01*
X23820777Y-14307627D02*
X23811253Y-14279055D01*
X23811253Y-14279055D02*
X23801730Y-14260008D01*
X23801730Y-14260008D02*
X23782682Y-14231436D01*
X23782682Y-14231436D02*
X23773158Y-14221912D01*
D14*
X19140000Y-14603000D02*
X19140000Y-14643000D01*
X19120000Y-14623000D02*
X19160000Y-14623000D01*
D10*
X19458872Y-14514484D02*
X19477920Y-14514484D01*
X19477920Y-14514484D02*
X19496967Y-14524008D01*
X19496967Y-14524008D02*
X19506491Y-14533531D01*
X19506491Y-14533531D02*
X19516015Y-14552579D01*
X19516015Y-14552579D02*
X19525539Y-14590674D01*
X19525539Y-14590674D02*
X19525539Y-14638293D01*
X19525539Y-14638293D02*
X19516015Y-14676388D01*
X19516015Y-14676388D02*
X19506491Y-14695436D01*
X19506491Y-14695436D02*
X19496967Y-14704960D01*
X19496967Y-14704960D02*
X19477920Y-14714484D01*
X19477920Y-14714484D02*
X19458872Y-14714484D01*
X19458872Y-14714484D02*
X19439824Y-14704960D01*
X19439824Y-14704960D02*
X19430301Y-14695436D01*
X19430301Y-14695436D02*
X19420777Y-14676388D01*
X19420777Y-14676388D02*
X19411253Y-14638293D01*
X19411253Y-14638293D02*
X19411253Y-14590674D01*
X19411253Y-14590674D02*
X19420777Y-14552579D01*
X19420777Y-14552579D02*
X19430301Y-14533531D01*
X19430301Y-14533531D02*
X19439824Y-14524008D01*
X19439824Y-14524008D02*
X19458872Y-14514484D01*
X19611253Y-14695436D02*
X19620777Y-14704960D01*
X19620777Y-14704960D02*
X19611253Y-14714484D01*
X19611253Y-14714484D02*
X19601729Y-14704960D01*
X19601729Y-14704960D02*
X19611253Y-14695436D01*
X19611253Y-14695436D02*
X19611253Y-14714484D01*
X19792205Y-14581150D02*
X19792205Y-14714484D01*
X19744586Y-14504960D02*
X19696967Y-14647817D01*
X19696967Y-14647817D02*
X19820777Y-14647817D01*
X19935063Y-14514484D02*
X19954110Y-14514484D01*
X19954110Y-14514484D02*
X19973158Y-14524008D01*
X19973158Y-14524008D02*
X19982682Y-14533531D01*
X19982682Y-14533531D02*
X19992205Y-14552579D01*
X19992205Y-14552579D02*
X20001729Y-14590674D01*
X20001729Y-14590674D02*
X20001729Y-14638293D01*
X20001729Y-14638293D02*
X19992205Y-14676388D01*
X19992205Y-14676388D02*
X19982682Y-14695436D01*
X19982682Y-14695436D02*
X19973158Y-14704960D01*
X19973158Y-14704960D02*
X19954110Y-14714484D01*
X19954110Y-14714484D02*
X19935063Y-14714484D01*
X19935063Y-14714484D02*
X19916015Y-14704960D01*
X19916015Y-14704960D02*
X19906491Y-14695436D01*
X19906491Y-14695436D02*
X19896967Y-14676388D01*
X19896967Y-14676388D02*
X19887444Y-14638293D01*
X19887444Y-14638293D02*
X19887444Y-14590674D01*
X19887444Y-14590674D02*
X19896967Y-14552579D01*
X19896967Y-14552579D02*
X19906491Y-14533531D01*
X19906491Y-14533531D02*
X19916015Y-14524008D01*
X19916015Y-14524008D02*
X19935063Y-14514484D01*
X20125539Y-14514484D02*
X20144586Y-14514484D01*
X20144586Y-14514484D02*
X20163634Y-14524008D01*
X20163634Y-14524008D02*
X20173158Y-14533531D01*
X20173158Y-14533531D02*
X20182682Y-14552579D01*
X20182682Y-14552579D02*
X20192205Y-14590674D01*
X20192205Y-14590674D02*
X20192205Y-14638293D01*
X20192205Y-14638293D02*
X20182682Y-14676388D01*
X20182682Y-14676388D02*
X20173158Y-14695436D01*
X20173158Y-14695436D02*
X20163634Y-14704960D01*
X20163634Y-14704960D02*
X20144586Y-14714484D01*
X20144586Y-14714484D02*
X20125539Y-14714484D01*
X20125539Y-14714484D02*
X20106491Y-14704960D01*
X20106491Y-14704960D02*
X20096967Y-14695436D01*
X20096967Y-14695436D02*
X20087444Y-14676388D01*
X20087444Y-14676388D02*
X20077920Y-14638293D01*
X20077920Y-14638293D02*
X20077920Y-14590674D01*
X20077920Y-14590674D02*
X20087444Y-14552579D01*
X20087444Y-14552579D02*
X20096967Y-14533531D01*
X20096967Y-14533531D02*
X20106491Y-14524008D01*
X20106491Y-14524008D02*
X20125539Y-14514484D01*
X20277920Y-14714484D02*
X20277920Y-14581150D01*
X20277920Y-14600198D02*
X20287444Y-14590674D01*
X20287444Y-14590674D02*
X20306491Y-14581150D01*
X20306491Y-14581150D02*
X20335063Y-14581150D01*
X20335063Y-14581150D02*
X20354110Y-14590674D01*
X20354110Y-14590674D02*
X20363634Y-14609722D01*
X20363634Y-14609722D02*
X20363634Y-14714484D01*
X20363634Y-14609722D02*
X20373158Y-14590674D01*
X20373158Y-14590674D02*
X20392205Y-14581150D01*
X20392205Y-14581150D02*
X20420777Y-14581150D01*
X20420777Y-14581150D02*
X20439825Y-14590674D01*
X20439825Y-14590674D02*
X20449348Y-14609722D01*
X20449348Y-14609722D02*
X20449348Y-14714484D01*
X20544586Y-14714484D02*
X20544586Y-14581150D01*
X20544586Y-14600198D02*
X20554110Y-14590674D01*
X20554110Y-14590674D02*
X20573158Y-14581150D01*
X20573158Y-14581150D02*
X20601729Y-14581150D01*
X20601729Y-14581150D02*
X20620777Y-14590674D01*
X20620777Y-14590674D02*
X20630301Y-14609722D01*
X20630301Y-14609722D02*
X20630301Y-14714484D01*
X20630301Y-14609722D02*
X20639825Y-14590674D01*
X20639825Y-14590674D02*
X20658872Y-14581150D01*
X20658872Y-14581150D02*
X20687444Y-14581150D01*
X20687444Y-14581150D02*
X20706491Y-14590674D01*
X20706491Y-14590674D02*
X20716015Y-14609722D01*
X20716015Y-14609722D02*
X20716015Y-14714484D01*
X21106491Y-14504960D02*
X20935063Y-14762103D01*
X21363634Y-14514484D02*
X21382682Y-14514484D01*
X21382682Y-14514484D02*
X21401729Y-14524008D01*
X21401729Y-14524008D02*
X21411253Y-14533531D01*
X21411253Y-14533531D02*
X21420777Y-14552579D01*
X21420777Y-14552579D02*
X21430301Y-14590674D01*
X21430301Y-14590674D02*
X21430301Y-14638293D01*
X21430301Y-14638293D02*
X21420777Y-14676388D01*
X21420777Y-14676388D02*
X21411253Y-14695436D01*
X21411253Y-14695436D02*
X21401729Y-14704960D01*
X21401729Y-14704960D02*
X21382682Y-14714484D01*
X21382682Y-14714484D02*
X21363634Y-14714484D01*
X21363634Y-14714484D02*
X21344587Y-14704960D01*
X21344587Y-14704960D02*
X21335063Y-14695436D01*
X21335063Y-14695436D02*
X21325539Y-14676388D01*
X21325539Y-14676388D02*
X21316015Y-14638293D01*
X21316015Y-14638293D02*
X21316015Y-14590674D01*
X21316015Y-14590674D02*
X21325539Y-14552579D01*
X21325539Y-14552579D02*
X21335063Y-14533531D01*
X21335063Y-14533531D02*
X21344587Y-14524008D01*
X21344587Y-14524008D02*
X21363634Y-14514484D01*
X21516015Y-14695436D02*
X21525539Y-14704960D01*
X21525539Y-14704960D02*
X21516015Y-14714484D01*
X21516015Y-14714484D02*
X21506491Y-14704960D01*
X21506491Y-14704960D02*
X21516015Y-14695436D01*
X21516015Y-14695436D02*
X21516015Y-14714484D01*
X21649348Y-14514484D02*
X21668396Y-14514484D01*
X21668396Y-14514484D02*
X21687444Y-14524008D01*
X21687444Y-14524008D02*
X21696968Y-14533531D01*
X21696968Y-14533531D02*
X21706491Y-14552579D01*
X21706491Y-14552579D02*
X21716015Y-14590674D01*
X21716015Y-14590674D02*
X21716015Y-14638293D01*
X21716015Y-14638293D02*
X21706491Y-14676388D01*
X21706491Y-14676388D02*
X21696968Y-14695436D01*
X21696968Y-14695436D02*
X21687444Y-14704960D01*
X21687444Y-14704960D02*
X21668396Y-14714484D01*
X21668396Y-14714484D02*
X21649348Y-14714484D01*
X21649348Y-14714484D02*
X21630301Y-14704960D01*
X21630301Y-14704960D02*
X21620777Y-14695436D01*
X21620777Y-14695436D02*
X21611253Y-14676388D01*
X21611253Y-14676388D02*
X21601729Y-14638293D01*
X21601729Y-14638293D02*
X21601729Y-14590674D01*
X21601729Y-14590674D02*
X21611253Y-14552579D01*
X21611253Y-14552579D02*
X21620777Y-14533531D01*
X21620777Y-14533531D02*
X21630301Y-14524008D01*
X21630301Y-14524008D02*
X21649348Y-14514484D01*
X21906491Y-14714484D02*
X21792206Y-14714484D01*
X21849348Y-14714484D02*
X21849348Y-14514484D01*
X21849348Y-14514484D02*
X21830301Y-14543055D01*
X21830301Y-14543055D02*
X21811253Y-14562103D01*
X21811253Y-14562103D02*
X21792206Y-14571627D01*
X22087444Y-14514484D02*
X21992206Y-14514484D01*
X21992206Y-14514484D02*
X21982682Y-14609722D01*
X21982682Y-14609722D02*
X21992206Y-14600198D01*
X21992206Y-14600198D02*
X22011253Y-14590674D01*
X22011253Y-14590674D02*
X22058872Y-14590674D01*
X22058872Y-14590674D02*
X22077920Y-14600198D01*
X22077920Y-14600198D02*
X22087444Y-14609722D01*
X22087444Y-14609722D02*
X22096968Y-14628769D01*
X22096968Y-14628769D02*
X22096968Y-14676388D01*
X22096968Y-14676388D02*
X22087444Y-14695436D01*
X22087444Y-14695436D02*
X22077920Y-14704960D01*
X22077920Y-14704960D02*
X22058872Y-14714484D01*
X22058872Y-14714484D02*
X22011253Y-14714484D01*
X22011253Y-14714484D02*
X21992206Y-14704960D01*
X21992206Y-14704960D02*
X21982682Y-14695436D01*
X22163634Y-14514484D02*
X22296968Y-14514484D01*
X22296968Y-14514484D02*
X22211253Y-14714484D01*
X22363634Y-14514484D02*
X22363634Y-14552579D01*
X22439825Y-14514484D02*
X22439825Y-14552579D01*
X22735063Y-14790674D02*
X22725539Y-14781150D01*
X22725539Y-14781150D02*
X22706491Y-14752579D01*
X22706491Y-14752579D02*
X22696968Y-14733531D01*
X22696968Y-14733531D02*
X22687444Y-14704960D01*
X22687444Y-14704960D02*
X22677920Y-14657341D01*
X22677920Y-14657341D02*
X22677920Y-14619246D01*
X22677920Y-14619246D02*
X22687444Y-14571627D01*
X22687444Y-14571627D02*
X22696968Y-14543055D01*
X22696968Y-14543055D02*
X22706491Y-14524008D01*
X22706491Y-14524008D02*
X22725539Y-14495436D01*
X22725539Y-14495436D02*
X22735063Y-14485912D01*
X22820777Y-14714484D02*
X22858872Y-14714484D01*
X22858872Y-14714484D02*
X22877920Y-14704960D01*
X22877920Y-14704960D02*
X22887444Y-14695436D01*
X22887444Y-14695436D02*
X22906491Y-14666865D01*
X22906491Y-14666865D02*
X22916015Y-14628769D01*
X22916015Y-14628769D02*
X22916015Y-14552579D01*
X22916015Y-14552579D02*
X22906491Y-14533531D01*
X22906491Y-14533531D02*
X22896968Y-14524008D01*
X22896968Y-14524008D02*
X22877920Y-14514484D01*
X22877920Y-14514484D02*
X22839825Y-14514484D01*
X22839825Y-14514484D02*
X22820777Y-14524008D01*
X22820777Y-14524008D02*
X22811253Y-14533531D01*
X22811253Y-14533531D02*
X22801729Y-14552579D01*
X22801729Y-14552579D02*
X22801729Y-14600198D01*
X22801729Y-14600198D02*
X22811253Y-14619246D01*
X22811253Y-14619246D02*
X22820777Y-14628769D01*
X22820777Y-14628769D02*
X22839825Y-14638293D01*
X22839825Y-14638293D02*
X22877920Y-14638293D01*
X22877920Y-14638293D02*
X22896968Y-14628769D01*
X22896968Y-14628769D02*
X22906491Y-14619246D01*
X22906491Y-14619246D02*
X22916015Y-14600198D01*
X23087444Y-14514484D02*
X23049348Y-14514484D01*
X23049348Y-14514484D02*
X23030301Y-14524008D01*
X23030301Y-14524008D02*
X23020777Y-14533531D01*
X23020777Y-14533531D02*
X23001729Y-14562103D01*
X23001729Y-14562103D02*
X22992206Y-14600198D01*
X22992206Y-14600198D02*
X22992206Y-14676388D01*
X22992206Y-14676388D02*
X23001729Y-14695436D01*
X23001729Y-14695436D02*
X23011253Y-14704960D01*
X23011253Y-14704960D02*
X23030301Y-14714484D01*
X23030301Y-14714484D02*
X23068396Y-14714484D01*
X23068396Y-14714484D02*
X23087444Y-14704960D01*
X23087444Y-14704960D02*
X23096968Y-14695436D01*
X23096968Y-14695436D02*
X23106491Y-14676388D01*
X23106491Y-14676388D02*
X23106491Y-14628769D01*
X23106491Y-14628769D02*
X23096968Y-14609722D01*
X23096968Y-14609722D02*
X23087444Y-14600198D01*
X23087444Y-14600198D02*
X23068396Y-14590674D01*
X23068396Y-14590674D02*
X23030301Y-14590674D01*
X23030301Y-14590674D02*
X23011253Y-14600198D01*
X23011253Y-14600198D02*
X23001729Y-14609722D01*
X23001729Y-14609722D02*
X22992206Y-14628769D01*
X23344587Y-14714484D02*
X23344587Y-14514484D01*
X23430301Y-14714484D02*
X23430301Y-14609722D01*
X23430301Y-14609722D02*
X23420777Y-14590674D01*
X23420777Y-14590674D02*
X23401730Y-14581150D01*
X23401730Y-14581150D02*
X23373158Y-14581150D01*
X23373158Y-14581150D02*
X23354110Y-14590674D01*
X23354110Y-14590674D02*
X23344587Y-14600198D01*
X23554110Y-14714484D02*
X23535063Y-14704960D01*
X23535063Y-14704960D02*
X23525539Y-14695436D01*
X23525539Y-14695436D02*
X23516015Y-14676388D01*
X23516015Y-14676388D02*
X23516015Y-14619246D01*
X23516015Y-14619246D02*
X23525539Y-14600198D01*
X23525539Y-14600198D02*
X23535063Y-14590674D01*
X23535063Y-14590674D02*
X23554110Y-14581150D01*
X23554110Y-14581150D02*
X23582682Y-14581150D01*
X23582682Y-14581150D02*
X23601730Y-14590674D01*
X23601730Y-14590674D02*
X23611253Y-14600198D01*
X23611253Y-14600198D02*
X23620777Y-14619246D01*
X23620777Y-14619246D02*
X23620777Y-14676388D01*
X23620777Y-14676388D02*
X23611253Y-14695436D01*
X23611253Y-14695436D02*
X23601730Y-14704960D01*
X23601730Y-14704960D02*
X23582682Y-14714484D01*
X23582682Y-14714484D02*
X23554110Y-14714484D01*
X23735063Y-14714484D02*
X23716015Y-14704960D01*
X23716015Y-14704960D02*
X23706491Y-14685912D01*
X23706491Y-14685912D02*
X23706491Y-14514484D01*
X23887444Y-14704960D02*
X23868396Y-14714484D01*
X23868396Y-14714484D02*
X23830301Y-14714484D01*
X23830301Y-14714484D02*
X23811253Y-14704960D01*
X23811253Y-14704960D02*
X23801730Y-14685912D01*
X23801730Y-14685912D02*
X23801730Y-14609722D01*
X23801730Y-14609722D02*
X23811253Y-14590674D01*
X23811253Y-14590674D02*
X23830301Y-14581150D01*
X23830301Y-14581150D02*
X23868396Y-14581150D01*
X23868396Y-14581150D02*
X23887444Y-14590674D01*
X23887444Y-14590674D02*
X23896968Y-14609722D01*
X23896968Y-14609722D02*
X23896968Y-14628769D01*
X23896968Y-14628769D02*
X23801730Y-14647817D01*
X23973158Y-14704960D02*
X23992206Y-14714484D01*
X23992206Y-14714484D02*
X24030301Y-14714484D01*
X24030301Y-14714484D02*
X24049349Y-14704960D01*
X24049349Y-14704960D02*
X24058872Y-14685912D01*
X24058872Y-14685912D02*
X24058872Y-14676388D01*
X24058872Y-14676388D02*
X24049349Y-14657341D01*
X24049349Y-14657341D02*
X24030301Y-14647817D01*
X24030301Y-14647817D02*
X24001730Y-14647817D01*
X24001730Y-14647817D02*
X23982682Y-14638293D01*
X23982682Y-14638293D02*
X23973158Y-14619246D01*
X23973158Y-14619246D02*
X23973158Y-14609722D01*
X23973158Y-14609722D02*
X23982682Y-14590674D01*
X23982682Y-14590674D02*
X24001730Y-14581150D01*
X24001730Y-14581150D02*
X24030301Y-14581150D01*
X24030301Y-14581150D02*
X24049349Y-14590674D01*
X24125539Y-14790674D02*
X24135063Y-14781150D01*
X24135063Y-14781150D02*
X24154111Y-14752579D01*
X24154111Y-14752579D02*
X24163634Y-14733531D01*
X24163634Y-14733531D02*
X24173158Y-14704960D01*
X24173158Y-14704960D02*
X24182682Y-14657341D01*
X24182682Y-14657341D02*
X24182682Y-14619246D01*
X24182682Y-14619246D02*
X24173158Y-14571627D01*
X24173158Y-14571627D02*
X24163634Y-14543055D01*
X24163634Y-14543055D02*
X24154111Y-14524008D01*
X24154111Y-14524008D02*
X24135063Y-14495436D01*
X24135063Y-14495436D02*
X24125539Y-14485912D01*
D15*
X19152678Y-14904678D02*
X19152678Y-14869322D01*
X19117322Y-14869322D01*
X19117322Y-14904678D01*
X19152678Y-14904678D01*
D10*
X19458872Y-14778484D02*
X19477920Y-14778484D01*
X19477920Y-14778484D02*
X19496967Y-14788008D01*
X19496967Y-14788008D02*
X19506491Y-14797531D01*
X19506491Y-14797531D02*
X19516015Y-14816579D01*
X19516015Y-14816579D02*
X19525539Y-14854674D01*
X19525539Y-14854674D02*
X19525539Y-14902293D01*
X19525539Y-14902293D02*
X19516015Y-14940388D01*
X19516015Y-14940388D02*
X19506491Y-14959436D01*
X19506491Y-14959436D02*
X19496967Y-14968960D01*
X19496967Y-14968960D02*
X19477920Y-14978484D01*
X19477920Y-14978484D02*
X19458872Y-14978484D01*
X19458872Y-14978484D02*
X19439824Y-14968960D01*
X19439824Y-14968960D02*
X19430301Y-14959436D01*
X19430301Y-14959436D02*
X19420777Y-14940388D01*
X19420777Y-14940388D02*
X19411253Y-14902293D01*
X19411253Y-14902293D02*
X19411253Y-14854674D01*
X19411253Y-14854674D02*
X19420777Y-14816579D01*
X19420777Y-14816579D02*
X19430301Y-14797531D01*
X19430301Y-14797531D02*
X19439824Y-14788008D01*
X19439824Y-14788008D02*
X19458872Y-14778484D01*
X19611253Y-14959436D02*
X19620777Y-14968960D01*
X19620777Y-14968960D02*
X19611253Y-14978484D01*
X19611253Y-14978484D02*
X19601729Y-14968960D01*
X19601729Y-14968960D02*
X19611253Y-14959436D01*
X19611253Y-14959436D02*
X19611253Y-14978484D01*
X19801729Y-14778484D02*
X19706491Y-14778484D01*
X19706491Y-14778484D02*
X19696967Y-14873722D01*
X19696967Y-14873722D02*
X19706491Y-14864198D01*
X19706491Y-14864198D02*
X19725539Y-14854674D01*
X19725539Y-14854674D02*
X19773158Y-14854674D01*
X19773158Y-14854674D02*
X19792205Y-14864198D01*
X19792205Y-14864198D02*
X19801729Y-14873722D01*
X19801729Y-14873722D02*
X19811253Y-14892769D01*
X19811253Y-14892769D02*
X19811253Y-14940388D01*
X19811253Y-14940388D02*
X19801729Y-14959436D01*
X19801729Y-14959436D02*
X19792205Y-14968960D01*
X19792205Y-14968960D02*
X19773158Y-14978484D01*
X19773158Y-14978484D02*
X19725539Y-14978484D01*
X19725539Y-14978484D02*
X19706491Y-14968960D01*
X19706491Y-14968960D02*
X19696967Y-14959436D01*
X19935063Y-14778484D02*
X19954110Y-14778484D01*
X19954110Y-14778484D02*
X19973158Y-14788008D01*
X19973158Y-14788008D02*
X19982682Y-14797531D01*
X19982682Y-14797531D02*
X19992205Y-14816579D01*
X19992205Y-14816579D02*
X20001729Y-14854674D01*
X20001729Y-14854674D02*
X20001729Y-14902293D01*
X20001729Y-14902293D02*
X19992205Y-14940388D01*
X19992205Y-14940388D02*
X19982682Y-14959436D01*
X19982682Y-14959436D02*
X19973158Y-14968960D01*
X19973158Y-14968960D02*
X19954110Y-14978484D01*
X19954110Y-14978484D02*
X19935063Y-14978484D01*
X19935063Y-14978484D02*
X19916015Y-14968960D01*
X19916015Y-14968960D02*
X19906491Y-14959436D01*
X19906491Y-14959436D02*
X19896967Y-14940388D01*
X19896967Y-14940388D02*
X19887444Y-14902293D01*
X19887444Y-14902293D02*
X19887444Y-14854674D01*
X19887444Y-14854674D02*
X19896967Y-14816579D01*
X19896967Y-14816579D02*
X19906491Y-14797531D01*
X19906491Y-14797531D02*
X19916015Y-14788008D01*
X19916015Y-14788008D02*
X19935063Y-14778484D01*
X20125539Y-14778484D02*
X20144586Y-14778484D01*
X20144586Y-14778484D02*
X20163634Y-14788008D01*
X20163634Y-14788008D02*
X20173158Y-14797531D01*
X20173158Y-14797531D02*
X20182682Y-14816579D01*
X20182682Y-14816579D02*
X20192205Y-14854674D01*
X20192205Y-14854674D02*
X20192205Y-14902293D01*
X20192205Y-14902293D02*
X20182682Y-14940388D01*
X20182682Y-14940388D02*
X20173158Y-14959436D01*
X20173158Y-14959436D02*
X20163634Y-14968960D01*
X20163634Y-14968960D02*
X20144586Y-14978484D01*
X20144586Y-14978484D02*
X20125539Y-14978484D01*
X20125539Y-14978484D02*
X20106491Y-14968960D01*
X20106491Y-14968960D02*
X20096967Y-14959436D01*
X20096967Y-14959436D02*
X20087444Y-14940388D01*
X20087444Y-14940388D02*
X20077920Y-14902293D01*
X20077920Y-14902293D02*
X20077920Y-14854674D01*
X20077920Y-14854674D02*
X20087444Y-14816579D01*
X20087444Y-14816579D02*
X20096967Y-14797531D01*
X20096967Y-14797531D02*
X20106491Y-14788008D01*
X20106491Y-14788008D02*
X20125539Y-14778484D01*
X20277920Y-14978484D02*
X20277920Y-14845150D01*
X20277920Y-14864198D02*
X20287444Y-14854674D01*
X20287444Y-14854674D02*
X20306491Y-14845150D01*
X20306491Y-14845150D02*
X20335063Y-14845150D01*
X20335063Y-14845150D02*
X20354110Y-14854674D01*
X20354110Y-14854674D02*
X20363634Y-14873722D01*
X20363634Y-14873722D02*
X20363634Y-14978484D01*
X20363634Y-14873722D02*
X20373158Y-14854674D01*
X20373158Y-14854674D02*
X20392205Y-14845150D01*
X20392205Y-14845150D02*
X20420777Y-14845150D01*
X20420777Y-14845150D02*
X20439825Y-14854674D01*
X20439825Y-14854674D02*
X20449348Y-14873722D01*
X20449348Y-14873722D02*
X20449348Y-14978484D01*
X20544586Y-14978484D02*
X20544586Y-14845150D01*
X20544586Y-14864198D02*
X20554110Y-14854674D01*
X20554110Y-14854674D02*
X20573158Y-14845150D01*
X20573158Y-14845150D02*
X20601729Y-14845150D01*
X20601729Y-14845150D02*
X20620777Y-14854674D01*
X20620777Y-14854674D02*
X20630301Y-14873722D01*
X20630301Y-14873722D02*
X20630301Y-14978484D01*
X20630301Y-14873722D02*
X20639825Y-14854674D01*
X20639825Y-14854674D02*
X20658872Y-14845150D01*
X20658872Y-14845150D02*
X20687444Y-14845150D01*
X20687444Y-14845150D02*
X20706491Y-14854674D01*
X20706491Y-14854674D02*
X20716015Y-14873722D01*
X20716015Y-14873722D02*
X20716015Y-14978484D01*
X21106491Y-14768960D02*
X20935063Y-15026103D01*
X21363634Y-14778484D02*
X21382682Y-14778484D01*
X21382682Y-14778484D02*
X21401729Y-14788008D01*
X21401729Y-14788008D02*
X21411253Y-14797531D01*
X21411253Y-14797531D02*
X21420777Y-14816579D01*
X21420777Y-14816579D02*
X21430301Y-14854674D01*
X21430301Y-14854674D02*
X21430301Y-14902293D01*
X21430301Y-14902293D02*
X21420777Y-14940388D01*
X21420777Y-14940388D02*
X21411253Y-14959436D01*
X21411253Y-14959436D02*
X21401729Y-14968960D01*
X21401729Y-14968960D02*
X21382682Y-14978484D01*
X21382682Y-14978484D02*
X21363634Y-14978484D01*
X21363634Y-14978484D02*
X21344587Y-14968960D01*
X21344587Y-14968960D02*
X21335063Y-14959436D01*
X21335063Y-14959436D02*
X21325539Y-14940388D01*
X21325539Y-14940388D02*
X21316015Y-14902293D01*
X21316015Y-14902293D02*
X21316015Y-14854674D01*
X21316015Y-14854674D02*
X21325539Y-14816579D01*
X21325539Y-14816579D02*
X21335063Y-14797531D01*
X21335063Y-14797531D02*
X21344587Y-14788008D01*
X21344587Y-14788008D02*
X21363634Y-14778484D01*
X21516015Y-14959436D02*
X21525539Y-14968960D01*
X21525539Y-14968960D02*
X21516015Y-14978484D01*
X21516015Y-14978484D02*
X21506491Y-14968960D01*
X21506491Y-14968960D02*
X21516015Y-14959436D01*
X21516015Y-14959436D02*
X21516015Y-14978484D01*
X21649348Y-14778484D02*
X21668396Y-14778484D01*
X21668396Y-14778484D02*
X21687444Y-14788008D01*
X21687444Y-14788008D02*
X21696968Y-14797531D01*
X21696968Y-14797531D02*
X21706491Y-14816579D01*
X21706491Y-14816579D02*
X21716015Y-14854674D01*
X21716015Y-14854674D02*
X21716015Y-14902293D01*
X21716015Y-14902293D02*
X21706491Y-14940388D01*
X21706491Y-14940388D02*
X21696968Y-14959436D01*
X21696968Y-14959436D02*
X21687444Y-14968960D01*
X21687444Y-14968960D02*
X21668396Y-14978484D01*
X21668396Y-14978484D02*
X21649348Y-14978484D01*
X21649348Y-14978484D02*
X21630301Y-14968960D01*
X21630301Y-14968960D02*
X21620777Y-14959436D01*
X21620777Y-14959436D02*
X21611253Y-14940388D01*
X21611253Y-14940388D02*
X21601729Y-14902293D01*
X21601729Y-14902293D02*
X21601729Y-14854674D01*
X21601729Y-14854674D02*
X21611253Y-14816579D01*
X21611253Y-14816579D02*
X21620777Y-14797531D01*
X21620777Y-14797531D02*
X21630301Y-14788008D01*
X21630301Y-14788008D02*
X21649348Y-14778484D01*
X21906491Y-14978484D02*
X21792206Y-14978484D01*
X21849348Y-14978484D02*
X21849348Y-14778484D01*
X21849348Y-14778484D02*
X21830301Y-14807055D01*
X21830301Y-14807055D02*
X21811253Y-14826103D01*
X21811253Y-14826103D02*
X21792206Y-14835627D01*
X22001729Y-14978484D02*
X22039825Y-14978484D01*
X22039825Y-14978484D02*
X22058872Y-14968960D01*
X22058872Y-14968960D02*
X22068396Y-14959436D01*
X22068396Y-14959436D02*
X22087444Y-14930865D01*
X22087444Y-14930865D02*
X22096968Y-14892769D01*
X22096968Y-14892769D02*
X22096968Y-14816579D01*
X22096968Y-14816579D02*
X22087444Y-14797531D01*
X22087444Y-14797531D02*
X22077920Y-14788008D01*
X22077920Y-14788008D02*
X22058872Y-14778484D01*
X22058872Y-14778484D02*
X22020777Y-14778484D01*
X22020777Y-14778484D02*
X22001729Y-14788008D01*
X22001729Y-14788008D02*
X21992206Y-14797531D01*
X21992206Y-14797531D02*
X21982682Y-14816579D01*
X21982682Y-14816579D02*
X21982682Y-14864198D01*
X21982682Y-14864198D02*
X21992206Y-14883246D01*
X21992206Y-14883246D02*
X22001729Y-14892769D01*
X22001729Y-14892769D02*
X22020777Y-14902293D01*
X22020777Y-14902293D02*
X22058872Y-14902293D01*
X22058872Y-14902293D02*
X22077920Y-14892769D01*
X22077920Y-14892769D02*
X22087444Y-14883246D01*
X22087444Y-14883246D02*
X22096968Y-14864198D01*
X22163634Y-14778484D02*
X22296968Y-14778484D01*
X22296968Y-14778484D02*
X22211253Y-14978484D01*
X22363634Y-14778484D02*
X22363634Y-14816579D01*
X22439825Y-14778484D02*
X22439825Y-14816579D01*
X22735063Y-15054674D02*
X22725539Y-15045150D01*
X22725539Y-15045150D02*
X22706491Y-15016579D01*
X22706491Y-15016579D02*
X22696968Y-14997531D01*
X22696968Y-14997531D02*
X22687444Y-14968960D01*
X22687444Y-14968960D02*
X22677920Y-14921341D01*
X22677920Y-14921341D02*
X22677920Y-14883246D01*
X22677920Y-14883246D02*
X22687444Y-14835627D01*
X22687444Y-14835627D02*
X22696968Y-14807055D01*
X22696968Y-14807055D02*
X22706491Y-14788008D01*
X22706491Y-14788008D02*
X22725539Y-14759436D01*
X22725539Y-14759436D02*
X22735063Y-14749912D01*
X22849348Y-14778484D02*
X22868396Y-14778484D01*
X22868396Y-14778484D02*
X22887444Y-14788008D01*
X22887444Y-14788008D02*
X22896968Y-14797531D01*
X22896968Y-14797531D02*
X22906491Y-14816579D01*
X22906491Y-14816579D02*
X22916015Y-14854674D01*
X22916015Y-14854674D02*
X22916015Y-14902293D01*
X22916015Y-14902293D02*
X22906491Y-14940388D01*
X22906491Y-14940388D02*
X22896968Y-14959436D01*
X22896968Y-14959436D02*
X22887444Y-14968960D01*
X22887444Y-14968960D02*
X22868396Y-14978484D01*
X22868396Y-14978484D02*
X22849348Y-14978484D01*
X22849348Y-14978484D02*
X22830301Y-14968960D01*
X22830301Y-14968960D02*
X22820777Y-14959436D01*
X22820777Y-14959436D02*
X22811253Y-14940388D01*
X22811253Y-14940388D02*
X22801729Y-14902293D01*
X22801729Y-14902293D02*
X22801729Y-14854674D01*
X22801729Y-14854674D02*
X22811253Y-14816579D01*
X22811253Y-14816579D02*
X22820777Y-14797531D01*
X22820777Y-14797531D02*
X22830301Y-14788008D01*
X22830301Y-14788008D02*
X22849348Y-14778484D01*
X23154110Y-14978484D02*
X23154110Y-14778484D01*
X23239825Y-14978484D02*
X23239825Y-14873722D01*
X23239825Y-14873722D02*
X23230301Y-14854674D01*
X23230301Y-14854674D02*
X23211253Y-14845150D01*
X23211253Y-14845150D02*
X23182682Y-14845150D01*
X23182682Y-14845150D02*
X23163634Y-14854674D01*
X23163634Y-14854674D02*
X23154110Y-14864198D01*
X23363634Y-14978484D02*
X23344587Y-14968960D01*
X23344587Y-14968960D02*
X23335063Y-14959436D01*
X23335063Y-14959436D02*
X23325539Y-14940388D01*
X23325539Y-14940388D02*
X23325539Y-14883246D01*
X23325539Y-14883246D02*
X23335063Y-14864198D01*
X23335063Y-14864198D02*
X23344587Y-14854674D01*
X23344587Y-14854674D02*
X23363634Y-14845150D01*
X23363634Y-14845150D02*
X23392206Y-14845150D01*
X23392206Y-14845150D02*
X23411253Y-14854674D01*
X23411253Y-14854674D02*
X23420777Y-14864198D01*
X23420777Y-14864198D02*
X23430301Y-14883246D01*
X23430301Y-14883246D02*
X23430301Y-14940388D01*
X23430301Y-14940388D02*
X23420777Y-14959436D01*
X23420777Y-14959436D02*
X23411253Y-14968960D01*
X23411253Y-14968960D02*
X23392206Y-14978484D01*
X23392206Y-14978484D02*
X23363634Y-14978484D01*
X23544587Y-14978484D02*
X23525539Y-14968960D01*
X23525539Y-14968960D02*
X23516015Y-14949912D01*
X23516015Y-14949912D02*
X23516015Y-14778484D01*
X23696968Y-14968960D02*
X23677920Y-14978484D01*
X23677920Y-14978484D02*
X23639825Y-14978484D01*
X23639825Y-14978484D02*
X23620777Y-14968960D01*
X23620777Y-14968960D02*
X23611253Y-14949912D01*
X23611253Y-14949912D02*
X23611253Y-14873722D01*
X23611253Y-14873722D02*
X23620777Y-14854674D01*
X23620777Y-14854674D02*
X23639825Y-14845150D01*
X23639825Y-14845150D02*
X23677920Y-14845150D01*
X23677920Y-14845150D02*
X23696968Y-14854674D01*
X23696968Y-14854674D02*
X23706491Y-14873722D01*
X23706491Y-14873722D02*
X23706491Y-14892769D01*
X23706491Y-14892769D02*
X23611253Y-14911817D01*
X23782682Y-14968960D02*
X23801730Y-14978484D01*
X23801730Y-14978484D02*
X23839825Y-14978484D01*
X23839825Y-14978484D02*
X23858872Y-14968960D01*
X23858872Y-14968960D02*
X23868396Y-14949912D01*
X23868396Y-14949912D02*
X23868396Y-14940388D01*
X23868396Y-14940388D02*
X23858872Y-14921341D01*
X23858872Y-14921341D02*
X23839825Y-14911817D01*
X23839825Y-14911817D02*
X23811253Y-14911817D01*
X23811253Y-14911817D02*
X23792206Y-14902293D01*
X23792206Y-14902293D02*
X23782682Y-14883246D01*
X23782682Y-14883246D02*
X23782682Y-14873722D01*
X23782682Y-14873722D02*
X23792206Y-14854674D01*
X23792206Y-14854674D02*
X23811253Y-14845150D01*
X23811253Y-14845150D02*
X23839825Y-14845150D01*
X23839825Y-14845150D02*
X23858872Y-14854674D01*
X24106492Y-14902293D02*
X24258873Y-14902293D01*
X24182682Y-14978484D02*
X24182682Y-14826103D01*
X24611253Y-14978484D02*
X24496968Y-14978484D01*
X24554111Y-14978484D02*
X24554111Y-14778484D01*
X24554111Y-14778484D02*
X24535063Y-14807055D01*
X24535063Y-14807055D02*
X24516015Y-14826103D01*
X24516015Y-14826103D02*
X24496968Y-14835627D01*
X24782682Y-14778484D02*
X24744587Y-14778484D01*
X24744587Y-14778484D02*
X24725539Y-14788008D01*
X24725539Y-14788008D02*
X24716015Y-14797531D01*
X24716015Y-14797531D02*
X24696968Y-14826103D01*
X24696968Y-14826103D02*
X24687444Y-14864198D01*
X24687444Y-14864198D02*
X24687444Y-14940388D01*
X24687444Y-14940388D02*
X24696968Y-14959436D01*
X24696968Y-14959436D02*
X24706492Y-14968960D01*
X24706492Y-14968960D02*
X24725539Y-14978484D01*
X24725539Y-14978484D02*
X24763634Y-14978484D01*
X24763634Y-14978484D02*
X24782682Y-14968960D01*
X24782682Y-14968960D02*
X24792206Y-14959436D01*
X24792206Y-14959436D02*
X24801730Y-14940388D01*
X24801730Y-14940388D02*
X24801730Y-14892769D01*
X24801730Y-14892769D02*
X24792206Y-14873722D01*
X24792206Y-14873722D02*
X24782682Y-14864198D01*
X24782682Y-14864198D02*
X24763634Y-14854674D01*
X24763634Y-14854674D02*
X24725539Y-14854674D01*
X24725539Y-14854674D02*
X24706492Y-14864198D01*
X24706492Y-14864198D02*
X24696968Y-14873722D01*
X24696968Y-14873722D02*
X24687444Y-14892769D01*
X25030301Y-14968960D02*
X25049349Y-14978484D01*
X25049349Y-14978484D02*
X25087444Y-14978484D01*
X25087444Y-14978484D02*
X25106492Y-14968960D01*
X25106492Y-14968960D02*
X25116015Y-14949912D01*
X25116015Y-14949912D02*
X25116015Y-14940388D01*
X25116015Y-14940388D02*
X25106492Y-14921341D01*
X25106492Y-14921341D02*
X25087444Y-14911817D01*
X25087444Y-14911817D02*
X25058873Y-14911817D01*
X25058873Y-14911817D02*
X25039825Y-14902293D01*
X25039825Y-14902293D02*
X25030301Y-14883246D01*
X25030301Y-14883246D02*
X25030301Y-14873722D01*
X25030301Y-14873722D02*
X25039825Y-14854674D01*
X25039825Y-14854674D02*
X25058873Y-14845150D01*
X25058873Y-14845150D02*
X25087444Y-14845150D01*
X25087444Y-14845150D02*
X25106492Y-14854674D01*
X25230301Y-14978484D02*
X25211254Y-14968960D01*
X25211254Y-14968960D02*
X25201730Y-14949912D01*
X25201730Y-14949912D02*
X25201730Y-14778484D01*
X25335063Y-14978484D02*
X25316015Y-14968960D01*
X25316015Y-14968960D02*
X25306492Y-14959436D01*
X25306492Y-14959436D02*
X25296968Y-14940388D01*
X25296968Y-14940388D02*
X25296968Y-14883246D01*
X25296968Y-14883246D02*
X25306492Y-14864198D01*
X25306492Y-14864198D02*
X25316015Y-14854674D01*
X25316015Y-14854674D02*
X25335063Y-14845150D01*
X25335063Y-14845150D02*
X25363635Y-14845150D01*
X25363635Y-14845150D02*
X25382682Y-14854674D01*
X25382682Y-14854674D02*
X25392206Y-14864198D01*
X25392206Y-14864198D02*
X25401730Y-14883246D01*
X25401730Y-14883246D02*
X25401730Y-14940388D01*
X25401730Y-14940388D02*
X25392206Y-14959436D01*
X25392206Y-14959436D02*
X25382682Y-14968960D01*
X25382682Y-14968960D02*
X25363635Y-14978484D01*
X25363635Y-14978484D02*
X25335063Y-14978484D01*
X25458873Y-14845150D02*
X25535063Y-14845150D01*
X25487444Y-14778484D02*
X25487444Y-14949912D01*
X25487444Y-14949912D02*
X25496968Y-14968960D01*
X25496968Y-14968960D02*
X25516015Y-14978484D01*
X25516015Y-14978484D02*
X25535063Y-14978484D01*
X25592206Y-14968960D02*
X25611254Y-14978484D01*
X25611254Y-14978484D02*
X25649349Y-14978484D01*
X25649349Y-14978484D02*
X25668396Y-14968960D01*
X25668396Y-14968960D02*
X25677920Y-14949912D01*
X25677920Y-14949912D02*
X25677920Y-14940388D01*
X25677920Y-14940388D02*
X25668396Y-14921341D01*
X25668396Y-14921341D02*
X25649349Y-14911817D01*
X25649349Y-14911817D02*
X25620777Y-14911817D01*
X25620777Y-14911817D02*
X25601730Y-14902293D01*
X25601730Y-14902293D02*
X25592206Y-14883246D01*
X25592206Y-14883246D02*
X25592206Y-14873722D01*
X25592206Y-14873722D02*
X25601730Y-14854674D01*
X25601730Y-14854674D02*
X25620777Y-14845150D01*
X25620777Y-14845150D02*
X25649349Y-14845150D01*
X25649349Y-14845150D02*
X25668396Y-14854674D01*
X25744587Y-15054674D02*
X25754111Y-15045150D01*
X25754111Y-15045150D02*
X25773158Y-15016579D01*
X25773158Y-15016579D02*
X25782682Y-14997531D01*
X25782682Y-14997531D02*
X25792206Y-14968960D01*
X25792206Y-14968960D02*
X25801730Y-14921341D01*
X25801730Y-14921341D02*
X25801730Y-14883246D01*
X25801730Y-14883246D02*
X25792206Y-14835627D01*
X25792206Y-14835627D02*
X25782682Y-14807055D01*
X25782682Y-14807055D02*
X25773158Y-14788008D01*
X25773158Y-14788008D02*
X25754111Y-14759436D01*
X25754111Y-14759436D02*
X25744587Y-14749912D01*
D16*
X19130000Y-15181000D02*
X19160000Y-15151000D01*
X19130000Y-15121000D01*
X19100000Y-15151000D01*
X19130000Y-15181000D01*
D10*
X19458872Y-15042484D02*
X19477920Y-15042484D01*
X19477920Y-15042484D02*
X19496967Y-15052008D01*
X19496967Y-15052008D02*
X19506491Y-15061531D01*
X19506491Y-15061531D02*
X19516015Y-15080579D01*
X19516015Y-15080579D02*
X19525539Y-15118674D01*
X19525539Y-15118674D02*
X19525539Y-15166293D01*
X19525539Y-15166293D02*
X19516015Y-15204388D01*
X19516015Y-15204388D02*
X19506491Y-15223436D01*
X19506491Y-15223436D02*
X19496967Y-15232960D01*
X19496967Y-15232960D02*
X19477920Y-15242484D01*
X19477920Y-15242484D02*
X19458872Y-15242484D01*
X19458872Y-15242484D02*
X19439824Y-15232960D01*
X19439824Y-15232960D02*
X19430301Y-15223436D01*
X19430301Y-15223436D02*
X19420777Y-15204388D01*
X19420777Y-15204388D02*
X19411253Y-15166293D01*
X19411253Y-15166293D02*
X19411253Y-15118674D01*
X19411253Y-15118674D02*
X19420777Y-15080579D01*
X19420777Y-15080579D02*
X19430301Y-15061531D01*
X19430301Y-15061531D02*
X19439824Y-15052008D01*
X19439824Y-15052008D02*
X19458872Y-15042484D01*
X19611253Y-15223436D02*
X19620777Y-15232960D01*
X19620777Y-15232960D02*
X19611253Y-15242484D01*
X19611253Y-15242484D02*
X19601729Y-15232960D01*
X19601729Y-15232960D02*
X19611253Y-15223436D01*
X19611253Y-15223436D02*
X19611253Y-15242484D01*
X19792205Y-15042484D02*
X19754110Y-15042484D01*
X19754110Y-15042484D02*
X19735063Y-15052008D01*
X19735063Y-15052008D02*
X19725539Y-15061531D01*
X19725539Y-15061531D02*
X19706491Y-15090103D01*
X19706491Y-15090103D02*
X19696967Y-15128198D01*
X19696967Y-15128198D02*
X19696967Y-15204388D01*
X19696967Y-15204388D02*
X19706491Y-15223436D01*
X19706491Y-15223436D02*
X19716015Y-15232960D01*
X19716015Y-15232960D02*
X19735063Y-15242484D01*
X19735063Y-15242484D02*
X19773158Y-15242484D01*
X19773158Y-15242484D02*
X19792205Y-15232960D01*
X19792205Y-15232960D02*
X19801729Y-15223436D01*
X19801729Y-15223436D02*
X19811253Y-15204388D01*
X19811253Y-15204388D02*
X19811253Y-15156769D01*
X19811253Y-15156769D02*
X19801729Y-15137722D01*
X19801729Y-15137722D02*
X19792205Y-15128198D01*
X19792205Y-15128198D02*
X19773158Y-15118674D01*
X19773158Y-15118674D02*
X19735063Y-15118674D01*
X19735063Y-15118674D02*
X19716015Y-15128198D01*
X19716015Y-15128198D02*
X19706491Y-15137722D01*
X19706491Y-15137722D02*
X19696967Y-15156769D01*
X19935063Y-15042484D02*
X19954110Y-15042484D01*
X19954110Y-15042484D02*
X19973158Y-15052008D01*
X19973158Y-15052008D02*
X19982682Y-15061531D01*
X19982682Y-15061531D02*
X19992205Y-15080579D01*
X19992205Y-15080579D02*
X20001729Y-15118674D01*
X20001729Y-15118674D02*
X20001729Y-15166293D01*
X20001729Y-15166293D02*
X19992205Y-15204388D01*
X19992205Y-15204388D02*
X19982682Y-15223436D01*
X19982682Y-15223436D02*
X19973158Y-15232960D01*
X19973158Y-15232960D02*
X19954110Y-15242484D01*
X19954110Y-15242484D02*
X19935063Y-15242484D01*
X19935063Y-15242484D02*
X19916015Y-15232960D01*
X19916015Y-15232960D02*
X19906491Y-15223436D01*
X19906491Y-15223436D02*
X19896967Y-15204388D01*
X19896967Y-15204388D02*
X19887444Y-15166293D01*
X19887444Y-15166293D02*
X19887444Y-15118674D01*
X19887444Y-15118674D02*
X19896967Y-15080579D01*
X19896967Y-15080579D02*
X19906491Y-15061531D01*
X19906491Y-15061531D02*
X19916015Y-15052008D01*
X19916015Y-15052008D02*
X19935063Y-15042484D01*
X20125539Y-15042484D02*
X20144586Y-15042484D01*
X20144586Y-15042484D02*
X20163634Y-15052008D01*
X20163634Y-15052008D02*
X20173158Y-15061531D01*
X20173158Y-15061531D02*
X20182682Y-15080579D01*
X20182682Y-15080579D02*
X20192205Y-15118674D01*
X20192205Y-15118674D02*
X20192205Y-15166293D01*
X20192205Y-15166293D02*
X20182682Y-15204388D01*
X20182682Y-15204388D02*
X20173158Y-15223436D01*
X20173158Y-15223436D02*
X20163634Y-15232960D01*
X20163634Y-15232960D02*
X20144586Y-15242484D01*
X20144586Y-15242484D02*
X20125539Y-15242484D01*
X20125539Y-15242484D02*
X20106491Y-15232960D01*
X20106491Y-15232960D02*
X20096967Y-15223436D01*
X20096967Y-15223436D02*
X20087444Y-15204388D01*
X20087444Y-15204388D02*
X20077920Y-15166293D01*
X20077920Y-15166293D02*
X20077920Y-15118674D01*
X20077920Y-15118674D02*
X20087444Y-15080579D01*
X20087444Y-15080579D02*
X20096967Y-15061531D01*
X20096967Y-15061531D02*
X20106491Y-15052008D01*
X20106491Y-15052008D02*
X20125539Y-15042484D01*
X20277920Y-15242484D02*
X20277920Y-15109150D01*
X20277920Y-15128198D02*
X20287444Y-15118674D01*
X20287444Y-15118674D02*
X20306491Y-15109150D01*
X20306491Y-15109150D02*
X20335063Y-15109150D01*
X20335063Y-15109150D02*
X20354110Y-15118674D01*
X20354110Y-15118674D02*
X20363634Y-15137722D01*
X20363634Y-15137722D02*
X20363634Y-15242484D01*
X20363634Y-15137722D02*
X20373158Y-15118674D01*
X20373158Y-15118674D02*
X20392205Y-15109150D01*
X20392205Y-15109150D02*
X20420777Y-15109150D01*
X20420777Y-15109150D02*
X20439825Y-15118674D01*
X20439825Y-15118674D02*
X20449348Y-15137722D01*
X20449348Y-15137722D02*
X20449348Y-15242484D01*
X20544586Y-15242484D02*
X20544586Y-15109150D01*
X20544586Y-15128198D02*
X20554110Y-15118674D01*
X20554110Y-15118674D02*
X20573158Y-15109150D01*
X20573158Y-15109150D02*
X20601729Y-15109150D01*
X20601729Y-15109150D02*
X20620777Y-15118674D01*
X20620777Y-15118674D02*
X20630301Y-15137722D01*
X20630301Y-15137722D02*
X20630301Y-15242484D01*
X20630301Y-15137722D02*
X20639825Y-15118674D01*
X20639825Y-15118674D02*
X20658872Y-15109150D01*
X20658872Y-15109150D02*
X20687444Y-15109150D01*
X20687444Y-15109150D02*
X20706491Y-15118674D01*
X20706491Y-15118674D02*
X20716015Y-15137722D01*
X20716015Y-15137722D02*
X20716015Y-15242484D01*
X21106491Y-15032960D02*
X20935063Y-15290103D01*
X21363634Y-15042484D02*
X21382682Y-15042484D01*
X21382682Y-15042484D02*
X21401729Y-15052008D01*
X21401729Y-15052008D02*
X21411253Y-15061531D01*
X21411253Y-15061531D02*
X21420777Y-15080579D01*
X21420777Y-15080579D02*
X21430301Y-15118674D01*
X21430301Y-15118674D02*
X21430301Y-15166293D01*
X21430301Y-15166293D02*
X21420777Y-15204388D01*
X21420777Y-15204388D02*
X21411253Y-15223436D01*
X21411253Y-15223436D02*
X21401729Y-15232960D01*
X21401729Y-15232960D02*
X21382682Y-15242484D01*
X21382682Y-15242484D02*
X21363634Y-15242484D01*
X21363634Y-15242484D02*
X21344587Y-15232960D01*
X21344587Y-15232960D02*
X21335063Y-15223436D01*
X21335063Y-15223436D02*
X21325539Y-15204388D01*
X21325539Y-15204388D02*
X21316015Y-15166293D01*
X21316015Y-15166293D02*
X21316015Y-15118674D01*
X21316015Y-15118674D02*
X21325539Y-15080579D01*
X21325539Y-15080579D02*
X21335063Y-15061531D01*
X21335063Y-15061531D02*
X21344587Y-15052008D01*
X21344587Y-15052008D02*
X21363634Y-15042484D01*
X21516015Y-15223436D02*
X21525539Y-15232960D01*
X21525539Y-15232960D02*
X21516015Y-15242484D01*
X21516015Y-15242484D02*
X21506491Y-15232960D01*
X21506491Y-15232960D02*
X21516015Y-15223436D01*
X21516015Y-15223436D02*
X21516015Y-15242484D01*
X21649348Y-15042484D02*
X21668396Y-15042484D01*
X21668396Y-15042484D02*
X21687444Y-15052008D01*
X21687444Y-15052008D02*
X21696968Y-15061531D01*
X21696968Y-15061531D02*
X21706491Y-15080579D01*
X21706491Y-15080579D02*
X21716015Y-15118674D01*
X21716015Y-15118674D02*
X21716015Y-15166293D01*
X21716015Y-15166293D02*
X21706491Y-15204388D01*
X21706491Y-15204388D02*
X21696968Y-15223436D01*
X21696968Y-15223436D02*
X21687444Y-15232960D01*
X21687444Y-15232960D02*
X21668396Y-15242484D01*
X21668396Y-15242484D02*
X21649348Y-15242484D01*
X21649348Y-15242484D02*
X21630301Y-15232960D01*
X21630301Y-15232960D02*
X21620777Y-15223436D01*
X21620777Y-15223436D02*
X21611253Y-15204388D01*
X21611253Y-15204388D02*
X21601729Y-15166293D01*
X21601729Y-15166293D02*
X21601729Y-15118674D01*
X21601729Y-15118674D02*
X21611253Y-15080579D01*
X21611253Y-15080579D02*
X21620777Y-15061531D01*
X21620777Y-15061531D02*
X21630301Y-15052008D01*
X21630301Y-15052008D02*
X21649348Y-15042484D01*
X21792206Y-15061531D02*
X21801729Y-15052008D01*
X21801729Y-15052008D02*
X21820777Y-15042484D01*
X21820777Y-15042484D02*
X21868396Y-15042484D01*
X21868396Y-15042484D02*
X21887444Y-15052008D01*
X21887444Y-15052008D02*
X21896968Y-15061531D01*
X21896968Y-15061531D02*
X21906491Y-15080579D01*
X21906491Y-15080579D02*
X21906491Y-15099627D01*
X21906491Y-15099627D02*
X21896968Y-15128198D01*
X21896968Y-15128198D02*
X21782682Y-15242484D01*
X21782682Y-15242484D02*
X21906491Y-15242484D01*
X21973158Y-15042484D02*
X22096968Y-15042484D01*
X22096968Y-15042484D02*
X22030301Y-15118674D01*
X22030301Y-15118674D02*
X22058872Y-15118674D01*
X22058872Y-15118674D02*
X22077920Y-15128198D01*
X22077920Y-15128198D02*
X22087444Y-15137722D01*
X22087444Y-15137722D02*
X22096968Y-15156769D01*
X22096968Y-15156769D02*
X22096968Y-15204388D01*
X22096968Y-15204388D02*
X22087444Y-15223436D01*
X22087444Y-15223436D02*
X22077920Y-15232960D01*
X22077920Y-15232960D02*
X22058872Y-15242484D01*
X22058872Y-15242484D02*
X22001729Y-15242484D01*
X22001729Y-15242484D02*
X21982682Y-15232960D01*
X21982682Y-15232960D02*
X21973158Y-15223436D01*
X22268396Y-15042484D02*
X22230301Y-15042484D01*
X22230301Y-15042484D02*
X22211253Y-15052008D01*
X22211253Y-15052008D02*
X22201729Y-15061531D01*
X22201729Y-15061531D02*
X22182682Y-15090103D01*
X22182682Y-15090103D02*
X22173158Y-15128198D01*
X22173158Y-15128198D02*
X22173158Y-15204388D01*
X22173158Y-15204388D02*
X22182682Y-15223436D01*
X22182682Y-15223436D02*
X22192206Y-15232960D01*
X22192206Y-15232960D02*
X22211253Y-15242484D01*
X22211253Y-15242484D02*
X22249349Y-15242484D01*
X22249349Y-15242484D02*
X22268396Y-15232960D01*
X22268396Y-15232960D02*
X22277920Y-15223436D01*
X22277920Y-15223436D02*
X22287444Y-15204388D01*
X22287444Y-15204388D02*
X22287444Y-15156769D01*
X22287444Y-15156769D02*
X22277920Y-15137722D01*
X22277920Y-15137722D02*
X22268396Y-15128198D01*
X22268396Y-15128198D02*
X22249349Y-15118674D01*
X22249349Y-15118674D02*
X22211253Y-15118674D01*
X22211253Y-15118674D02*
X22192206Y-15128198D01*
X22192206Y-15128198D02*
X22182682Y-15137722D01*
X22182682Y-15137722D02*
X22173158Y-15156769D01*
X22363634Y-15042484D02*
X22363634Y-15080579D01*
X22439825Y-15042484D02*
X22439825Y-15080579D01*
X22735063Y-15318674D02*
X22725539Y-15309150D01*
X22725539Y-15309150D02*
X22706491Y-15280579D01*
X22706491Y-15280579D02*
X22696968Y-15261531D01*
X22696968Y-15261531D02*
X22687444Y-15232960D01*
X22687444Y-15232960D02*
X22677920Y-15185341D01*
X22677920Y-15185341D02*
X22677920Y-15147246D01*
X22677920Y-15147246D02*
X22687444Y-15099627D01*
X22687444Y-15099627D02*
X22696968Y-15071055D01*
X22696968Y-15071055D02*
X22706491Y-15052008D01*
X22706491Y-15052008D02*
X22725539Y-15023436D01*
X22725539Y-15023436D02*
X22735063Y-15013912D01*
X22849348Y-15042484D02*
X22868396Y-15042484D01*
X22868396Y-15042484D02*
X22887444Y-15052008D01*
X22887444Y-15052008D02*
X22896968Y-15061531D01*
X22896968Y-15061531D02*
X22906491Y-15080579D01*
X22906491Y-15080579D02*
X22916015Y-15118674D01*
X22916015Y-15118674D02*
X22916015Y-15166293D01*
X22916015Y-15166293D02*
X22906491Y-15204388D01*
X22906491Y-15204388D02*
X22896968Y-15223436D01*
X22896968Y-15223436D02*
X22887444Y-15232960D01*
X22887444Y-15232960D02*
X22868396Y-15242484D01*
X22868396Y-15242484D02*
X22849348Y-15242484D01*
X22849348Y-15242484D02*
X22830301Y-15232960D01*
X22830301Y-15232960D02*
X22820777Y-15223436D01*
X22820777Y-15223436D02*
X22811253Y-15204388D01*
X22811253Y-15204388D02*
X22801729Y-15166293D01*
X22801729Y-15166293D02*
X22801729Y-15118674D01*
X22801729Y-15118674D02*
X22811253Y-15080579D01*
X22811253Y-15080579D02*
X22820777Y-15061531D01*
X22820777Y-15061531D02*
X22830301Y-15052008D01*
X22830301Y-15052008D02*
X22849348Y-15042484D01*
X23154110Y-15242484D02*
X23154110Y-15042484D01*
X23239825Y-15242484D02*
X23239825Y-15137722D01*
X23239825Y-15137722D02*
X23230301Y-15118674D01*
X23230301Y-15118674D02*
X23211253Y-15109150D01*
X23211253Y-15109150D02*
X23182682Y-15109150D01*
X23182682Y-15109150D02*
X23163634Y-15118674D01*
X23163634Y-15118674D02*
X23154110Y-15128198D01*
X23363634Y-15242484D02*
X23344587Y-15232960D01*
X23344587Y-15232960D02*
X23335063Y-15223436D01*
X23335063Y-15223436D02*
X23325539Y-15204388D01*
X23325539Y-15204388D02*
X23325539Y-15147246D01*
X23325539Y-15147246D02*
X23335063Y-15128198D01*
X23335063Y-15128198D02*
X23344587Y-15118674D01*
X23344587Y-15118674D02*
X23363634Y-15109150D01*
X23363634Y-15109150D02*
X23392206Y-15109150D01*
X23392206Y-15109150D02*
X23411253Y-15118674D01*
X23411253Y-15118674D02*
X23420777Y-15128198D01*
X23420777Y-15128198D02*
X23430301Y-15147246D01*
X23430301Y-15147246D02*
X23430301Y-15204388D01*
X23430301Y-15204388D02*
X23420777Y-15223436D01*
X23420777Y-15223436D02*
X23411253Y-15232960D01*
X23411253Y-15232960D02*
X23392206Y-15242484D01*
X23392206Y-15242484D02*
X23363634Y-15242484D01*
X23544587Y-15242484D02*
X23525539Y-15232960D01*
X23525539Y-15232960D02*
X23516015Y-15213912D01*
X23516015Y-15213912D02*
X23516015Y-15042484D01*
X23696968Y-15232960D02*
X23677920Y-15242484D01*
X23677920Y-15242484D02*
X23639825Y-15242484D01*
X23639825Y-15242484D02*
X23620777Y-15232960D01*
X23620777Y-15232960D02*
X23611253Y-15213912D01*
X23611253Y-15213912D02*
X23611253Y-15137722D01*
X23611253Y-15137722D02*
X23620777Y-15118674D01*
X23620777Y-15118674D02*
X23639825Y-15109150D01*
X23639825Y-15109150D02*
X23677920Y-15109150D01*
X23677920Y-15109150D02*
X23696968Y-15118674D01*
X23696968Y-15118674D02*
X23706491Y-15137722D01*
X23706491Y-15137722D02*
X23706491Y-15156769D01*
X23706491Y-15156769D02*
X23611253Y-15175817D01*
X23782682Y-15232960D02*
X23801730Y-15242484D01*
X23801730Y-15242484D02*
X23839825Y-15242484D01*
X23839825Y-15242484D02*
X23858872Y-15232960D01*
X23858872Y-15232960D02*
X23868396Y-15213912D01*
X23868396Y-15213912D02*
X23868396Y-15204388D01*
X23868396Y-15204388D02*
X23858872Y-15185341D01*
X23858872Y-15185341D02*
X23839825Y-15175817D01*
X23839825Y-15175817D02*
X23811253Y-15175817D01*
X23811253Y-15175817D02*
X23792206Y-15166293D01*
X23792206Y-15166293D02*
X23782682Y-15147246D01*
X23782682Y-15147246D02*
X23782682Y-15137722D01*
X23782682Y-15137722D02*
X23792206Y-15118674D01*
X23792206Y-15118674D02*
X23811253Y-15109150D01*
X23811253Y-15109150D02*
X23839825Y-15109150D01*
X23839825Y-15109150D02*
X23858872Y-15118674D01*
X24106492Y-15166293D02*
X24258873Y-15166293D01*
X24182682Y-15242484D02*
X24182682Y-15090103D01*
X24611253Y-15242484D02*
X24496968Y-15242484D01*
X24554111Y-15242484D02*
X24554111Y-15042484D01*
X24554111Y-15042484D02*
X24535063Y-15071055D01*
X24535063Y-15071055D02*
X24516015Y-15090103D01*
X24516015Y-15090103D02*
X24496968Y-15099627D01*
X24677920Y-15042484D02*
X24811253Y-15042484D01*
X24811253Y-15042484D02*
X24725539Y-15242484D01*
X25030301Y-15232960D02*
X25049349Y-15242484D01*
X25049349Y-15242484D02*
X25087444Y-15242484D01*
X25087444Y-15242484D02*
X25106492Y-15232960D01*
X25106492Y-15232960D02*
X25116015Y-15213912D01*
X25116015Y-15213912D02*
X25116015Y-15204388D01*
X25116015Y-15204388D02*
X25106492Y-15185341D01*
X25106492Y-15185341D02*
X25087444Y-15175817D01*
X25087444Y-15175817D02*
X25058873Y-15175817D01*
X25058873Y-15175817D02*
X25039825Y-15166293D01*
X25039825Y-15166293D02*
X25030301Y-15147246D01*
X25030301Y-15147246D02*
X25030301Y-15137722D01*
X25030301Y-15137722D02*
X25039825Y-15118674D01*
X25039825Y-15118674D02*
X25058873Y-15109150D01*
X25058873Y-15109150D02*
X25087444Y-15109150D01*
X25087444Y-15109150D02*
X25106492Y-15118674D01*
X25230301Y-15242484D02*
X25211254Y-15232960D01*
X25211254Y-15232960D02*
X25201730Y-15213912D01*
X25201730Y-15213912D02*
X25201730Y-15042484D01*
X25335063Y-15242484D02*
X25316015Y-15232960D01*
X25316015Y-15232960D02*
X25306492Y-15223436D01*
X25306492Y-15223436D02*
X25296968Y-15204388D01*
X25296968Y-15204388D02*
X25296968Y-15147246D01*
X25296968Y-15147246D02*
X25306492Y-15128198D01*
X25306492Y-15128198D02*
X25316015Y-15118674D01*
X25316015Y-15118674D02*
X25335063Y-15109150D01*
X25335063Y-15109150D02*
X25363635Y-15109150D01*
X25363635Y-15109150D02*
X25382682Y-15118674D01*
X25382682Y-15118674D02*
X25392206Y-15128198D01*
X25392206Y-15128198D02*
X25401730Y-15147246D01*
X25401730Y-15147246D02*
X25401730Y-15204388D01*
X25401730Y-15204388D02*
X25392206Y-15223436D01*
X25392206Y-15223436D02*
X25382682Y-15232960D01*
X25382682Y-15232960D02*
X25363635Y-15242484D01*
X25363635Y-15242484D02*
X25335063Y-15242484D01*
X25458873Y-15109150D02*
X25535063Y-15109150D01*
X25487444Y-15042484D02*
X25487444Y-15213912D01*
X25487444Y-15213912D02*
X25496968Y-15232960D01*
X25496968Y-15232960D02*
X25516015Y-15242484D01*
X25516015Y-15242484D02*
X25535063Y-15242484D01*
X25592206Y-15232960D02*
X25611254Y-15242484D01*
X25611254Y-15242484D02*
X25649349Y-15242484D01*
X25649349Y-15242484D02*
X25668396Y-15232960D01*
X25668396Y-15232960D02*
X25677920Y-15213912D01*
X25677920Y-15213912D02*
X25677920Y-15204388D01*
X25677920Y-15204388D02*
X25668396Y-15185341D01*
X25668396Y-15185341D02*
X25649349Y-15175817D01*
X25649349Y-15175817D02*
X25620777Y-15175817D01*
X25620777Y-15175817D02*
X25601730Y-15166293D01*
X25601730Y-15166293D02*
X25592206Y-15147246D01*
X25592206Y-15147246D02*
X25592206Y-15137722D01*
X25592206Y-15137722D02*
X25601730Y-15118674D01*
X25601730Y-15118674D02*
X25620777Y-15109150D01*
X25620777Y-15109150D02*
X25649349Y-15109150D01*
X25649349Y-15109150D02*
X25668396Y-15118674D01*
X25744587Y-15318674D02*
X25754111Y-15309150D01*
X25754111Y-15309150D02*
X25773158Y-15280579D01*
X25773158Y-15280579D02*
X25782682Y-15261531D01*
X25782682Y-15261531D02*
X25792206Y-15232960D01*
X25792206Y-15232960D02*
X25801730Y-15185341D01*
X25801730Y-15185341D02*
X25801730Y-15147246D01*
X25801730Y-15147246D02*
X25792206Y-15099627D01*
X25792206Y-15099627D02*
X25782682Y-15071055D01*
X25782682Y-15071055D02*
X25773158Y-15052008D01*
X25773158Y-15052008D02*
X25754111Y-15023436D01*
X25754111Y-15023436D02*
X25744587Y-15013912D01*
D17*
X19078720Y-15374360D02*
X19160000Y-15455640D01*
X19160000Y-15374360D02*
X19078720Y-15455640D01*
X19160000Y-15415000D02*
G75*
G03*
X19160000Y-15415000I-40640J0D01*
G01*
D10*
X19458872Y-15306484D02*
X19477920Y-15306484D01*
X19477920Y-15306484D02*
X19496967Y-15316008D01*
X19496967Y-15316008D02*
X19506491Y-15325531D01*
X19506491Y-15325531D02*
X19516015Y-15344579D01*
X19516015Y-15344579D02*
X19525539Y-15382674D01*
X19525539Y-15382674D02*
X19525539Y-15430293D01*
X19525539Y-15430293D02*
X19516015Y-15468388D01*
X19516015Y-15468388D02*
X19506491Y-15487436D01*
X19506491Y-15487436D02*
X19496967Y-15496960D01*
X19496967Y-15496960D02*
X19477920Y-15506484D01*
X19477920Y-15506484D02*
X19458872Y-15506484D01*
X19458872Y-15506484D02*
X19439824Y-15496960D01*
X19439824Y-15496960D02*
X19430301Y-15487436D01*
X19430301Y-15487436D02*
X19420777Y-15468388D01*
X19420777Y-15468388D02*
X19411253Y-15430293D01*
X19411253Y-15430293D02*
X19411253Y-15382674D01*
X19411253Y-15382674D02*
X19420777Y-15344579D01*
X19420777Y-15344579D02*
X19430301Y-15325531D01*
X19430301Y-15325531D02*
X19439824Y-15316008D01*
X19439824Y-15316008D02*
X19458872Y-15306484D01*
X19611253Y-15487436D02*
X19620777Y-15496960D01*
X19620777Y-15496960D02*
X19611253Y-15506484D01*
X19611253Y-15506484D02*
X19601729Y-15496960D01*
X19601729Y-15496960D02*
X19611253Y-15487436D01*
X19611253Y-15487436D02*
X19611253Y-15506484D01*
X19735063Y-15392198D02*
X19716015Y-15382674D01*
X19716015Y-15382674D02*
X19706491Y-15373150D01*
X19706491Y-15373150D02*
X19696967Y-15354103D01*
X19696967Y-15354103D02*
X19696967Y-15344579D01*
X19696967Y-15344579D02*
X19706491Y-15325531D01*
X19706491Y-15325531D02*
X19716015Y-15316008D01*
X19716015Y-15316008D02*
X19735063Y-15306484D01*
X19735063Y-15306484D02*
X19773158Y-15306484D01*
X19773158Y-15306484D02*
X19792205Y-15316008D01*
X19792205Y-15316008D02*
X19801729Y-15325531D01*
X19801729Y-15325531D02*
X19811253Y-15344579D01*
X19811253Y-15344579D02*
X19811253Y-15354103D01*
X19811253Y-15354103D02*
X19801729Y-15373150D01*
X19801729Y-15373150D02*
X19792205Y-15382674D01*
X19792205Y-15382674D02*
X19773158Y-15392198D01*
X19773158Y-15392198D02*
X19735063Y-15392198D01*
X19735063Y-15392198D02*
X19716015Y-15401722D01*
X19716015Y-15401722D02*
X19706491Y-15411246D01*
X19706491Y-15411246D02*
X19696967Y-15430293D01*
X19696967Y-15430293D02*
X19696967Y-15468388D01*
X19696967Y-15468388D02*
X19706491Y-15487436D01*
X19706491Y-15487436D02*
X19716015Y-15496960D01*
X19716015Y-15496960D02*
X19735063Y-15506484D01*
X19735063Y-15506484D02*
X19773158Y-15506484D01*
X19773158Y-15506484D02*
X19792205Y-15496960D01*
X19792205Y-15496960D02*
X19801729Y-15487436D01*
X19801729Y-15487436D02*
X19811253Y-15468388D01*
X19811253Y-15468388D02*
X19811253Y-15430293D01*
X19811253Y-15430293D02*
X19801729Y-15411246D01*
X19801729Y-15411246D02*
X19792205Y-15401722D01*
X19792205Y-15401722D02*
X19773158Y-15392198D01*
X20001729Y-15506484D02*
X19887444Y-15506484D01*
X19944586Y-15506484D02*
X19944586Y-15306484D01*
X19944586Y-15306484D02*
X19925539Y-15335055D01*
X19925539Y-15335055D02*
X19906491Y-15354103D01*
X19906491Y-15354103D02*
X19887444Y-15363627D01*
X20068396Y-15306484D02*
X20192205Y-15306484D01*
X20192205Y-15306484D02*
X20125539Y-15382674D01*
X20125539Y-15382674D02*
X20154110Y-15382674D01*
X20154110Y-15382674D02*
X20173158Y-15392198D01*
X20173158Y-15392198D02*
X20182682Y-15401722D01*
X20182682Y-15401722D02*
X20192205Y-15420769D01*
X20192205Y-15420769D02*
X20192205Y-15468388D01*
X20192205Y-15468388D02*
X20182682Y-15487436D01*
X20182682Y-15487436D02*
X20173158Y-15496960D01*
X20173158Y-15496960D02*
X20154110Y-15506484D01*
X20154110Y-15506484D02*
X20096967Y-15506484D01*
X20096967Y-15506484D02*
X20077920Y-15496960D01*
X20077920Y-15496960D02*
X20068396Y-15487436D01*
X20277920Y-15506484D02*
X20277920Y-15373150D01*
X20277920Y-15392198D02*
X20287444Y-15382674D01*
X20287444Y-15382674D02*
X20306491Y-15373150D01*
X20306491Y-15373150D02*
X20335063Y-15373150D01*
X20335063Y-15373150D02*
X20354110Y-15382674D01*
X20354110Y-15382674D02*
X20363634Y-15401722D01*
X20363634Y-15401722D02*
X20363634Y-15506484D01*
X20363634Y-15401722D02*
X20373158Y-15382674D01*
X20373158Y-15382674D02*
X20392205Y-15373150D01*
X20392205Y-15373150D02*
X20420777Y-15373150D01*
X20420777Y-15373150D02*
X20439825Y-15382674D01*
X20439825Y-15382674D02*
X20449348Y-15401722D01*
X20449348Y-15401722D02*
X20449348Y-15506484D01*
X20544586Y-15506484D02*
X20544586Y-15373150D01*
X20544586Y-15392198D02*
X20554110Y-15382674D01*
X20554110Y-15382674D02*
X20573158Y-15373150D01*
X20573158Y-15373150D02*
X20601729Y-15373150D01*
X20601729Y-15373150D02*
X20620777Y-15382674D01*
X20620777Y-15382674D02*
X20630301Y-15401722D01*
X20630301Y-15401722D02*
X20630301Y-15506484D01*
X20630301Y-15401722D02*
X20639825Y-15382674D01*
X20639825Y-15382674D02*
X20658872Y-15373150D01*
X20658872Y-15373150D02*
X20687444Y-15373150D01*
X20687444Y-15373150D02*
X20706491Y-15382674D01*
X20706491Y-15382674D02*
X20716015Y-15401722D01*
X20716015Y-15401722D02*
X20716015Y-15506484D01*
X21106491Y-15296960D02*
X20935063Y-15554103D01*
X21363634Y-15306484D02*
X21382682Y-15306484D01*
X21382682Y-15306484D02*
X21401729Y-15316008D01*
X21401729Y-15316008D02*
X21411253Y-15325531D01*
X21411253Y-15325531D02*
X21420777Y-15344579D01*
X21420777Y-15344579D02*
X21430301Y-15382674D01*
X21430301Y-15382674D02*
X21430301Y-15430293D01*
X21430301Y-15430293D02*
X21420777Y-15468388D01*
X21420777Y-15468388D02*
X21411253Y-15487436D01*
X21411253Y-15487436D02*
X21401729Y-15496960D01*
X21401729Y-15496960D02*
X21382682Y-15506484D01*
X21382682Y-15506484D02*
X21363634Y-15506484D01*
X21363634Y-15506484D02*
X21344587Y-15496960D01*
X21344587Y-15496960D02*
X21335063Y-15487436D01*
X21335063Y-15487436D02*
X21325539Y-15468388D01*
X21325539Y-15468388D02*
X21316015Y-15430293D01*
X21316015Y-15430293D02*
X21316015Y-15382674D01*
X21316015Y-15382674D02*
X21325539Y-15344579D01*
X21325539Y-15344579D02*
X21335063Y-15325531D01*
X21335063Y-15325531D02*
X21344587Y-15316008D01*
X21344587Y-15316008D02*
X21363634Y-15306484D01*
X21516015Y-15487436D02*
X21525539Y-15496960D01*
X21525539Y-15496960D02*
X21516015Y-15506484D01*
X21516015Y-15506484D02*
X21506491Y-15496960D01*
X21506491Y-15496960D02*
X21516015Y-15487436D01*
X21516015Y-15487436D02*
X21516015Y-15506484D01*
X21649348Y-15306484D02*
X21668396Y-15306484D01*
X21668396Y-15306484D02*
X21687444Y-15316008D01*
X21687444Y-15316008D02*
X21696968Y-15325531D01*
X21696968Y-15325531D02*
X21706491Y-15344579D01*
X21706491Y-15344579D02*
X21716015Y-15382674D01*
X21716015Y-15382674D02*
X21716015Y-15430293D01*
X21716015Y-15430293D02*
X21706491Y-15468388D01*
X21706491Y-15468388D02*
X21696968Y-15487436D01*
X21696968Y-15487436D02*
X21687444Y-15496960D01*
X21687444Y-15496960D02*
X21668396Y-15506484D01*
X21668396Y-15506484D02*
X21649348Y-15506484D01*
X21649348Y-15506484D02*
X21630301Y-15496960D01*
X21630301Y-15496960D02*
X21620777Y-15487436D01*
X21620777Y-15487436D02*
X21611253Y-15468388D01*
X21611253Y-15468388D02*
X21601729Y-15430293D01*
X21601729Y-15430293D02*
X21601729Y-15382674D01*
X21601729Y-15382674D02*
X21611253Y-15344579D01*
X21611253Y-15344579D02*
X21620777Y-15325531D01*
X21620777Y-15325531D02*
X21630301Y-15316008D01*
X21630301Y-15316008D02*
X21649348Y-15306484D01*
X21782682Y-15306484D02*
X21906491Y-15306484D01*
X21906491Y-15306484D02*
X21839825Y-15382674D01*
X21839825Y-15382674D02*
X21868396Y-15382674D01*
X21868396Y-15382674D02*
X21887444Y-15392198D01*
X21887444Y-15392198D02*
X21896968Y-15401722D01*
X21896968Y-15401722D02*
X21906491Y-15420769D01*
X21906491Y-15420769D02*
X21906491Y-15468388D01*
X21906491Y-15468388D02*
X21896968Y-15487436D01*
X21896968Y-15487436D02*
X21887444Y-15496960D01*
X21887444Y-15496960D02*
X21868396Y-15506484D01*
X21868396Y-15506484D02*
X21811253Y-15506484D01*
X21811253Y-15506484D02*
X21792206Y-15496960D01*
X21792206Y-15496960D02*
X21782682Y-15487436D01*
X21982682Y-15325531D02*
X21992206Y-15316008D01*
X21992206Y-15316008D02*
X22011253Y-15306484D01*
X22011253Y-15306484D02*
X22058872Y-15306484D01*
X22058872Y-15306484D02*
X22077920Y-15316008D01*
X22077920Y-15316008D02*
X22087444Y-15325531D01*
X22087444Y-15325531D02*
X22096968Y-15344579D01*
X22096968Y-15344579D02*
X22096968Y-15363627D01*
X22096968Y-15363627D02*
X22087444Y-15392198D01*
X22087444Y-15392198D02*
X21973158Y-15506484D01*
X21973158Y-15506484D02*
X22096968Y-15506484D01*
X22220777Y-15306484D02*
X22239825Y-15306484D01*
X22239825Y-15306484D02*
X22258872Y-15316008D01*
X22258872Y-15316008D02*
X22268396Y-15325531D01*
X22268396Y-15325531D02*
X22277920Y-15344579D01*
X22277920Y-15344579D02*
X22287444Y-15382674D01*
X22287444Y-15382674D02*
X22287444Y-15430293D01*
X22287444Y-15430293D02*
X22277920Y-15468388D01*
X22277920Y-15468388D02*
X22268396Y-15487436D01*
X22268396Y-15487436D02*
X22258872Y-15496960D01*
X22258872Y-15496960D02*
X22239825Y-15506484D01*
X22239825Y-15506484D02*
X22220777Y-15506484D01*
X22220777Y-15506484D02*
X22201729Y-15496960D01*
X22201729Y-15496960D02*
X22192206Y-15487436D01*
X22192206Y-15487436D02*
X22182682Y-15468388D01*
X22182682Y-15468388D02*
X22173158Y-15430293D01*
X22173158Y-15430293D02*
X22173158Y-15382674D01*
X22173158Y-15382674D02*
X22182682Y-15344579D01*
X22182682Y-15344579D02*
X22192206Y-15325531D01*
X22192206Y-15325531D02*
X22201729Y-15316008D01*
X22201729Y-15316008D02*
X22220777Y-15306484D01*
X22363634Y-15306484D02*
X22363634Y-15344579D01*
X22439825Y-15306484D02*
X22439825Y-15344579D01*
X22735063Y-15582674D02*
X22725539Y-15573150D01*
X22725539Y-15573150D02*
X22706491Y-15544579D01*
X22706491Y-15544579D02*
X22696968Y-15525531D01*
X22696968Y-15525531D02*
X22687444Y-15496960D01*
X22687444Y-15496960D02*
X22677920Y-15449341D01*
X22677920Y-15449341D02*
X22677920Y-15411246D01*
X22677920Y-15411246D02*
X22687444Y-15363627D01*
X22687444Y-15363627D02*
X22696968Y-15335055D01*
X22696968Y-15335055D02*
X22706491Y-15316008D01*
X22706491Y-15316008D02*
X22725539Y-15287436D01*
X22725539Y-15287436D02*
X22735063Y-15277912D01*
X22801729Y-15325531D02*
X22811253Y-15316008D01*
X22811253Y-15316008D02*
X22830301Y-15306484D01*
X22830301Y-15306484D02*
X22877920Y-15306484D01*
X22877920Y-15306484D02*
X22896968Y-15316008D01*
X22896968Y-15316008D02*
X22906491Y-15325531D01*
X22906491Y-15325531D02*
X22916015Y-15344579D01*
X22916015Y-15344579D02*
X22916015Y-15363627D01*
X22916015Y-15363627D02*
X22906491Y-15392198D01*
X22906491Y-15392198D02*
X22792206Y-15506484D01*
X22792206Y-15506484D02*
X22916015Y-15506484D01*
X23154110Y-15506484D02*
X23154110Y-15306484D01*
X23239825Y-15506484D02*
X23239825Y-15401722D01*
X23239825Y-15401722D02*
X23230301Y-15382674D01*
X23230301Y-15382674D02*
X23211253Y-15373150D01*
X23211253Y-15373150D02*
X23182682Y-15373150D01*
X23182682Y-15373150D02*
X23163634Y-15382674D01*
X23163634Y-15382674D02*
X23154110Y-15392198D01*
X23363634Y-15506484D02*
X23344587Y-15496960D01*
X23344587Y-15496960D02*
X23335063Y-15487436D01*
X23335063Y-15487436D02*
X23325539Y-15468388D01*
X23325539Y-15468388D02*
X23325539Y-15411246D01*
X23325539Y-15411246D02*
X23335063Y-15392198D01*
X23335063Y-15392198D02*
X23344587Y-15382674D01*
X23344587Y-15382674D02*
X23363634Y-15373150D01*
X23363634Y-15373150D02*
X23392206Y-15373150D01*
X23392206Y-15373150D02*
X23411253Y-15382674D01*
X23411253Y-15382674D02*
X23420777Y-15392198D01*
X23420777Y-15392198D02*
X23430301Y-15411246D01*
X23430301Y-15411246D02*
X23430301Y-15468388D01*
X23430301Y-15468388D02*
X23420777Y-15487436D01*
X23420777Y-15487436D02*
X23411253Y-15496960D01*
X23411253Y-15496960D02*
X23392206Y-15506484D01*
X23392206Y-15506484D02*
X23363634Y-15506484D01*
X23544587Y-15506484D02*
X23525539Y-15496960D01*
X23525539Y-15496960D02*
X23516015Y-15477912D01*
X23516015Y-15477912D02*
X23516015Y-15306484D01*
X23696968Y-15496960D02*
X23677920Y-15506484D01*
X23677920Y-15506484D02*
X23639825Y-15506484D01*
X23639825Y-15506484D02*
X23620777Y-15496960D01*
X23620777Y-15496960D02*
X23611253Y-15477912D01*
X23611253Y-15477912D02*
X23611253Y-15401722D01*
X23611253Y-15401722D02*
X23620777Y-15382674D01*
X23620777Y-15382674D02*
X23639825Y-15373150D01*
X23639825Y-15373150D02*
X23677920Y-15373150D01*
X23677920Y-15373150D02*
X23696968Y-15382674D01*
X23696968Y-15382674D02*
X23706491Y-15401722D01*
X23706491Y-15401722D02*
X23706491Y-15420769D01*
X23706491Y-15420769D02*
X23611253Y-15439817D01*
X23782682Y-15496960D02*
X23801730Y-15506484D01*
X23801730Y-15506484D02*
X23839825Y-15506484D01*
X23839825Y-15506484D02*
X23858872Y-15496960D01*
X23858872Y-15496960D02*
X23868396Y-15477912D01*
X23868396Y-15477912D02*
X23868396Y-15468388D01*
X23868396Y-15468388D02*
X23858872Y-15449341D01*
X23858872Y-15449341D02*
X23839825Y-15439817D01*
X23839825Y-15439817D02*
X23811253Y-15439817D01*
X23811253Y-15439817D02*
X23792206Y-15430293D01*
X23792206Y-15430293D02*
X23782682Y-15411246D01*
X23782682Y-15411246D02*
X23782682Y-15401722D01*
X23782682Y-15401722D02*
X23792206Y-15382674D01*
X23792206Y-15382674D02*
X23811253Y-15373150D01*
X23811253Y-15373150D02*
X23839825Y-15373150D01*
X23839825Y-15373150D02*
X23858872Y-15382674D01*
X23935063Y-15582674D02*
X23944587Y-15573150D01*
X23944587Y-15573150D02*
X23963634Y-15544579D01*
X23963634Y-15544579D02*
X23973158Y-15525531D01*
X23973158Y-15525531D02*
X23982682Y-15496960D01*
X23982682Y-15496960D02*
X23992206Y-15449341D01*
X23992206Y-15449341D02*
X23992206Y-15411246D01*
X23992206Y-15411246D02*
X23982682Y-15363627D01*
X23982682Y-15363627D02*
X23973158Y-15335055D01*
X23973158Y-15335055D02*
X23963634Y-15316008D01*
X23963634Y-15316008D02*
X23944587Y-15287436D01*
X23944587Y-15287436D02*
X23935063Y-15277912D01*
D18*
X19075000Y-15636500D02*
X19160000Y-15721500D01*
X19160000Y-15636500D02*
X19075000Y-15721500D01*
X19117500Y-15636500D02*
X19117500Y-15721500D01*
X19075000Y-15679000D02*
X19160000Y-15679000D01*
D10*
X19458872Y-15570484D02*
X19477920Y-15570484D01*
X19477920Y-15570484D02*
X19496967Y-15580008D01*
X19496967Y-15580008D02*
X19506491Y-15589531D01*
X19506491Y-15589531D02*
X19516015Y-15608579D01*
X19516015Y-15608579D02*
X19525539Y-15646674D01*
X19525539Y-15646674D02*
X19525539Y-15694293D01*
X19525539Y-15694293D02*
X19516015Y-15732388D01*
X19516015Y-15732388D02*
X19506491Y-15751436D01*
X19506491Y-15751436D02*
X19496967Y-15760960D01*
X19496967Y-15760960D02*
X19477920Y-15770484D01*
X19477920Y-15770484D02*
X19458872Y-15770484D01*
X19458872Y-15770484D02*
X19439824Y-15760960D01*
X19439824Y-15760960D02*
X19430301Y-15751436D01*
X19430301Y-15751436D02*
X19420777Y-15732388D01*
X19420777Y-15732388D02*
X19411253Y-15694293D01*
X19411253Y-15694293D02*
X19411253Y-15646674D01*
X19411253Y-15646674D02*
X19420777Y-15608579D01*
X19420777Y-15608579D02*
X19430301Y-15589531D01*
X19430301Y-15589531D02*
X19439824Y-15580008D01*
X19439824Y-15580008D02*
X19458872Y-15570484D01*
X19611253Y-15751436D02*
X19620777Y-15760960D01*
X19620777Y-15760960D02*
X19611253Y-15770484D01*
X19611253Y-15770484D02*
X19601729Y-15760960D01*
X19601729Y-15760960D02*
X19611253Y-15751436D01*
X19611253Y-15751436D02*
X19611253Y-15770484D01*
X19735063Y-15656198D02*
X19716015Y-15646674D01*
X19716015Y-15646674D02*
X19706491Y-15637150D01*
X19706491Y-15637150D02*
X19696967Y-15618103D01*
X19696967Y-15618103D02*
X19696967Y-15608579D01*
X19696967Y-15608579D02*
X19706491Y-15589531D01*
X19706491Y-15589531D02*
X19716015Y-15580008D01*
X19716015Y-15580008D02*
X19735063Y-15570484D01*
X19735063Y-15570484D02*
X19773158Y-15570484D01*
X19773158Y-15570484D02*
X19792205Y-15580008D01*
X19792205Y-15580008D02*
X19801729Y-15589531D01*
X19801729Y-15589531D02*
X19811253Y-15608579D01*
X19811253Y-15608579D02*
X19811253Y-15618103D01*
X19811253Y-15618103D02*
X19801729Y-15637150D01*
X19801729Y-15637150D02*
X19792205Y-15646674D01*
X19792205Y-15646674D02*
X19773158Y-15656198D01*
X19773158Y-15656198D02*
X19735063Y-15656198D01*
X19735063Y-15656198D02*
X19716015Y-15665722D01*
X19716015Y-15665722D02*
X19706491Y-15675246D01*
X19706491Y-15675246D02*
X19696967Y-15694293D01*
X19696967Y-15694293D02*
X19696967Y-15732388D01*
X19696967Y-15732388D02*
X19706491Y-15751436D01*
X19706491Y-15751436D02*
X19716015Y-15760960D01*
X19716015Y-15760960D02*
X19735063Y-15770484D01*
X19735063Y-15770484D02*
X19773158Y-15770484D01*
X19773158Y-15770484D02*
X19792205Y-15760960D01*
X19792205Y-15760960D02*
X19801729Y-15751436D01*
X19801729Y-15751436D02*
X19811253Y-15732388D01*
X19811253Y-15732388D02*
X19811253Y-15694293D01*
X19811253Y-15694293D02*
X19801729Y-15675246D01*
X19801729Y-15675246D02*
X19792205Y-15665722D01*
X19792205Y-15665722D02*
X19773158Y-15656198D01*
X19992205Y-15570484D02*
X19896967Y-15570484D01*
X19896967Y-15570484D02*
X19887444Y-15665722D01*
X19887444Y-15665722D02*
X19896967Y-15656198D01*
X19896967Y-15656198D02*
X19916015Y-15646674D01*
X19916015Y-15646674D02*
X19963634Y-15646674D01*
X19963634Y-15646674D02*
X19982682Y-15656198D01*
X19982682Y-15656198D02*
X19992205Y-15665722D01*
X19992205Y-15665722D02*
X20001729Y-15684769D01*
X20001729Y-15684769D02*
X20001729Y-15732388D01*
X20001729Y-15732388D02*
X19992205Y-15751436D01*
X19992205Y-15751436D02*
X19982682Y-15760960D01*
X19982682Y-15760960D02*
X19963634Y-15770484D01*
X19963634Y-15770484D02*
X19916015Y-15770484D01*
X19916015Y-15770484D02*
X19896967Y-15760960D01*
X19896967Y-15760960D02*
X19887444Y-15751436D01*
X20125539Y-15570484D02*
X20144586Y-15570484D01*
X20144586Y-15570484D02*
X20163634Y-15580008D01*
X20163634Y-15580008D02*
X20173158Y-15589531D01*
X20173158Y-15589531D02*
X20182682Y-15608579D01*
X20182682Y-15608579D02*
X20192205Y-15646674D01*
X20192205Y-15646674D02*
X20192205Y-15694293D01*
X20192205Y-15694293D02*
X20182682Y-15732388D01*
X20182682Y-15732388D02*
X20173158Y-15751436D01*
X20173158Y-15751436D02*
X20163634Y-15760960D01*
X20163634Y-15760960D02*
X20144586Y-15770484D01*
X20144586Y-15770484D02*
X20125539Y-15770484D01*
X20125539Y-15770484D02*
X20106491Y-15760960D01*
X20106491Y-15760960D02*
X20096967Y-15751436D01*
X20096967Y-15751436D02*
X20087444Y-15732388D01*
X20087444Y-15732388D02*
X20077920Y-15694293D01*
X20077920Y-15694293D02*
X20077920Y-15646674D01*
X20077920Y-15646674D02*
X20087444Y-15608579D01*
X20087444Y-15608579D02*
X20096967Y-15589531D01*
X20096967Y-15589531D02*
X20106491Y-15580008D01*
X20106491Y-15580008D02*
X20125539Y-15570484D01*
X20277920Y-15770484D02*
X20277920Y-15637150D01*
X20277920Y-15656198D02*
X20287444Y-15646674D01*
X20287444Y-15646674D02*
X20306491Y-15637150D01*
X20306491Y-15637150D02*
X20335063Y-15637150D01*
X20335063Y-15637150D02*
X20354110Y-15646674D01*
X20354110Y-15646674D02*
X20363634Y-15665722D01*
X20363634Y-15665722D02*
X20363634Y-15770484D01*
X20363634Y-15665722D02*
X20373158Y-15646674D01*
X20373158Y-15646674D02*
X20392205Y-15637150D01*
X20392205Y-15637150D02*
X20420777Y-15637150D01*
X20420777Y-15637150D02*
X20439825Y-15646674D01*
X20439825Y-15646674D02*
X20449348Y-15665722D01*
X20449348Y-15665722D02*
X20449348Y-15770484D01*
X20544586Y-15770484D02*
X20544586Y-15637150D01*
X20544586Y-15656198D02*
X20554110Y-15646674D01*
X20554110Y-15646674D02*
X20573158Y-15637150D01*
X20573158Y-15637150D02*
X20601729Y-15637150D01*
X20601729Y-15637150D02*
X20620777Y-15646674D01*
X20620777Y-15646674D02*
X20630301Y-15665722D01*
X20630301Y-15665722D02*
X20630301Y-15770484D01*
X20630301Y-15665722D02*
X20639825Y-15646674D01*
X20639825Y-15646674D02*
X20658872Y-15637150D01*
X20658872Y-15637150D02*
X20687444Y-15637150D01*
X20687444Y-15637150D02*
X20706491Y-15646674D01*
X20706491Y-15646674D02*
X20716015Y-15665722D01*
X20716015Y-15665722D02*
X20716015Y-15770484D01*
X21106491Y-15560960D02*
X20935063Y-15818103D01*
X21363634Y-15570484D02*
X21382682Y-15570484D01*
X21382682Y-15570484D02*
X21401729Y-15580008D01*
X21401729Y-15580008D02*
X21411253Y-15589531D01*
X21411253Y-15589531D02*
X21420777Y-15608579D01*
X21420777Y-15608579D02*
X21430301Y-15646674D01*
X21430301Y-15646674D02*
X21430301Y-15694293D01*
X21430301Y-15694293D02*
X21420777Y-15732388D01*
X21420777Y-15732388D02*
X21411253Y-15751436D01*
X21411253Y-15751436D02*
X21401729Y-15760960D01*
X21401729Y-15760960D02*
X21382682Y-15770484D01*
X21382682Y-15770484D02*
X21363634Y-15770484D01*
X21363634Y-15770484D02*
X21344587Y-15760960D01*
X21344587Y-15760960D02*
X21335063Y-15751436D01*
X21335063Y-15751436D02*
X21325539Y-15732388D01*
X21325539Y-15732388D02*
X21316015Y-15694293D01*
X21316015Y-15694293D02*
X21316015Y-15646674D01*
X21316015Y-15646674D02*
X21325539Y-15608579D01*
X21325539Y-15608579D02*
X21335063Y-15589531D01*
X21335063Y-15589531D02*
X21344587Y-15580008D01*
X21344587Y-15580008D02*
X21363634Y-15570484D01*
X21516015Y-15751436D02*
X21525539Y-15760960D01*
X21525539Y-15760960D02*
X21516015Y-15770484D01*
X21516015Y-15770484D02*
X21506491Y-15760960D01*
X21506491Y-15760960D02*
X21516015Y-15751436D01*
X21516015Y-15751436D02*
X21516015Y-15770484D01*
X21649348Y-15570484D02*
X21668396Y-15570484D01*
X21668396Y-15570484D02*
X21687444Y-15580008D01*
X21687444Y-15580008D02*
X21696968Y-15589531D01*
X21696968Y-15589531D02*
X21706491Y-15608579D01*
X21706491Y-15608579D02*
X21716015Y-15646674D01*
X21716015Y-15646674D02*
X21716015Y-15694293D01*
X21716015Y-15694293D02*
X21706491Y-15732388D01*
X21706491Y-15732388D02*
X21696968Y-15751436D01*
X21696968Y-15751436D02*
X21687444Y-15760960D01*
X21687444Y-15760960D02*
X21668396Y-15770484D01*
X21668396Y-15770484D02*
X21649348Y-15770484D01*
X21649348Y-15770484D02*
X21630301Y-15760960D01*
X21630301Y-15760960D02*
X21620777Y-15751436D01*
X21620777Y-15751436D02*
X21611253Y-15732388D01*
X21611253Y-15732388D02*
X21601729Y-15694293D01*
X21601729Y-15694293D02*
X21601729Y-15646674D01*
X21601729Y-15646674D02*
X21611253Y-15608579D01*
X21611253Y-15608579D02*
X21620777Y-15589531D01*
X21620777Y-15589531D02*
X21630301Y-15580008D01*
X21630301Y-15580008D02*
X21649348Y-15570484D01*
X21782682Y-15570484D02*
X21906491Y-15570484D01*
X21906491Y-15570484D02*
X21839825Y-15646674D01*
X21839825Y-15646674D02*
X21868396Y-15646674D01*
X21868396Y-15646674D02*
X21887444Y-15656198D01*
X21887444Y-15656198D02*
X21896968Y-15665722D01*
X21896968Y-15665722D02*
X21906491Y-15684769D01*
X21906491Y-15684769D02*
X21906491Y-15732388D01*
X21906491Y-15732388D02*
X21896968Y-15751436D01*
X21896968Y-15751436D02*
X21887444Y-15760960D01*
X21887444Y-15760960D02*
X21868396Y-15770484D01*
X21868396Y-15770484D02*
X21811253Y-15770484D01*
X21811253Y-15770484D02*
X21792206Y-15760960D01*
X21792206Y-15760960D02*
X21782682Y-15751436D01*
X21973158Y-15570484D02*
X22096968Y-15570484D01*
X22096968Y-15570484D02*
X22030301Y-15646674D01*
X22030301Y-15646674D02*
X22058872Y-15646674D01*
X22058872Y-15646674D02*
X22077920Y-15656198D01*
X22077920Y-15656198D02*
X22087444Y-15665722D01*
X22087444Y-15665722D02*
X22096968Y-15684769D01*
X22096968Y-15684769D02*
X22096968Y-15732388D01*
X22096968Y-15732388D02*
X22087444Y-15751436D01*
X22087444Y-15751436D02*
X22077920Y-15760960D01*
X22077920Y-15760960D02*
X22058872Y-15770484D01*
X22058872Y-15770484D02*
X22001729Y-15770484D01*
X22001729Y-15770484D02*
X21982682Y-15760960D01*
X21982682Y-15760960D02*
X21973158Y-15751436D01*
X22277920Y-15570484D02*
X22182682Y-15570484D01*
X22182682Y-15570484D02*
X22173158Y-15665722D01*
X22173158Y-15665722D02*
X22182682Y-15656198D01*
X22182682Y-15656198D02*
X22201729Y-15646674D01*
X22201729Y-15646674D02*
X22249349Y-15646674D01*
X22249349Y-15646674D02*
X22268396Y-15656198D01*
X22268396Y-15656198D02*
X22277920Y-15665722D01*
X22277920Y-15665722D02*
X22287444Y-15684769D01*
X22287444Y-15684769D02*
X22287444Y-15732388D01*
X22287444Y-15732388D02*
X22277920Y-15751436D01*
X22277920Y-15751436D02*
X22268396Y-15760960D01*
X22268396Y-15760960D02*
X22249349Y-15770484D01*
X22249349Y-15770484D02*
X22201729Y-15770484D01*
X22201729Y-15770484D02*
X22182682Y-15760960D01*
X22182682Y-15760960D02*
X22173158Y-15751436D01*
X22363634Y-15570484D02*
X22363634Y-15608579D01*
X22439825Y-15570484D02*
X22439825Y-15608579D01*
X22735063Y-15846674D02*
X22725539Y-15837150D01*
X22725539Y-15837150D02*
X22706491Y-15808579D01*
X22706491Y-15808579D02*
X22696968Y-15789531D01*
X22696968Y-15789531D02*
X22687444Y-15760960D01*
X22687444Y-15760960D02*
X22677920Y-15713341D01*
X22677920Y-15713341D02*
X22677920Y-15675246D01*
X22677920Y-15675246D02*
X22687444Y-15627627D01*
X22687444Y-15627627D02*
X22696968Y-15599055D01*
X22696968Y-15599055D02*
X22706491Y-15580008D01*
X22706491Y-15580008D02*
X22725539Y-15551436D01*
X22725539Y-15551436D02*
X22735063Y-15541912D01*
X22801729Y-15589531D02*
X22811253Y-15580008D01*
X22811253Y-15580008D02*
X22830301Y-15570484D01*
X22830301Y-15570484D02*
X22877920Y-15570484D01*
X22877920Y-15570484D02*
X22896968Y-15580008D01*
X22896968Y-15580008D02*
X22906491Y-15589531D01*
X22906491Y-15589531D02*
X22916015Y-15608579D01*
X22916015Y-15608579D02*
X22916015Y-15627627D01*
X22916015Y-15627627D02*
X22906491Y-15656198D01*
X22906491Y-15656198D02*
X22792206Y-15770484D01*
X22792206Y-15770484D02*
X22916015Y-15770484D01*
X23154110Y-15770484D02*
X23154110Y-15570484D01*
X23239825Y-15770484D02*
X23239825Y-15665722D01*
X23239825Y-15665722D02*
X23230301Y-15646674D01*
X23230301Y-15646674D02*
X23211253Y-15637150D01*
X23211253Y-15637150D02*
X23182682Y-15637150D01*
X23182682Y-15637150D02*
X23163634Y-15646674D01*
X23163634Y-15646674D02*
X23154110Y-15656198D01*
X23363634Y-15770484D02*
X23344587Y-15760960D01*
X23344587Y-15760960D02*
X23335063Y-15751436D01*
X23335063Y-15751436D02*
X23325539Y-15732388D01*
X23325539Y-15732388D02*
X23325539Y-15675246D01*
X23325539Y-15675246D02*
X23335063Y-15656198D01*
X23335063Y-15656198D02*
X23344587Y-15646674D01*
X23344587Y-15646674D02*
X23363634Y-15637150D01*
X23363634Y-15637150D02*
X23392206Y-15637150D01*
X23392206Y-15637150D02*
X23411253Y-15646674D01*
X23411253Y-15646674D02*
X23420777Y-15656198D01*
X23420777Y-15656198D02*
X23430301Y-15675246D01*
X23430301Y-15675246D02*
X23430301Y-15732388D01*
X23430301Y-15732388D02*
X23420777Y-15751436D01*
X23420777Y-15751436D02*
X23411253Y-15760960D01*
X23411253Y-15760960D02*
X23392206Y-15770484D01*
X23392206Y-15770484D02*
X23363634Y-15770484D01*
X23544587Y-15770484D02*
X23525539Y-15760960D01*
X23525539Y-15760960D02*
X23516015Y-15741912D01*
X23516015Y-15741912D02*
X23516015Y-15570484D01*
X23696968Y-15760960D02*
X23677920Y-15770484D01*
X23677920Y-15770484D02*
X23639825Y-15770484D01*
X23639825Y-15770484D02*
X23620777Y-15760960D01*
X23620777Y-15760960D02*
X23611253Y-15741912D01*
X23611253Y-15741912D02*
X23611253Y-15665722D01*
X23611253Y-15665722D02*
X23620777Y-15646674D01*
X23620777Y-15646674D02*
X23639825Y-15637150D01*
X23639825Y-15637150D02*
X23677920Y-15637150D01*
X23677920Y-15637150D02*
X23696968Y-15646674D01*
X23696968Y-15646674D02*
X23706491Y-15665722D01*
X23706491Y-15665722D02*
X23706491Y-15684769D01*
X23706491Y-15684769D02*
X23611253Y-15703817D01*
X23782682Y-15760960D02*
X23801730Y-15770484D01*
X23801730Y-15770484D02*
X23839825Y-15770484D01*
X23839825Y-15770484D02*
X23858872Y-15760960D01*
X23858872Y-15760960D02*
X23868396Y-15741912D01*
X23868396Y-15741912D02*
X23868396Y-15732388D01*
X23868396Y-15732388D02*
X23858872Y-15713341D01*
X23858872Y-15713341D02*
X23839825Y-15703817D01*
X23839825Y-15703817D02*
X23811253Y-15703817D01*
X23811253Y-15703817D02*
X23792206Y-15694293D01*
X23792206Y-15694293D02*
X23782682Y-15675246D01*
X23782682Y-15675246D02*
X23782682Y-15665722D01*
X23782682Y-15665722D02*
X23792206Y-15646674D01*
X23792206Y-15646674D02*
X23811253Y-15637150D01*
X23811253Y-15637150D02*
X23839825Y-15637150D01*
X23839825Y-15637150D02*
X23858872Y-15646674D01*
X23935063Y-15846674D02*
X23944587Y-15837150D01*
X23944587Y-15837150D02*
X23963634Y-15808579D01*
X23963634Y-15808579D02*
X23973158Y-15789531D01*
X23973158Y-15789531D02*
X23982682Y-15760960D01*
X23982682Y-15760960D02*
X23992206Y-15713341D01*
X23992206Y-15713341D02*
X23992206Y-15675246D01*
X23992206Y-15675246D02*
X23982682Y-15627627D01*
X23982682Y-15627627D02*
X23973158Y-15599055D01*
X23973158Y-15599055D02*
X23963634Y-15580008D01*
X23963634Y-15580008D02*
X23944587Y-15551436D01*
X23944587Y-15551436D02*
X23935063Y-15541912D01*
D19*
X19070000Y-15898000D02*
X19160000Y-15988000D01*
X19160000Y-15898000D02*
X19070000Y-15988000D01*
X19146820Y-15974820D02*
X19146820Y-15911180D01*
X19083180Y-15911180D01*
X19083180Y-15974820D01*
X19146820Y-15974820D01*
D10*
X19458872Y-15834484D02*
X19477920Y-15834484D01*
X19477920Y-15834484D02*
X19496967Y-15844008D01*
X19496967Y-15844008D02*
X19506491Y-15853531D01*
X19506491Y-15853531D02*
X19516015Y-15872579D01*
X19516015Y-15872579D02*
X19525539Y-15910674D01*
X19525539Y-15910674D02*
X19525539Y-15958293D01*
X19525539Y-15958293D02*
X19516015Y-15996388D01*
X19516015Y-15996388D02*
X19506491Y-16015436D01*
X19506491Y-16015436D02*
X19496967Y-16024960D01*
X19496967Y-16024960D02*
X19477920Y-16034484D01*
X19477920Y-16034484D02*
X19458872Y-16034484D01*
X19458872Y-16034484D02*
X19439824Y-16024960D01*
X19439824Y-16024960D02*
X19430301Y-16015436D01*
X19430301Y-16015436D02*
X19420777Y-15996388D01*
X19420777Y-15996388D02*
X19411253Y-15958293D01*
X19411253Y-15958293D02*
X19411253Y-15910674D01*
X19411253Y-15910674D02*
X19420777Y-15872579D01*
X19420777Y-15872579D02*
X19430301Y-15853531D01*
X19430301Y-15853531D02*
X19439824Y-15844008D01*
X19439824Y-15844008D02*
X19458872Y-15834484D01*
X19611253Y-16015436D02*
X19620777Y-16024960D01*
X19620777Y-16024960D02*
X19611253Y-16034484D01*
X19611253Y-16034484D02*
X19601729Y-16024960D01*
X19601729Y-16024960D02*
X19611253Y-16015436D01*
X19611253Y-16015436D02*
X19611253Y-16034484D01*
X19716015Y-16034484D02*
X19754110Y-16034484D01*
X19754110Y-16034484D02*
X19773158Y-16024960D01*
X19773158Y-16024960D02*
X19782682Y-16015436D01*
X19782682Y-16015436D02*
X19801729Y-15986865D01*
X19801729Y-15986865D02*
X19811253Y-15948769D01*
X19811253Y-15948769D02*
X19811253Y-15872579D01*
X19811253Y-15872579D02*
X19801729Y-15853531D01*
X19801729Y-15853531D02*
X19792205Y-15844008D01*
X19792205Y-15844008D02*
X19773158Y-15834484D01*
X19773158Y-15834484D02*
X19735063Y-15834484D01*
X19735063Y-15834484D02*
X19716015Y-15844008D01*
X19716015Y-15844008D02*
X19706491Y-15853531D01*
X19706491Y-15853531D02*
X19696967Y-15872579D01*
X19696967Y-15872579D02*
X19696967Y-15920198D01*
X19696967Y-15920198D02*
X19706491Y-15939246D01*
X19706491Y-15939246D02*
X19716015Y-15948769D01*
X19716015Y-15948769D02*
X19735063Y-15958293D01*
X19735063Y-15958293D02*
X19773158Y-15958293D01*
X19773158Y-15958293D02*
X19792205Y-15948769D01*
X19792205Y-15948769D02*
X19801729Y-15939246D01*
X19801729Y-15939246D02*
X19811253Y-15920198D01*
X19935063Y-15834484D02*
X19954110Y-15834484D01*
X19954110Y-15834484D02*
X19973158Y-15844008D01*
X19973158Y-15844008D02*
X19982682Y-15853531D01*
X19982682Y-15853531D02*
X19992205Y-15872579D01*
X19992205Y-15872579D02*
X20001729Y-15910674D01*
X20001729Y-15910674D02*
X20001729Y-15958293D01*
X20001729Y-15958293D02*
X19992205Y-15996388D01*
X19992205Y-15996388D02*
X19982682Y-16015436D01*
X19982682Y-16015436D02*
X19973158Y-16024960D01*
X19973158Y-16024960D02*
X19954110Y-16034484D01*
X19954110Y-16034484D02*
X19935063Y-16034484D01*
X19935063Y-16034484D02*
X19916015Y-16024960D01*
X19916015Y-16024960D02*
X19906491Y-16015436D01*
X19906491Y-16015436D02*
X19896967Y-15996388D01*
X19896967Y-15996388D02*
X19887444Y-15958293D01*
X19887444Y-15958293D02*
X19887444Y-15910674D01*
X19887444Y-15910674D02*
X19896967Y-15872579D01*
X19896967Y-15872579D02*
X19906491Y-15853531D01*
X19906491Y-15853531D02*
X19916015Y-15844008D01*
X19916015Y-15844008D02*
X19935063Y-15834484D01*
X20125539Y-15834484D02*
X20144586Y-15834484D01*
X20144586Y-15834484D02*
X20163634Y-15844008D01*
X20163634Y-15844008D02*
X20173158Y-15853531D01*
X20173158Y-15853531D02*
X20182682Y-15872579D01*
X20182682Y-15872579D02*
X20192205Y-15910674D01*
X20192205Y-15910674D02*
X20192205Y-15958293D01*
X20192205Y-15958293D02*
X20182682Y-15996388D01*
X20182682Y-15996388D02*
X20173158Y-16015436D01*
X20173158Y-16015436D02*
X20163634Y-16024960D01*
X20163634Y-16024960D02*
X20144586Y-16034484D01*
X20144586Y-16034484D02*
X20125539Y-16034484D01*
X20125539Y-16034484D02*
X20106491Y-16024960D01*
X20106491Y-16024960D02*
X20096967Y-16015436D01*
X20096967Y-16015436D02*
X20087444Y-15996388D01*
X20087444Y-15996388D02*
X20077920Y-15958293D01*
X20077920Y-15958293D02*
X20077920Y-15910674D01*
X20077920Y-15910674D02*
X20087444Y-15872579D01*
X20087444Y-15872579D02*
X20096967Y-15853531D01*
X20096967Y-15853531D02*
X20106491Y-15844008D01*
X20106491Y-15844008D02*
X20125539Y-15834484D01*
X20277920Y-16034484D02*
X20277920Y-15901150D01*
X20277920Y-15920198D02*
X20287444Y-15910674D01*
X20287444Y-15910674D02*
X20306491Y-15901150D01*
X20306491Y-15901150D02*
X20335063Y-15901150D01*
X20335063Y-15901150D02*
X20354110Y-15910674D01*
X20354110Y-15910674D02*
X20363634Y-15929722D01*
X20363634Y-15929722D02*
X20363634Y-16034484D01*
X20363634Y-15929722D02*
X20373158Y-15910674D01*
X20373158Y-15910674D02*
X20392205Y-15901150D01*
X20392205Y-15901150D02*
X20420777Y-15901150D01*
X20420777Y-15901150D02*
X20439825Y-15910674D01*
X20439825Y-15910674D02*
X20449348Y-15929722D01*
X20449348Y-15929722D02*
X20449348Y-16034484D01*
X20544586Y-16034484D02*
X20544586Y-15901150D01*
X20544586Y-15920198D02*
X20554110Y-15910674D01*
X20554110Y-15910674D02*
X20573158Y-15901150D01*
X20573158Y-15901150D02*
X20601729Y-15901150D01*
X20601729Y-15901150D02*
X20620777Y-15910674D01*
X20620777Y-15910674D02*
X20630301Y-15929722D01*
X20630301Y-15929722D02*
X20630301Y-16034484D01*
X20630301Y-15929722D02*
X20639825Y-15910674D01*
X20639825Y-15910674D02*
X20658872Y-15901150D01*
X20658872Y-15901150D02*
X20687444Y-15901150D01*
X20687444Y-15901150D02*
X20706491Y-15910674D01*
X20706491Y-15910674D02*
X20716015Y-15929722D01*
X20716015Y-15929722D02*
X20716015Y-16034484D01*
X21106491Y-15824960D02*
X20935063Y-16082103D01*
X21363634Y-15834484D02*
X21382682Y-15834484D01*
X21382682Y-15834484D02*
X21401729Y-15844008D01*
X21401729Y-15844008D02*
X21411253Y-15853531D01*
X21411253Y-15853531D02*
X21420777Y-15872579D01*
X21420777Y-15872579D02*
X21430301Y-15910674D01*
X21430301Y-15910674D02*
X21430301Y-15958293D01*
X21430301Y-15958293D02*
X21420777Y-15996388D01*
X21420777Y-15996388D02*
X21411253Y-16015436D01*
X21411253Y-16015436D02*
X21401729Y-16024960D01*
X21401729Y-16024960D02*
X21382682Y-16034484D01*
X21382682Y-16034484D02*
X21363634Y-16034484D01*
X21363634Y-16034484D02*
X21344587Y-16024960D01*
X21344587Y-16024960D02*
X21335063Y-16015436D01*
X21335063Y-16015436D02*
X21325539Y-15996388D01*
X21325539Y-15996388D02*
X21316015Y-15958293D01*
X21316015Y-15958293D02*
X21316015Y-15910674D01*
X21316015Y-15910674D02*
X21325539Y-15872579D01*
X21325539Y-15872579D02*
X21335063Y-15853531D01*
X21335063Y-15853531D02*
X21344587Y-15844008D01*
X21344587Y-15844008D02*
X21363634Y-15834484D01*
X21516015Y-16015436D02*
X21525539Y-16024960D01*
X21525539Y-16024960D02*
X21516015Y-16034484D01*
X21516015Y-16034484D02*
X21506491Y-16024960D01*
X21506491Y-16024960D02*
X21516015Y-16015436D01*
X21516015Y-16015436D02*
X21516015Y-16034484D01*
X21649348Y-15834484D02*
X21668396Y-15834484D01*
X21668396Y-15834484D02*
X21687444Y-15844008D01*
X21687444Y-15844008D02*
X21696968Y-15853531D01*
X21696968Y-15853531D02*
X21706491Y-15872579D01*
X21706491Y-15872579D02*
X21716015Y-15910674D01*
X21716015Y-15910674D02*
X21716015Y-15958293D01*
X21716015Y-15958293D02*
X21706491Y-15996388D01*
X21706491Y-15996388D02*
X21696968Y-16015436D01*
X21696968Y-16015436D02*
X21687444Y-16024960D01*
X21687444Y-16024960D02*
X21668396Y-16034484D01*
X21668396Y-16034484D02*
X21649348Y-16034484D01*
X21649348Y-16034484D02*
X21630301Y-16024960D01*
X21630301Y-16024960D02*
X21620777Y-16015436D01*
X21620777Y-16015436D02*
X21611253Y-15996388D01*
X21611253Y-15996388D02*
X21601729Y-15958293D01*
X21601729Y-15958293D02*
X21601729Y-15910674D01*
X21601729Y-15910674D02*
X21611253Y-15872579D01*
X21611253Y-15872579D02*
X21620777Y-15853531D01*
X21620777Y-15853531D02*
X21630301Y-15844008D01*
X21630301Y-15844008D02*
X21649348Y-15834484D01*
X21782682Y-15834484D02*
X21906491Y-15834484D01*
X21906491Y-15834484D02*
X21839825Y-15910674D01*
X21839825Y-15910674D02*
X21868396Y-15910674D01*
X21868396Y-15910674D02*
X21887444Y-15920198D01*
X21887444Y-15920198D02*
X21896968Y-15929722D01*
X21896968Y-15929722D02*
X21906491Y-15948769D01*
X21906491Y-15948769D02*
X21906491Y-15996388D01*
X21906491Y-15996388D02*
X21896968Y-16015436D01*
X21896968Y-16015436D02*
X21887444Y-16024960D01*
X21887444Y-16024960D02*
X21868396Y-16034484D01*
X21868396Y-16034484D02*
X21811253Y-16034484D01*
X21811253Y-16034484D02*
X21792206Y-16024960D01*
X21792206Y-16024960D02*
X21782682Y-16015436D01*
X22087444Y-15834484D02*
X21992206Y-15834484D01*
X21992206Y-15834484D02*
X21982682Y-15929722D01*
X21982682Y-15929722D02*
X21992206Y-15920198D01*
X21992206Y-15920198D02*
X22011253Y-15910674D01*
X22011253Y-15910674D02*
X22058872Y-15910674D01*
X22058872Y-15910674D02*
X22077920Y-15920198D01*
X22077920Y-15920198D02*
X22087444Y-15929722D01*
X22087444Y-15929722D02*
X22096968Y-15948769D01*
X22096968Y-15948769D02*
X22096968Y-15996388D01*
X22096968Y-15996388D02*
X22087444Y-16015436D01*
X22087444Y-16015436D02*
X22077920Y-16024960D01*
X22077920Y-16024960D02*
X22058872Y-16034484D01*
X22058872Y-16034484D02*
X22011253Y-16034484D01*
X22011253Y-16034484D02*
X21992206Y-16024960D01*
X21992206Y-16024960D02*
X21982682Y-16015436D01*
X22268396Y-15901150D02*
X22268396Y-16034484D01*
X22220777Y-15824960D02*
X22173158Y-15967817D01*
X22173158Y-15967817D02*
X22296968Y-15967817D01*
X22363634Y-15834484D02*
X22363634Y-15872579D01*
X22439825Y-15834484D02*
X22439825Y-15872579D01*
X22735063Y-16110674D02*
X22725539Y-16101150D01*
X22725539Y-16101150D02*
X22706491Y-16072579D01*
X22706491Y-16072579D02*
X22696968Y-16053531D01*
X22696968Y-16053531D02*
X22687444Y-16024960D01*
X22687444Y-16024960D02*
X22677920Y-15977341D01*
X22677920Y-15977341D02*
X22677920Y-15939246D01*
X22677920Y-15939246D02*
X22687444Y-15891627D01*
X22687444Y-15891627D02*
X22696968Y-15863055D01*
X22696968Y-15863055D02*
X22706491Y-15844008D01*
X22706491Y-15844008D02*
X22725539Y-15815436D01*
X22725539Y-15815436D02*
X22735063Y-15805912D01*
X22792206Y-15834484D02*
X22916015Y-15834484D01*
X22916015Y-15834484D02*
X22849348Y-15910674D01*
X22849348Y-15910674D02*
X22877920Y-15910674D01*
X22877920Y-15910674D02*
X22896968Y-15920198D01*
X22896968Y-15920198D02*
X22906491Y-15929722D01*
X22906491Y-15929722D02*
X22916015Y-15948769D01*
X22916015Y-15948769D02*
X22916015Y-15996388D01*
X22916015Y-15996388D02*
X22906491Y-16015436D01*
X22906491Y-16015436D02*
X22896968Y-16024960D01*
X22896968Y-16024960D02*
X22877920Y-16034484D01*
X22877920Y-16034484D02*
X22820777Y-16034484D01*
X22820777Y-16034484D02*
X22801729Y-16024960D01*
X22801729Y-16024960D02*
X22792206Y-16015436D01*
X23154110Y-16034484D02*
X23154110Y-15834484D01*
X23239825Y-16034484D02*
X23239825Y-15929722D01*
X23239825Y-15929722D02*
X23230301Y-15910674D01*
X23230301Y-15910674D02*
X23211253Y-15901150D01*
X23211253Y-15901150D02*
X23182682Y-15901150D01*
X23182682Y-15901150D02*
X23163634Y-15910674D01*
X23163634Y-15910674D02*
X23154110Y-15920198D01*
X23363634Y-16034484D02*
X23344587Y-16024960D01*
X23344587Y-16024960D02*
X23335063Y-16015436D01*
X23335063Y-16015436D02*
X23325539Y-15996388D01*
X23325539Y-15996388D02*
X23325539Y-15939246D01*
X23325539Y-15939246D02*
X23335063Y-15920198D01*
X23335063Y-15920198D02*
X23344587Y-15910674D01*
X23344587Y-15910674D02*
X23363634Y-15901150D01*
X23363634Y-15901150D02*
X23392206Y-15901150D01*
X23392206Y-15901150D02*
X23411253Y-15910674D01*
X23411253Y-15910674D02*
X23420777Y-15920198D01*
X23420777Y-15920198D02*
X23430301Y-15939246D01*
X23430301Y-15939246D02*
X23430301Y-15996388D01*
X23430301Y-15996388D02*
X23420777Y-16015436D01*
X23420777Y-16015436D02*
X23411253Y-16024960D01*
X23411253Y-16024960D02*
X23392206Y-16034484D01*
X23392206Y-16034484D02*
X23363634Y-16034484D01*
X23544587Y-16034484D02*
X23525539Y-16024960D01*
X23525539Y-16024960D02*
X23516015Y-16005912D01*
X23516015Y-16005912D02*
X23516015Y-15834484D01*
X23696968Y-16024960D02*
X23677920Y-16034484D01*
X23677920Y-16034484D02*
X23639825Y-16034484D01*
X23639825Y-16034484D02*
X23620777Y-16024960D01*
X23620777Y-16024960D02*
X23611253Y-16005912D01*
X23611253Y-16005912D02*
X23611253Y-15929722D01*
X23611253Y-15929722D02*
X23620777Y-15910674D01*
X23620777Y-15910674D02*
X23639825Y-15901150D01*
X23639825Y-15901150D02*
X23677920Y-15901150D01*
X23677920Y-15901150D02*
X23696968Y-15910674D01*
X23696968Y-15910674D02*
X23706491Y-15929722D01*
X23706491Y-15929722D02*
X23706491Y-15948769D01*
X23706491Y-15948769D02*
X23611253Y-15967817D01*
X23782682Y-16024960D02*
X23801730Y-16034484D01*
X23801730Y-16034484D02*
X23839825Y-16034484D01*
X23839825Y-16034484D02*
X23858872Y-16024960D01*
X23858872Y-16024960D02*
X23868396Y-16005912D01*
X23868396Y-16005912D02*
X23868396Y-15996388D01*
X23868396Y-15996388D02*
X23858872Y-15977341D01*
X23858872Y-15977341D02*
X23839825Y-15967817D01*
X23839825Y-15967817D02*
X23811253Y-15967817D01*
X23811253Y-15967817D02*
X23792206Y-15958293D01*
X23792206Y-15958293D02*
X23782682Y-15939246D01*
X23782682Y-15939246D02*
X23782682Y-15929722D01*
X23782682Y-15929722D02*
X23792206Y-15910674D01*
X23792206Y-15910674D02*
X23811253Y-15901150D01*
X23811253Y-15901150D02*
X23839825Y-15901150D01*
X23839825Y-15901150D02*
X23858872Y-15910674D01*
X23935063Y-16110674D02*
X23944587Y-16101150D01*
X23944587Y-16101150D02*
X23963634Y-16072579D01*
X23963634Y-16072579D02*
X23973158Y-16053531D01*
X23973158Y-16053531D02*
X23982682Y-16024960D01*
X23982682Y-16024960D02*
X23992206Y-15977341D01*
X23992206Y-15977341D02*
X23992206Y-15939246D01*
X23992206Y-15939246D02*
X23982682Y-15891627D01*
X23982682Y-15891627D02*
X23973158Y-15863055D01*
X23973158Y-15863055D02*
X23963634Y-15844008D01*
X23963634Y-15844008D02*
X23944587Y-15815436D01*
X23944587Y-15815436D02*
X23935063Y-15805912D01*
D11*
X19060000Y-16157000D02*
X19160000Y-16257000D01*
X19160000Y-16157000D02*
X19060000Y-16257000D01*
X19110000Y-16257000D02*
X19160000Y-16207000D01*
X19110000Y-16157000D01*
X19060000Y-16207000D01*
X19110000Y-16257000D01*
D10*
X19525539Y-16298484D02*
X19411253Y-16298484D01*
X19468396Y-16298484D02*
X19468396Y-16098484D01*
X19468396Y-16098484D02*
X19449348Y-16127055D01*
X19449348Y-16127055D02*
X19430301Y-16146103D01*
X19430301Y-16146103D02*
X19411253Y-16155627D01*
X19611253Y-16279436D02*
X19620777Y-16288960D01*
X19620777Y-16288960D02*
X19611253Y-16298484D01*
X19611253Y-16298484D02*
X19601729Y-16288960D01*
X19601729Y-16288960D02*
X19611253Y-16279436D01*
X19611253Y-16279436D02*
X19611253Y-16298484D01*
X19744586Y-16098484D02*
X19763634Y-16098484D01*
X19763634Y-16098484D02*
X19782682Y-16108008D01*
X19782682Y-16108008D02*
X19792205Y-16117531D01*
X19792205Y-16117531D02*
X19801729Y-16136579D01*
X19801729Y-16136579D02*
X19811253Y-16174674D01*
X19811253Y-16174674D02*
X19811253Y-16222293D01*
X19811253Y-16222293D02*
X19801729Y-16260388D01*
X19801729Y-16260388D02*
X19792205Y-16279436D01*
X19792205Y-16279436D02*
X19782682Y-16288960D01*
X19782682Y-16288960D02*
X19763634Y-16298484D01*
X19763634Y-16298484D02*
X19744586Y-16298484D01*
X19744586Y-16298484D02*
X19725539Y-16288960D01*
X19725539Y-16288960D02*
X19716015Y-16279436D01*
X19716015Y-16279436D02*
X19706491Y-16260388D01*
X19706491Y-16260388D02*
X19696967Y-16222293D01*
X19696967Y-16222293D02*
X19696967Y-16174674D01*
X19696967Y-16174674D02*
X19706491Y-16136579D01*
X19706491Y-16136579D02*
X19716015Y-16117531D01*
X19716015Y-16117531D02*
X19725539Y-16108008D01*
X19725539Y-16108008D02*
X19744586Y-16098484D01*
X19935063Y-16098484D02*
X19954110Y-16098484D01*
X19954110Y-16098484D02*
X19973158Y-16108008D01*
X19973158Y-16108008D02*
X19982682Y-16117531D01*
X19982682Y-16117531D02*
X19992205Y-16136579D01*
X19992205Y-16136579D02*
X20001729Y-16174674D01*
X20001729Y-16174674D02*
X20001729Y-16222293D01*
X20001729Y-16222293D02*
X19992205Y-16260388D01*
X19992205Y-16260388D02*
X19982682Y-16279436D01*
X19982682Y-16279436D02*
X19973158Y-16288960D01*
X19973158Y-16288960D02*
X19954110Y-16298484D01*
X19954110Y-16298484D02*
X19935063Y-16298484D01*
X19935063Y-16298484D02*
X19916015Y-16288960D01*
X19916015Y-16288960D02*
X19906491Y-16279436D01*
X19906491Y-16279436D02*
X19896967Y-16260388D01*
X19896967Y-16260388D02*
X19887444Y-16222293D01*
X19887444Y-16222293D02*
X19887444Y-16174674D01*
X19887444Y-16174674D02*
X19896967Y-16136579D01*
X19896967Y-16136579D02*
X19906491Y-16117531D01*
X19906491Y-16117531D02*
X19916015Y-16108008D01*
X19916015Y-16108008D02*
X19935063Y-16098484D01*
X20125539Y-16098484D02*
X20144586Y-16098484D01*
X20144586Y-16098484D02*
X20163634Y-16108008D01*
X20163634Y-16108008D02*
X20173158Y-16117531D01*
X20173158Y-16117531D02*
X20182682Y-16136579D01*
X20182682Y-16136579D02*
X20192205Y-16174674D01*
X20192205Y-16174674D02*
X20192205Y-16222293D01*
X20192205Y-16222293D02*
X20182682Y-16260388D01*
X20182682Y-16260388D02*
X20173158Y-16279436D01*
X20173158Y-16279436D02*
X20163634Y-16288960D01*
X20163634Y-16288960D02*
X20144586Y-16298484D01*
X20144586Y-16298484D02*
X20125539Y-16298484D01*
X20125539Y-16298484D02*
X20106491Y-16288960D01*
X20106491Y-16288960D02*
X20096967Y-16279436D01*
X20096967Y-16279436D02*
X20087444Y-16260388D01*
X20087444Y-16260388D02*
X20077920Y-16222293D01*
X20077920Y-16222293D02*
X20077920Y-16174674D01*
X20077920Y-16174674D02*
X20087444Y-16136579D01*
X20087444Y-16136579D02*
X20096967Y-16117531D01*
X20096967Y-16117531D02*
X20106491Y-16108008D01*
X20106491Y-16108008D02*
X20125539Y-16098484D01*
X20277920Y-16298484D02*
X20277920Y-16165150D01*
X20277920Y-16184198D02*
X20287444Y-16174674D01*
X20287444Y-16174674D02*
X20306491Y-16165150D01*
X20306491Y-16165150D02*
X20335063Y-16165150D01*
X20335063Y-16165150D02*
X20354110Y-16174674D01*
X20354110Y-16174674D02*
X20363634Y-16193722D01*
X20363634Y-16193722D02*
X20363634Y-16298484D01*
X20363634Y-16193722D02*
X20373158Y-16174674D01*
X20373158Y-16174674D02*
X20392205Y-16165150D01*
X20392205Y-16165150D02*
X20420777Y-16165150D01*
X20420777Y-16165150D02*
X20439825Y-16174674D01*
X20439825Y-16174674D02*
X20449348Y-16193722D01*
X20449348Y-16193722D02*
X20449348Y-16298484D01*
X20544586Y-16298484D02*
X20544586Y-16165150D01*
X20544586Y-16184198D02*
X20554110Y-16174674D01*
X20554110Y-16174674D02*
X20573158Y-16165150D01*
X20573158Y-16165150D02*
X20601729Y-16165150D01*
X20601729Y-16165150D02*
X20620777Y-16174674D01*
X20620777Y-16174674D02*
X20630301Y-16193722D01*
X20630301Y-16193722D02*
X20630301Y-16298484D01*
X20630301Y-16193722D02*
X20639825Y-16174674D01*
X20639825Y-16174674D02*
X20658872Y-16165150D01*
X20658872Y-16165150D02*
X20687444Y-16165150D01*
X20687444Y-16165150D02*
X20706491Y-16174674D01*
X20706491Y-16174674D02*
X20716015Y-16193722D01*
X20716015Y-16193722D02*
X20716015Y-16298484D01*
X21106491Y-16088960D02*
X20935063Y-16346103D01*
X21363634Y-16098484D02*
X21382682Y-16098484D01*
X21382682Y-16098484D02*
X21401729Y-16108008D01*
X21401729Y-16108008D02*
X21411253Y-16117531D01*
X21411253Y-16117531D02*
X21420777Y-16136579D01*
X21420777Y-16136579D02*
X21430301Y-16174674D01*
X21430301Y-16174674D02*
X21430301Y-16222293D01*
X21430301Y-16222293D02*
X21420777Y-16260388D01*
X21420777Y-16260388D02*
X21411253Y-16279436D01*
X21411253Y-16279436D02*
X21401729Y-16288960D01*
X21401729Y-16288960D02*
X21382682Y-16298484D01*
X21382682Y-16298484D02*
X21363634Y-16298484D01*
X21363634Y-16298484D02*
X21344587Y-16288960D01*
X21344587Y-16288960D02*
X21335063Y-16279436D01*
X21335063Y-16279436D02*
X21325539Y-16260388D01*
X21325539Y-16260388D02*
X21316015Y-16222293D01*
X21316015Y-16222293D02*
X21316015Y-16174674D01*
X21316015Y-16174674D02*
X21325539Y-16136579D01*
X21325539Y-16136579D02*
X21335063Y-16117531D01*
X21335063Y-16117531D02*
X21344587Y-16108008D01*
X21344587Y-16108008D02*
X21363634Y-16098484D01*
X21516015Y-16279436D02*
X21525539Y-16288960D01*
X21525539Y-16288960D02*
X21516015Y-16298484D01*
X21516015Y-16298484D02*
X21506491Y-16288960D01*
X21506491Y-16288960D02*
X21516015Y-16279436D01*
X21516015Y-16279436D02*
X21516015Y-16298484D01*
X21649348Y-16098484D02*
X21668396Y-16098484D01*
X21668396Y-16098484D02*
X21687444Y-16108008D01*
X21687444Y-16108008D02*
X21696968Y-16117531D01*
X21696968Y-16117531D02*
X21706491Y-16136579D01*
X21706491Y-16136579D02*
X21716015Y-16174674D01*
X21716015Y-16174674D02*
X21716015Y-16222293D01*
X21716015Y-16222293D02*
X21706491Y-16260388D01*
X21706491Y-16260388D02*
X21696968Y-16279436D01*
X21696968Y-16279436D02*
X21687444Y-16288960D01*
X21687444Y-16288960D02*
X21668396Y-16298484D01*
X21668396Y-16298484D02*
X21649348Y-16298484D01*
X21649348Y-16298484D02*
X21630301Y-16288960D01*
X21630301Y-16288960D02*
X21620777Y-16279436D01*
X21620777Y-16279436D02*
X21611253Y-16260388D01*
X21611253Y-16260388D02*
X21601729Y-16222293D01*
X21601729Y-16222293D02*
X21601729Y-16174674D01*
X21601729Y-16174674D02*
X21611253Y-16136579D01*
X21611253Y-16136579D02*
X21620777Y-16117531D01*
X21620777Y-16117531D02*
X21630301Y-16108008D01*
X21630301Y-16108008D02*
X21649348Y-16098484D01*
X21782682Y-16098484D02*
X21906491Y-16098484D01*
X21906491Y-16098484D02*
X21839825Y-16174674D01*
X21839825Y-16174674D02*
X21868396Y-16174674D01*
X21868396Y-16174674D02*
X21887444Y-16184198D01*
X21887444Y-16184198D02*
X21896968Y-16193722D01*
X21896968Y-16193722D02*
X21906491Y-16212769D01*
X21906491Y-16212769D02*
X21906491Y-16260388D01*
X21906491Y-16260388D02*
X21896968Y-16279436D01*
X21896968Y-16279436D02*
X21887444Y-16288960D01*
X21887444Y-16288960D02*
X21868396Y-16298484D01*
X21868396Y-16298484D02*
X21811253Y-16298484D01*
X21811253Y-16298484D02*
X21792206Y-16288960D01*
X21792206Y-16288960D02*
X21782682Y-16279436D01*
X22001729Y-16298484D02*
X22039825Y-16298484D01*
X22039825Y-16298484D02*
X22058872Y-16288960D01*
X22058872Y-16288960D02*
X22068396Y-16279436D01*
X22068396Y-16279436D02*
X22087444Y-16250865D01*
X22087444Y-16250865D02*
X22096968Y-16212769D01*
X22096968Y-16212769D02*
X22096968Y-16136579D01*
X22096968Y-16136579D02*
X22087444Y-16117531D01*
X22087444Y-16117531D02*
X22077920Y-16108008D01*
X22077920Y-16108008D02*
X22058872Y-16098484D01*
X22058872Y-16098484D02*
X22020777Y-16098484D01*
X22020777Y-16098484D02*
X22001729Y-16108008D01*
X22001729Y-16108008D02*
X21992206Y-16117531D01*
X21992206Y-16117531D02*
X21982682Y-16136579D01*
X21982682Y-16136579D02*
X21982682Y-16184198D01*
X21982682Y-16184198D02*
X21992206Y-16203246D01*
X21992206Y-16203246D02*
X22001729Y-16212769D01*
X22001729Y-16212769D02*
X22020777Y-16222293D01*
X22020777Y-16222293D02*
X22058872Y-16222293D01*
X22058872Y-16222293D02*
X22077920Y-16212769D01*
X22077920Y-16212769D02*
X22087444Y-16203246D01*
X22087444Y-16203246D02*
X22096968Y-16184198D01*
X22268396Y-16165150D02*
X22268396Y-16298484D01*
X22220777Y-16088960D02*
X22173158Y-16231817D01*
X22173158Y-16231817D02*
X22296968Y-16231817D01*
X22363634Y-16098484D02*
X22363634Y-16136579D01*
X22439825Y-16098484D02*
X22439825Y-16136579D01*
X22735063Y-16374674D02*
X22725539Y-16365150D01*
X22725539Y-16365150D02*
X22706491Y-16336579D01*
X22706491Y-16336579D02*
X22696968Y-16317531D01*
X22696968Y-16317531D02*
X22687444Y-16288960D01*
X22687444Y-16288960D02*
X22677920Y-16241341D01*
X22677920Y-16241341D02*
X22677920Y-16203246D01*
X22677920Y-16203246D02*
X22687444Y-16155627D01*
X22687444Y-16155627D02*
X22696968Y-16127055D01*
X22696968Y-16127055D02*
X22706491Y-16108008D01*
X22706491Y-16108008D02*
X22725539Y-16079436D01*
X22725539Y-16079436D02*
X22735063Y-16069912D01*
X22792206Y-16098484D02*
X22916015Y-16098484D01*
X22916015Y-16098484D02*
X22849348Y-16174674D01*
X22849348Y-16174674D02*
X22877920Y-16174674D01*
X22877920Y-16174674D02*
X22896968Y-16184198D01*
X22896968Y-16184198D02*
X22906491Y-16193722D01*
X22906491Y-16193722D02*
X22916015Y-16212769D01*
X22916015Y-16212769D02*
X22916015Y-16260388D01*
X22916015Y-16260388D02*
X22906491Y-16279436D01*
X22906491Y-16279436D02*
X22896968Y-16288960D01*
X22896968Y-16288960D02*
X22877920Y-16298484D01*
X22877920Y-16298484D02*
X22820777Y-16298484D01*
X22820777Y-16298484D02*
X22801729Y-16288960D01*
X22801729Y-16288960D02*
X22792206Y-16279436D01*
X23154110Y-16298484D02*
X23154110Y-16098484D01*
X23239825Y-16298484D02*
X23239825Y-16193722D01*
X23239825Y-16193722D02*
X23230301Y-16174674D01*
X23230301Y-16174674D02*
X23211253Y-16165150D01*
X23211253Y-16165150D02*
X23182682Y-16165150D01*
X23182682Y-16165150D02*
X23163634Y-16174674D01*
X23163634Y-16174674D02*
X23154110Y-16184198D01*
X23363634Y-16298484D02*
X23344587Y-16288960D01*
X23344587Y-16288960D02*
X23335063Y-16279436D01*
X23335063Y-16279436D02*
X23325539Y-16260388D01*
X23325539Y-16260388D02*
X23325539Y-16203246D01*
X23325539Y-16203246D02*
X23335063Y-16184198D01*
X23335063Y-16184198D02*
X23344587Y-16174674D01*
X23344587Y-16174674D02*
X23363634Y-16165150D01*
X23363634Y-16165150D02*
X23392206Y-16165150D01*
X23392206Y-16165150D02*
X23411253Y-16174674D01*
X23411253Y-16174674D02*
X23420777Y-16184198D01*
X23420777Y-16184198D02*
X23430301Y-16203246D01*
X23430301Y-16203246D02*
X23430301Y-16260388D01*
X23430301Y-16260388D02*
X23420777Y-16279436D01*
X23420777Y-16279436D02*
X23411253Y-16288960D01*
X23411253Y-16288960D02*
X23392206Y-16298484D01*
X23392206Y-16298484D02*
X23363634Y-16298484D01*
X23544587Y-16298484D02*
X23525539Y-16288960D01*
X23525539Y-16288960D02*
X23516015Y-16269912D01*
X23516015Y-16269912D02*
X23516015Y-16098484D01*
X23696968Y-16288960D02*
X23677920Y-16298484D01*
X23677920Y-16298484D02*
X23639825Y-16298484D01*
X23639825Y-16298484D02*
X23620777Y-16288960D01*
X23620777Y-16288960D02*
X23611253Y-16269912D01*
X23611253Y-16269912D02*
X23611253Y-16193722D01*
X23611253Y-16193722D02*
X23620777Y-16174674D01*
X23620777Y-16174674D02*
X23639825Y-16165150D01*
X23639825Y-16165150D02*
X23677920Y-16165150D01*
X23677920Y-16165150D02*
X23696968Y-16174674D01*
X23696968Y-16174674D02*
X23706491Y-16193722D01*
X23706491Y-16193722D02*
X23706491Y-16212769D01*
X23706491Y-16212769D02*
X23611253Y-16231817D01*
X23782682Y-16288960D02*
X23801730Y-16298484D01*
X23801730Y-16298484D02*
X23839825Y-16298484D01*
X23839825Y-16298484D02*
X23858872Y-16288960D01*
X23858872Y-16288960D02*
X23868396Y-16269912D01*
X23868396Y-16269912D02*
X23868396Y-16260388D01*
X23868396Y-16260388D02*
X23858872Y-16241341D01*
X23858872Y-16241341D02*
X23839825Y-16231817D01*
X23839825Y-16231817D02*
X23811253Y-16231817D01*
X23811253Y-16231817D02*
X23792206Y-16222293D01*
X23792206Y-16222293D02*
X23782682Y-16203246D01*
X23782682Y-16203246D02*
X23782682Y-16193722D01*
X23782682Y-16193722D02*
X23792206Y-16174674D01*
X23792206Y-16174674D02*
X23811253Y-16165150D01*
X23811253Y-16165150D02*
X23839825Y-16165150D01*
X23839825Y-16165150D02*
X23858872Y-16174674D01*
X23935063Y-16374674D02*
X23944587Y-16365150D01*
X23944587Y-16365150D02*
X23963634Y-16336579D01*
X23963634Y-16336579D02*
X23973158Y-16317531D01*
X23973158Y-16317531D02*
X23982682Y-16288960D01*
X23982682Y-16288960D02*
X23992206Y-16241341D01*
X23992206Y-16241341D02*
X23992206Y-16203246D01*
X23992206Y-16203246D02*
X23982682Y-16155627D01*
X23982682Y-16155627D02*
X23973158Y-16127055D01*
X23973158Y-16127055D02*
X23963634Y-16108008D01*
X23963634Y-16108008D02*
X23944587Y-16079436D01*
X23944587Y-16079436D02*
X23935063Y-16069912D01*
D20*
X19100310Y-16411310D02*
X19100310Y-16530690D01*
X19040620Y-16471000D02*
X19160000Y-16471000D01*
X19160000Y-16471000D02*
G75*
G03*
X19160000Y-16471000I-59690J0D01*
G01*
D10*
X19525539Y-16562484D02*
X19411253Y-16562484D01*
X19468396Y-16562484D02*
X19468396Y-16362484D01*
X19468396Y-16362484D02*
X19449348Y-16391055D01*
X19449348Y-16391055D02*
X19430301Y-16410103D01*
X19430301Y-16410103D02*
X19411253Y-16419627D01*
X19611253Y-16543436D02*
X19620777Y-16552960D01*
X19620777Y-16552960D02*
X19611253Y-16562484D01*
X19611253Y-16562484D02*
X19601729Y-16552960D01*
X19601729Y-16552960D02*
X19611253Y-16543436D01*
X19611253Y-16543436D02*
X19611253Y-16562484D01*
X19811253Y-16562484D02*
X19696967Y-16562484D01*
X19754110Y-16562484D02*
X19754110Y-16362484D01*
X19754110Y-16362484D02*
X19735063Y-16391055D01*
X19735063Y-16391055D02*
X19716015Y-16410103D01*
X19716015Y-16410103D02*
X19696967Y-16419627D01*
X19906491Y-16562484D02*
X19944586Y-16562484D01*
X19944586Y-16562484D02*
X19963634Y-16552960D01*
X19963634Y-16552960D02*
X19973158Y-16543436D01*
X19973158Y-16543436D02*
X19992205Y-16514865D01*
X19992205Y-16514865D02*
X20001729Y-16476769D01*
X20001729Y-16476769D02*
X20001729Y-16400579D01*
X20001729Y-16400579D02*
X19992205Y-16381531D01*
X19992205Y-16381531D02*
X19982682Y-16372008D01*
X19982682Y-16372008D02*
X19963634Y-16362484D01*
X19963634Y-16362484D02*
X19925539Y-16362484D01*
X19925539Y-16362484D02*
X19906491Y-16372008D01*
X19906491Y-16372008D02*
X19896967Y-16381531D01*
X19896967Y-16381531D02*
X19887444Y-16400579D01*
X19887444Y-16400579D02*
X19887444Y-16448198D01*
X19887444Y-16448198D02*
X19896967Y-16467246D01*
X19896967Y-16467246D02*
X19906491Y-16476769D01*
X19906491Y-16476769D02*
X19925539Y-16486293D01*
X19925539Y-16486293D02*
X19963634Y-16486293D01*
X19963634Y-16486293D02*
X19982682Y-16476769D01*
X19982682Y-16476769D02*
X19992205Y-16467246D01*
X19992205Y-16467246D02*
X20001729Y-16448198D01*
X20173158Y-16429150D02*
X20173158Y-16562484D01*
X20125539Y-16352960D02*
X20077920Y-16495817D01*
X20077920Y-16495817D02*
X20201729Y-16495817D01*
X20277920Y-16562484D02*
X20277920Y-16429150D01*
X20277920Y-16448198D02*
X20287444Y-16438674D01*
X20287444Y-16438674D02*
X20306491Y-16429150D01*
X20306491Y-16429150D02*
X20335063Y-16429150D01*
X20335063Y-16429150D02*
X20354110Y-16438674D01*
X20354110Y-16438674D02*
X20363634Y-16457722D01*
X20363634Y-16457722D02*
X20363634Y-16562484D01*
X20363634Y-16457722D02*
X20373158Y-16438674D01*
X20373158Y-16438674D02*
X20392205Y-16429150D01*
X20392205Y-16429150D02*
X20420777Y-16429150D01*
X20420777Y-16429150D02*
X20439825Y-16438674D01*
X20439825Y-16438674D02*
X20449348Y-16457722D01*
X20449348Y-16457722D02*
X20449348Y-16562484D01*
X20544586Y-16562484D02*
X20544586Y-16429150D01*
X20544586Y-16448198D02*
X20554110Y-16438674D01*
X20554110Y-16438674D02*
X20573158Y-16429150D01*
X20573158Y-16429150D02*
X20601729Y-16429150D01*
X20601729Y-16429150D02*
X20620777Y-16438674D01*
X20620777Y-16438674D02*
X20630301Y-16457722D01*
X20630301Y-16457722D02*
X20630301Y-16562484D01*
X20630301Y-16457722D02*
X20639825Y-16438674D01*
X20639825Y-16438674D02*
X20658872Y-16429150D01*
X20658872Y-16429150D02*
X20687444Y-16429150D01*
X20687444Y-16429150D02*
X20706491Y-16438674D01*
X20706491Y-16438674D02*
X20716015Y-16457722D01*
X20716015Y-16457722D02*
X20716015Y-16562484D01*
X21106491Y-16352960D02*
X20935063Y-16610103D01*
X21363634Y-16362484D02*
X21382682Y-16362484D01*
X21382682Y-16362484D02*
X21401729Y-16372008D01*
X21401729Y-16372008D02*
X21411253Y-16381531D01*
X21411253Y-16381531D02*
X21420777Y-16400579D01*
X21420777Y-16400579D02*
X21430301Y-16438674D01*
X21430301Y-16438674D02*
X21430301Y-16486293D01*
X21430301Y-16486293D02*
X21420777Y-16524388D01*
X21420777Y-16524388D02*
X21411253Y-16543436D01*
X21411253Y-16543436D02*
X21401729Y-16552960D01*
X21401729Y-16552960D02*
X21382682Y-16562484D01*
X21382682Y-16562484D02*
X21363634Y-16562484D01*
X21363634Y-16562484D02*
X21344587Y-16552960D01*
X21344587Y-16552960D02*
X21335063Y-16543436D01*
X21335063Y-16543436D02*
X21325539Y-16524388D01*
X21325539Y-16524388D02*
X21316015Y-16486293D01*
X21316015Y-16486293D02*
X21316015Y-16438674D01*
X21316015Y-16438674D02*
X21325539Y-16400579D01*
X21325539Y-16400579D02*
X21335063Y-16381531D01*
X21335063Y-16381531D02*
X21344587Y-16372008D01*
X21344587Y-16372008D02*
X21363634Y-16362484D01*
X21516015Y-16543436D02*
X21525539Y-16552960D01*
X21525539Y-16552960D02*
X21516015Y-16562484D01*
X21516015Y-16562484D02*
X21506491Y-16552960D01*
X21506491Y-16552960D02*
X21516015Y-16543436D01*
X21516015Y-16543436D02*
X21516015Y-16562484D01*
X21649348Y-16362484D02*
X21668396Y-16362484D01*
X21668396Y-16362484D02*
X21687444Y-16372008D01*
X21687444Y-16372008D02*
X21696968Y-16381531D01*
X21696968Y-16381531D02*
X21706491Y-16400579D01*
X21706491Y-16400579D02*
X21716015Y-16438674D01*
X21716015Y-16438674D02*
X21716015Y-16486293D01*
X21716015Y-16486293D02*
X21706491Y-16524388D01*
X21706491Y-16524388D02*
X21696968Y-16543436D01*
X21696968Y-16543436D02*
X21687444Y-16552960D01*
X21687444Y-16552960D02*
X21668396Y-16562484D01*
X21668396Y-16562484D02*
X21649348Y-16562484D01*
X21649348Y-16562484D02*
X21630301Y-16552960D01*
X21630301Y-16552960D02*
X21620777Y-16543436D01*
X21620777Y-16543436D02*
X21611253Y-16524388D01*
X21611253Y-16524388D02*
X21601729Y-16486293D01*
X21601729Y-16486293D02*
X21601729Y-16438674D01*
X21601729Y-16438674D02*
X21611253Y-16400579D01*
X21611253Y-16400579D02*
X21620777Y-16381531D01*
X21620777Y-16381531D02*
X21630301Y-16372008D01*
X21630301Y-16372008D02*
X21649348Y-16362484D01*
X21887444Y-16429150D02*
X21887444Y-16562484D01*
X21839825Y-16352960D02*
X21792206Y-16495817D01*
X21792206Y-16495817D02*
X21916015Y-16495817D01*
X21973158Y-16362484D02*
X22106491Y-16362484D01*
X22106491Y-16362484D02*
X22020777Y-16562484D01*
X22220777Y-16362484D02*
X22239825Y-16362484D01*
X22239825Y-16362484D02*
X22258872Y-16372008D01*
X22258872Y-16372008D02*
X22268396Y-16381531D01*
X22268396Y-16381531D02*
X22277920Y-16400579D01*
X22277920Y-16400579D02*
X22287444Y-16438674D01*
X22287444Y-16438674D02*
X22287444Y-16486293D01*
X22287444Y-16486293D02*
X22277920Y-16524388D01*
X22277920Y-16524388D02*
X22268396Y-16543436D01*
X22268396Y-16543436D02*
X22258872Y-16552960D01*
X22258872Y-16552960D02*
X22239825Y-16562484D01*
X22239825Y-16562484D02*
X22220777Y-16562484D01*
X22220777Y-16562484D02*
X22201729Y-16552960D01*
X22201729Y-16552960D02*
X22192206Y-16543436D01*
X22192206Y-16543436D02*
X22182682Y-16524388D01*
X22182682Y-16524388D02*
X22173158Y-16486293D01*
X22173158Y-16486293D02*
X22173158Y-16438674D01*
X22173158Y-16438674D02*
X22182682Y-16400579D01*
X22182682Y-16400579D02*
X22192206Y-16381531D01*
X22192206Y-16381531D02*
X22201729Y-16372008D01*
X22201729Y-16372008D02*
X22220777Y-16362484D01*
X22363634Y-16362484D02*
X22363634Y-16400579D01*
X22439825Y-16362484D02*
X22439825Y-16400579D01*
X22735063Y-16638674D02*
X22725539Y-16629150D01*
X22725539Y-16629150D02*
X22706491Y-16600579D01*
X22706491Y-16600579D02*
X22696968Y-16581531D01*
X22696968Y-16581531D02*
X22687444Y-16552960D01*
X22687444Y-16552960D02*
X22677920Y-16505341D01*
X22677920Y-16505341D02*
X22677920Y-16467246D01*
X22677920Y-16467246D02*
X22687444Y-16419627D01*
X22687444Y-16419627D02*
X22696968Y-16391055D01*
X22696968Y-16391055D02*
X22706491Y-16372008D01*
X22706491Y-16372008D02*
X22725539Y-16343436D01*
X22725539Y-16343436D02*
X22735063Y-16333912D01*
X22916015Y-16562484D02*
X22801729Y-16562484D01*
X22858872Y-16562484D02*
X22858872Y-16362484D01*
X22858872Y-16362484D02*
X22839825Y-16391055D01*
X22839825Y-16391055D02*
X22820777Y-16410103D01*
X22820777Y-16410103D02*
X22801729Y-16419627D01*
X23154110Y-16562484D02*
X23154110Y-16362484D01*
X23239825Y-16562484D02*
X23239825Y-16457722D01*
X23239825Y-16457722D02*
X23230301Y-16438674D01*
X23230301Y-16438674D02*
X23211253Y-16429150D01*
X23211253Y-16429150D02*
X23182682Y-16429150D01*
X23182682Y-16429150D02*
X23163634Y-16438674D01*
X23163634Y-16438674D02*
X23154110Y-16448198D01*
X23363634Y-16562484D02*
X23344587Y-16552960D01*
X23344587Y-16552960D02*
X23335063Y-16543436D01*
X23335063Y-16543436D02*
X23325539Y-16524388D01*
X23325539Y-16524388D02*
X23325539Y-16467246D01*
X23325539Y-16467246D02*
X23335063Y-16448198D01*
X23335063Y-16448198D02*
X23344587Y-16438674D01*
X23344587Y-16438674D02*
X23363634Y-16429150D01*
X23363634Y-16429150D02*
X23392206Y-16429150D01*
X23392206Y-16429150D02*
X23411253Y-16438674D01*
X23411253Y-16438674D02*
X23420777Y-16448198D01*
X23420777Y-16448198D02*
X23430301Y-16467246D01*
X23430301Y-16467246D02*
X23430301Y-16524388D01*
X23430301Y-16524388D02*
X23420777Y-16543436D01*
X23420777Y-16543436D02*
X23411253Y-16552960D01*
X23411253Y-16552960D02*
X23392206Y-16562484D01*
X23392206Y-16562484D02*
X23363634Y-16562484D01*
X23544587Y-16562484D02*
X23525539Y-16552960D01*
X23525539Y-16552960D02*
X23516015Y-16533912D01*
X23516015Y-16533912D02*
X23516015Y-16362484D01*
X23696968Y-16552960D02*
X23677920Y-16562484D01*
X23677920Y-16562484D02*
X23639825Y-16562484D01*
X23639825Y-16562484D02*
X23620777Y-16552960D01*
X23620777Y-16552960D02*
X23611253Y-16533912D01*
X23611253Y-16533912D02*
X23611253Y-16457722D01*
X23611253Y-16457722D02*
X23620777Y-16438674D01*
X23620777Y-16438674D02*
X23639825Y-16429150D01*
X23639825Y-16429150D02*
X23677920Y-16429150D01*
X23677920Y-16429150D02*
X23696968Y-16438674D01*
X23696968Y-16438674D02*
X23706491Y-16457722D01*
X23706491Y-16457722D02*
X23706491Y-16476769D01*
X23706491Y-16476769D02*
X23611253Y-16495817D01*
X23773158Y-16638674D02*
X23782682Y-16629150D01*
X23782682Y-16629150D02*
X23801730Y-16600579D01*
X23801730Y-16600579D02*
X23811253Y-16581531D01*
X23811253Y-16581531D02*
X23820777Y-16552960D01*
X23820777Y-16552960D02*
X23830301Y-16505341D01*
X23830301Y-16505341D02*
X23830301Y-16467246D01*
X23830301Y-16467246D02*
X23820777Y-16419627D01*
X23820777Y-16419627D02*
X23811253Y-16391055D01*
X23811253Y-16391055D02*
X23801730Y-16372008D01*
X23801730Y-16372008D02*
X23782682Y-16343436D01*
X23782682Y-16343436D02*
X23773158Y-16333912D01*
M02*
