%TF.GenerationSoftware,KiCad,Pcbnew,7.0.7*%
%TF.CreationDate,2023-11-26T12:30:26-07:00*%
%TF.ProjectId,mouse,6d6f7573-652e-46b6-9963-61645f706362,rev?*%
%TF.SameCoordinates,Original*%
%TF.FileFunction,Drillmap*%
%TF.FilePolarity,Positive*%
%FSLAX45Y45*%
G04 Gerber Fmt 4.5, Leading zero omitted, Abs format (unit mm)*
G04 Created by KiCad (PCBNEW 7.0.7) date 2023-11-26 12:30:26*
%MOMM*%
%LPD*%
G01*
G04 APERTURE LIST*
%ADD10C,0.200000*%
%ADD11C,0.100000*%
G04 APERTURE END LIST*
D10*
X25120000Y-4595000D02*
X25120000Y-10295000D01*
X23870000Y-11545000D01*
X23870000Y-13445000D01*
X20420000Y-13445000D01*
X20420000Y-11545000D01*
X19170000Y-10295000D01*
X19170000Y-4595000D01*
X20420000Y-3345000D01*
X23870000Y-3345000D01*
X25120000Y-4595000D01*
D11*
X21470000Y-4545000D02*
X22770000Y-4545000D01*
X22770000Y-6545000D01*
X21470000Y-6545000D01*
X21470000Y-4545000D01*
D10*
X19420777Y-13766484D02*
X19420777Y-13566484D01*
X19420777Y-13566484D02*
X19468396Y-13566484D01*
X19468396Y-13566484D02*
X19496967Y-13576008D01*
X19496967Y-13576008D02*
X19516015Y-13595055D01*
X19516015Y-13595055D02*
X19525539Y-13614103D01*
X19525539Y-13614103D02*
X19535063Y-13652198D01*
X19535063Y-13652198D02*
X19535063Y-13680769D01*
X19535063Y-13680769D02*
X19525539Y-13718865D01*
X19525539Y-13718865D02*
X19516015Y-13737912D01*
X19516015Y-13737912D02*
X19496967Y-13756960D01*
X19496967Y-13756960D02*
X19468396Y-13766484D01*
X19468396Y-13766484D02*
X19420777Y-13766484D01*
X19620777Y-13766484D02*
X19620777Y-13633150D01*
X19620777Y-13671246D02*
X19630301Y-13652198D01*
X19630301Y-13652198D02*
X19639824Y-13642674D01*
X19639824Y-13642674D02*
X19658872Y-13633150D01*
X19658872Y-13633150D02*
X19677920Y-13633150D01*
X19744586Y-13766484D02*
X19744586Y-13633150D01*
X19744586Y-13566484D02*
X19735063Y-13576008D01*
X19735063Y-13576008D02*
X19744586Y-13585531D01*
X19744586Y-13585531D02*
X19754110Y-13576008D01*
X19754110Y-13576008D02*
X19744586Y-13566484D01*
X19744586Y-13566484D02*
X19744586Y-13585531D01*
X19868396Y-13766484D02*
X19849348Y-13756960D01*
X19849348Y-13756960D02*
X19839824Y-13737912D01*
X19839824Y-13737912D02*
X19839824Y-13566484D01*
X19973158Y-13766484D02*
X19954110Y-13756960D01*
X19954110Y-13756960D02*
X19944586Y-13737912D01*
X19944586Y-13737912D02*
X19944586Y-13566484D01*
X20201729Y-13766484D02*
X20201729Y-13566484D01*
X20201729Y-13566484D02*
X20268396Y-13709341D01*
X20268396Y-13709341D02*
X20335063Y-13566484D01*
X20335063Y-13566484D02*
X20335063Y-13766484D01*
X20516015Y-13766484D02*
X20516015Y-13661722D01*
X20516015Y-13661722D02*
X20506491Y-13642674D01*
X20506491Y-13642674D02*
X20487444Y-13633150D01*
X20487444Y-13633150D02*
X20449348Y-13633150D01*
X20449348Y-13633150D02*
X20430301Y-13642674D01*
X20516015Y-13756960D02*
X20496967Y-13766484D01*
X20496967Y-13766484D02*
X20449348Y-13766484D01*
X20449348Y-13766484D02*
X20430301Y-13756960D01*
X20430301Y-13756960D02*
X20420777Y-13737912D01*
X20420777Y-13737912D02*
X20420777Y-13718865D01*
X20420777Y-13718865D02*
X20430301Y-13699817D01*
X20430301Y-13699817D02*
X20449348Y-13690293D01*
X20449348Y-13690293D02*
X20496967Y-13690293D01*
X20496967Y-13690293D02*
X20516015Y-13680769D01*
X20611253Y-13633150D02*
X20611253Y-13833150D01*
X20611253Y-13642674D02*
X20630301Y-13633150D01*
X20630301Y-13633150D02*
X20668396Y-13633150D01*
X20668396Y-13633150D02*
X20687444Y-13642674D01*
X20687444Y-13642674D02*
X20696967Y-13652198D01*
X20696967Y-13652198D02*
X20706491Y-13671246D01*
X20706491Y-13671246D02*
X20706491Y-13728388D01*
X20706491Y-13728388D02*
X20696967Y-13747436D01*
X20696967Y-13747436D02*
X20687444Y-13756960D01*
X20687444Y-13756960D02*
X20668396Y-13766484D01*
X20668396Y-13766484D02*
X20630301Y-13766484D01*
X20630301Y-13766484D02*
X20611253Y-13756960D01*
X20792205Y-13747436D02*
X20801729Y-13756960D01*
X20801729Y-13756960D02*
X20792205Y-13766484D01*
X20792205Y-13766484D02*
X20782682Y-13756960D01*
X20782682Y-13756960D02*
X20792205Y-13747436D01*
X20792205Y-13747436D02*
X20792205Y-13766484D01*
X20792205Y-13642674D02*
X20801729Y-13652198D01*
X20801729Y-13652198D02*
X20792205Y-13661722D01*
X20792205Y-13661722D02*
X20782682Y-13652198D01*
X20782682Y-13652198D02*
X20792205Y-13642674D01*
X20792205Y-13642674D02*
X20792205Y-13661722D01*
M02*
