%TF.GenerationSoftware,KiCad,Pcbnew,7.0.7*%
%TF.CreationDate,2023-11-26T12:29:05-07:00*%
%TF.ProjectId,mouse,6d6f7573-652e-46b6-9963-61645f706362,rev?*%
%TF.SameCoordinates,Original*%
%TF.FileFunction,Soldermask,Top*%
%TF.FilePolarity,Negative*%
%FSLAX46Y46*%
G04 Gerber Fmt 4.6, Leading zero omitted, Abs format (unit mm)*
G04 Created by KiCad (PCBNEW 7.0.7) date 2023-11-26 12:29:05*
%MOMM*%
%LPD*%
G01*
G04 APERTURE LIST*
G04 Aperture macros list*
%AMRoundRect*
0 Rectangle with rounded corners*
0 $1 Rounding radius*
0 $2 $3 $4 $5 $6 $7 $8 $9 X,Y pos of 4 corners*
0 Add a 4 corners polygon primitive as box body*
4,1,4,$2,$3,$4,$5,$6,$7,$8,$9,$2,$3,0*
0 Add four circle primitives for the rounded corners*
1,1,$1+$1,$2,$3*
1,1,$1+$1,$4,$5*
1,1,$1+$1,$6,$7*
1,1,$1+$1,$8,$9*
0 Add four rect primitives between the rounded corners*
20,1,$1+$1,$2,$3,$4,$5,0*
20,1,$1+$1,$4,$5,$6,$7,0*
20,1,$1+$1,$6,$7,$8,$9,0*
20,1,$1+$1,$8,$9,$2,$3,0*%
G04 Aperture macros list end*
%ADD10C,0.788500*%
%ADD11C,0.010000*%
%ADD12O,1.500000X1.200000*%
%ADD13R,0.299999X0.670001*%
%ADD14R,1.320800X0.508000*%
%ADD15O,1.000000X1.500000*%
%ADD16R,1.000000X0.300000*%
%ADD17R,1.300000X2.000000*%
%ADD18RoundRect,0.100000X-0.130000X-0.100000X0.130000X-0.100000X0.130000X0.100000X-0.130000X0.100000X0*%
%ADD19RoundRect,0.100000X-0.100000X0.130000X-0.100000X-0.130000X0.100000X-0.130000X0.100000X0.130000X0*%
%ADD20RoundRect,0.100000X0.130000X0.100000X-0.130000X0.100000X-0.130000X-0.100000X0.130000X-0.100000X0*%
%ADD21RoundRect,0.100000X0.100000X-0.130000X0.100000X0.130000X-0.100000X0.130000X-0.100000X-0.130000X0*%
%ADD22RoundRect,0.150000X0.150000X-0.512500X0.150000X0.512500X-0.150000X0.512500X-0.150000X-0.512500X0*%
%ADD23C,1.500000*%
%ADD24R,1.397000X1.422400*%
%ADD25RoundRect,0.102000X-0.450000X-0.450000X0.450000X-0.450000X0.450000X0.450000X-0.450000X0.450000X0*%
%ADD26RoundRect,0.102000X-0.750000X-0.450000X0.750000X-0.450000X0.750000X0.450000X-0.750000X0.450000X0*%
%ADD27RoundRect,0.102000X-0.450000X-0.750000X0.450000X-0.750000X0.450000X0.750000X-0.450000X0.750000X0*%
%ADD28R,1.003300X0.508000*%
%ADD29C,1.320800*%
%ADD30C,1.701800*%
%ADD31R,1.900000X1.900000*%
%ADD32C,1.900000*%
G04 APERTURE END LIST*
D10*
%TO.C,J5*%
X224094250Y-37600000D02*
G75*
G03*
X224094250Y-37600000I-394250J0D01*
G01*
X219094250Y-37600000D02*
G75*
G03*
X219094250Y-37600000I-394250J0D01*
G01*
D11*
X223013500Y-35913500D02*
X221386500Y-35913500D01*
X221386500Y-33886500D01*
X223013500Y-33886500D01*
X223013500Y-35913500D01*
G36*
X223013500Y-35913500D02*
G01*
X221386500Y-35913500D01*
X221386500Y-33886500D01*
X223013500Y-33886500D01*
X223013500Y-35913500D01*
G37*
X222763500Y-38313500D02*
X222236500Y-38313500D01*
X222236500Y-36836500D01*
X222763500Y-36836500D01*
X222763500Y-38313500D01*
G36*
X222763500Y-38313500D02*
G01*
X222236500Y-38313500D01*
X222236500Y-36836500D01*
X222763500Y-36836500D01*
X222763500Y-38313500D01*
G37*
X222113500Y-38313500D02*
X221586500Y-38313500D01*
X221586500Y-36836500D01*
X222113500Y-36836500D01*
X222113500Y-38313500D01*
G36*
X222113500Y-38313500D02*
G01*
X221586500Y-38313500D01*
X221586500Y-36836500D01*
X222113500Y-36836500D01*
X222113500Y-38313500D01*
G37*
X221463500Y-38313500D02*
X220936500Y-38313500D01*
X220936500Y-36836500D01*
X221463500Y-36836500D01*
X221463500Y-38313500D01*
G36*
X221463500Y-38313500D02*
G01*
X220936500Y-38313500D01*
X220936500Y-36836500D01*
X221463500Y-36836500D01*
X221463500Y-38313500D01*
G37*
X221013500Y-35913500D02*
X219386500Y-35913500D01*
X219386500Y-33886500D01*
X221013500Y-33886500D01*
X221013500Y-35913500D01*
G36*
X221013500Y-35913500D02*
G01*
X219386500Y-35913500D01*
X219386500Y-33886500D01*
X221013500Y-33886500D01*
X221013500Y-35913500D01*
G37*
X220813500Y-38313500D02*
X220286500Y-38313500D01*
X220286500Y-36836500D01*
X220813500Y-36836500D01*
X220813500Y-38313500D01*
G36*
X220813500Y-38313500D02*
G01*
X220286500Y-38313500D01*
X220286500Y-36836500D01*
X220813500Y-36836500D01*
X220813500Y-38313500D01*
G37*
X220163500Y-38313500D02*
X219636500Y-38313500D01*
X219636500Y-36836500D01*
X220163500Y-36836500D01*
X220163500Y-38313500D01*
G36*
X220163500Y-38313500D02*
G01*
X219636500Y-38313500D01*
X219636500Y-36836500D01*
X220163500Y-36836500D01*
X220163500Y-38313500D01*
G37*
X224829000Y-33887000D02*
X224859000Y-33890000D01*
X224888000Y-33893000D01*
X224917000Y-33899000D01*
X224946000Y-33906000D01*
X224974000Y-33914000D01*
X225002000Y-33924000D01*
X225029000Y-33935000D01*
X225056000Y-33948000D01*
X225082000Y-33962000D01*
X225107000Y-33977000D01*
X225131000Y-33994000D01*
X225155000Y-34012000D01*
X225177000Y-34031000D01*
X225198000Y-34052000D01*
X225219000Y-34073000D01*
X225238000Y-34095000D01*
X225256000Y-34119000D01*
X225273000Y-34143000D01*
X225288000Y-34168000D01*
X225302000Y-34194000D01*
X225315000Y-34221000D01*
X225326000Y-34248000D01*
X225336000Y-34276000D01*
X225344000Y-34304000D01*
X225351000Y-34333000D01*
X225357000Y-34362000D01*
X225360000Y-34391000D01*
X225363000Y-34421000D01*
X225363000Y-34450000D01*
X225363000Y-35350000D01*
X225363000Y-35379000D01*
X225360000Y-35409000D01*
X225357000Y-35438000D01*
X225351000Y-35467000D01*
X225344000Y-35496000D01*
X225336000Y-35524000D01*
X225326000Y-35552000D01*
X225315000Y-35579000D01*
X225302000Y-35606000D01*
X225288000Y-35632000D01*
X225273000Y-35657000D01*
X225256000Y-35681000D01*
X225238000Y-35705000D01*
X225219000Y-35727000D01*
X225198000Y-35748000D01*
X225177000Y-35769000D01*
X225155000Y-35788000D01*
X225131000Y-35806000D01*
X225107000Y-35823000D01*
X225082000Y-35838000D01*
X225056000Y-35852000D01*
X225029000Y-35865000D01*
X225002000Y-35876000D01*
X224974000Y-35886000D01*
X224946000Y-35894000D01*
X224917000Y-35901000D01*
X224888000Y-35907000D01*
X224859000Y-35910000D01*
X224829000Y-35913000D01*
X224800000Y-35913000D01*
X223436000Y-35913000D01*
X223436000Y-33886000D01*
X223436500Y-33886500D01*
X224800000Y-33886000D01*
X224829000Y-33887000D01*
G36*
X224829000Y-33887000D02*
G01*
X224859000Y-33890000D01*
X224888000Y-33893000D01*
X224917000Y-33899000D01*
X224946000Y-33906000D01*
X224974000Y-33914000D01*
X225002000Y-33924000D01*
X225029000Y-33935000D01*
X225056000Y-33948000D01*
X225082000Y-33962000D01*
X225107000Y-33977000D01*
X225131000Y-33994000D01*
X225155000Y-34012000D01*
X225177000Y-34031000D01*
X225198000Y-34052000D01*
X225219000Y-34073000D01*
X225238000Y-34095000D01*
X225256000Y-34119000D01*
X225273000Y-34143000D01*
X225288000Y-34168000D01*
X225302000Y-34194000D01*
X225315000Y-34221000D01*
X225326000Y-34248000D01*
X225336000Y-34276000D01*
X225344000Y-34304000D01*
X225351000Y-34333000D01*
X225357000Y-34362000D01*
X225360000Y-34391000D01*
X225363000Y-34421000D01*
X225363000Y-34450000D01*
X225363000Y-35350000D01*
X225363000Y-35379000D01*
X225360000Y-35409000D01*
X225357000Y-35438000D01*
X225351000Y-35467000D01*
X225344000Y-35496000D01*
X225336000Y-35524000D01*
X225326000Y-35552000D01*
X225315000Y-35579000D01*
X225302000Y-35606000D01*
X225288000Y-35632000D01*
X225273000Y-35657000D01*
X225256000Y-35681000D01*
X225238000Y-35705000D01*
X225219000Y-35727000D01*
X225198000Y-35748000D01*
X225177000Y-35769000D01*
X225155000Y-35788000D01*
X225131000Y-35806000D01*
X225107000Y-35823000D01*
X225082000Y-35838000D01*
X225056000Y-35852000D01*
X225029000Y-35865000D01*
X225002000Y-35876000D01*
X224974000Y-35886000D01*
X224946000Y-35894000D01*
X224917000Y-35901000D01*
X224888000Y-35907000D01*
X224859000Y-35910000D01*
X224829000Y-35913000D01*
X224800000Y-35913000D01*
X223436000Y-35913000D01*
X223436000Y-33886000D01*
X223436500Y-33886500D01*
X224800000Y-33886000D01*
X224829000Y-33887000D01*
G37*
X218964000Y-35913000D02*
X217600000Y-35913000D01*
X217571000Y-35913000D01*
X217541000Y-35910000D01*
X217512000Y-35907000D01*
X217483000Y-35901000D01*
X217454000Y-35894000D01*
X217426000Y-35886000D01*
X217398000Y-35876000D01*
X217371000Y-35865000D01*
X217344000Y-35852000D01*
X217318000Y-35838000D01*
X217293000Y-35823000D01*
X217269000Y-35806000D01*
X217245000Y-35788000D01*
X217223000Y-35769000D01*
X217202000Y-35748000D01*
X217181000Y-35727000D01*
X217162000Y-35705000D01*
X217144000Y-35681000D01*
X217127000Y-35657000D01*
X217112000Y-35632000D01*
X217098000Y-35606000D01*
X217085000Y-35579000D01*
X217074000Y-35552000D01*
X217064000Y-35524000D01*
X217056000Y-35496000D01*
X217049000Y-35467000D01*
X217043000Y-35438000D01*
X217040000Y-35409000D01*
X217037000Y-35379000D01*
X217037000Y-35350000D01*
X217037000Y-34450000D01*
X217037000Y-34421000D01*
X217040000Y-34391000D01*
X217043000Y-34362000D01*
X217049000Y-34333000D01*
X217056000Y-34304000D01*
X217064000Y-34276000D01*
X217074000Y-34248000D01*
X217085000Y-34221000D01*
X217098000Y-34194000D01*
X217112000Y-34168000D01*
X217127000Y-34143000D01*
X217144000Y-34119000D01*
X217162000Y-34095000D01*
X217181000Y-34073000D01*
X217202000Y-34052000D01*
X217223000Y-34031000D01*
X217245000Y-34012000D01*
X217269000Y-33994000D01*
X217293000Y-33977000D01*
X217318000Y-33962000D01*
X217344000Y-33948000D01*
X217371000Y-33935000D01*
X217398000Y-33924000D01*
X217426000Y-33914000D01*
X217454000Y-33906000D01*
X217483000Y-33899000D01*
X217512000Y-33893000D01*
X217541000Y-33890000D01*
X217571000Y-33887000D01*
X217600000Y-33886000D01*
X218963500Y-33886500D01*
X218964000Y-33886000D01*
X218964000Y-35913000D01*
G36*
X218964000Y-35913000D02*
G01*
X217600000Y-35913000D01*
X217571000Y-35913000D01*
X217541000Y-35910000D01*
X217512000Y-35907000D01*
X217483000Y-35901000D01*
X217454000Y-35894000D01*
X217426000Y-35886000D01*
X217398000Y-35876000D01*
X217371000Y-35865000D01*
X217344000Y-35852000D01*
X217318000Y-35838000D01*
X217293000Y-35823000D01*
X217269000Y-35806000D01*
X217245000Y-35788000D01*
X217223000Y-35769000D01*
X217202000Y-35748000D01*
X217181000Y-35727000D01*
X217162000Y-35705000D01*
X217144000Y-35681000D01*
X217127000Y-35657000D01*
X217112000Y-35632000D01*
X217098000Y-35606000D01*
X217085000Y-35579000D01*
X217074000Y-35552000D01*
X217064000Y-35524000D01*
X217056000Y-35496000D01*
X217049000Y-35467000D01*
X217043000Y-35438000D01*
X217040000Y-35409000D01*
X217037000Y-35379000D01*
X217037000Y-35350000D01*
X217037000Y-34450000D01*
X217037000Y-34421000D01*
X217040000Y-34391000D01*
X217043000Y-34362000D01*
X217049000Y-34333000D01*
X217056000Y-34304000D01*
X217064000Y-34276000D01*
X217074000Y-34248000D01*
X217085000Y-34221000D01*
X217098000Y-34194000D01*
X217112000Y-34168000D01*
X217127000Y-34143000D01*
X217144000Y-34119000D01*
X217162000Y-34095000D01*
X217181000Y-34073000D01*
X217202000Y-34052000D01*
X217223000Y-34031000D01*
X217245000Y-34012000D01*
X217269000Y-33994000D01*
X217293000Y-33977000D01*
X217318000Y-33962000D01*
X217344000Y-33948000D01*
X217371000Y-33935000D01*
X217398000Y-33924000D01*
X217426000Y-33914000D01*
X217454000Y-33906000D01*
X217483000Y-33899000D01*
X217512000Y-33893000D01*
X217541000Y-33890000D01*
X217571000Y-33887000D01*
X217600000Y-33886000D01*
X218963500Y-33886500D01*
X218964000Y-33886000D01*
X218964000Y-35913000D01*
G37*
%TD*%
D12*
%TO.C,PAW1*%
X215850000Y-96247500D03*
X215850000Y-98027500D03*
X215850000Y-99807500D03*
X215850000Y-101587500D03*
X215850000Y-103367500D03*
X215850000Y-105147500D03*
X215850000Y-106927500D03*
X215850000Y-108707500D03*
X226550000Y-109597500D03*
X226550000Y-107817500D03*
X226550000Y-106037500D03*
X226550000Y-104257500D03*
X226550000Y-102477500D03*
X226550000Y-100697500D03*
X226550000Y-98917500D03*
X226550000Y-97137500D03*
%TD*%
D13*
%TO.C,PWRSW1*%
X246325001Y-78709999D03*
X245825000Y-78709999D03*
X245325000Y-78709999D03*
X244824999Y-78709999D03*
X244824999Y-80190001D03*
X245325000Y-80190001D03*
X245825000Y-80190001D03*
X246325001Y-80190001D03*
%TD*%
D14*
%TO.C,CHGR1*%
X235404600Y-73169999D03*
X235404600Y-74120000D03*
X235404600Y-75070001D03*
X237995400Y-75070001D03*
X237995400Y-73169999D03*
%TD*%
D15*
%TO.C,SMB5*%
X213450000Y-119870000D03*
X213450000Y-124950000D03*
X213450000Y-130030000D03*
%TD*%
D16*
%TO.C,J4*%
X226250000Y-124200001D03*
X226250000Y-123700000D03*
X226250000Y-123200000D03*
X226250000Y-122699999D03*
D17*
X228949999Y-126499999D03*
X228949999Y-120400001D03*
%TD*%
%TO.C,J6*%
X197500001Y-68950000D03*
X197500001Y-62850002D03*
D16*
X200200000Y-66650002D03*
X200200000Y-66150001D03*
X200200000Y-65650001D03*
X200200000Y-65150000D03*
%TD*%
D18*
%TO.C,R1*%
X231200000Y-104257500D03*
X231840000Y-104257500D03*
%TD*%
%TO.C,C7*%
X232880000Y-99950000D03*
X233520000Y-99950000D03*
%TD*%
%TO.C,R2*%
X232200000Y-73169999D03*
X232840000Y-73169999D03*
%TD*%
%TO.C,R11*%
X230560000Y-98917500D03*
X231200000Y-98917500D03*
%TD*%
D19*
%TO.C,C8*%
X233700000Y-75810000D03*
X233700000Y-76450000D03*
%TD*%
D20*
%TO.C,D2*%
X231200000Y-73169999D03*
X230560000Y-73169999D03*
%TD*%
D18*
%TO.C,R3*%
X232840000Y-74120000D03*
X232200000Y-74120000D03*
%TD*%
D19*
%TO.C,C3*%
X210200000Y-108067500D03*
X210200000Y-108707500D03*
%TD*%
D21*
%TO.C,C4*%
X209200000Y-108707500D03*
X209200000Y-108067500D03*
%TD*%
D20*
%TO.C,D1*%
X233520000Y-98917500D03*
X232880000Y-98917500D03*
%TD*%
D21*
%TO.C,C6*%
X211200000Y-108707500D03*
X211200000Y-108067500D03*
%TD*%
D19*
%TO.C,C5*%
X212200000Y-108067500D03*
X212200000Y-108707500D03*
%TD*%
%TO.C,C9*%
X240200000Y-73169999D03*
X240200000Y-73809999D03*
%TD*%
D20*
%TO.C,R20*%
X244520000Y-51520000D03*
X243880000Y-51520000D03*
%TD*%
D19*
%TO.C,R18*%
X225200000Y-42925000D03*
X225200000Y-42285000D03*
%TD*%
%TO.C,R7*%
X202200000Y-81440000D03*
X202200000Y-80800000D03*
%TD*%
D22*
%TO.C,U1*%
X238750000Y-80087500D03*
X239700000Y-80087500D03*
X240650000Y-80087500D03*
X240650000Y-77812500D03*
X238750000Y-77812500D03*
%TD*%
D15*
%TO.C,MMB1*%
X210200000Y-62030000D03*
X210200000Y-56950000D03*
X210200000Y-51870000D03*
%TD*%
D20*
%TO.C,R10*%
X203380000Y-82620000D03*
X204020000Y-82620000D03*
%TD*%
D19*
%TO.C,R17*%
X226200000Y-43770000D03*
X226200000Y-43130000D03*
%TD*%
D21*
%TO.C,C11*%
X237200000Y-80130000D03*
X237200000Y-80770000D03*
%TD*%
D20*
%TO.C,R9*%
X203380000Y-79620000D03*
X204020000Y-79620000D03*
%TD*%
D19*
%TO.C,C14*%
X203200000Y-73270000D03*
X203200000Y-72630000D03*
%TD*%
D23*
%TO.C,ENC1*%
X232200000Y-57950000D03*
X232200000Y-55450000D03*
X232200000Y-52950000D03*
%TD*%
D21*
%TO.C,R8*%
X203200000Y-75130000D03*
X203200000Y-75770000D03*
%TD*%
D15*
%TO.C,LMB1*%
X203700000Y-46370000D03*
X203700000Y-51450000D03*
X203700000Y-56530000D03*
%TD*%
D24*
%TO.C,XTAL1*%
X199700000Y-80027800D03*
X199700000Y-82212200D03*
%TD*%
D18*
%TO.C,R13*%
X199020000Y-56530000D03*
X198380000Y-56530000D03*
%TD*%
D15*
%TO.C,RMB1*%
X239200000Y-46440000D03*
X239200000Y-51520000D03*
X239200000Y-56600000D03*
%TD*%
D18*
%TO.C,R12*%
X199020000Y-53950000D03*
X198380000Y-53950000D03*
%TD*%
D21*
%TO.C,C10*%
X236200000Y-80130000D03*
X236200000Y-80770000D03*
%TD*%
D19*
%TO.C,R4*%
X244824999Y-76770000D03*
X244824999Y-76130000D03*
%TD*%
D18*
%TO.C,R15*%
X235020000Y-57950000D03*
X234380000Y-57950000D03*
%TD*%
D20*
%TO.C,R19*%
X243880000Y-56600000D03*
X244520000Y-56600000D03*
%TD*%
D18*
%TO.C,R14*%
X199020000Y-51450000D03*
X198380000Y-51450000D03*
%TD*%
%TO.C,R16*%
X235020000Y-55450000D03*
X234380000Y-55450000D03*
%TD*%
D15*
%TO.C,SMB4*%
X220450000Y-119870000D03*
X220450000Y-124950000D03*
X220450000Y-130030000D03*
%TD*%
D25*
%TO.C,ESP1*%
X217200000Y-80720000D03*
X215800000Y-80720000D03*
X214400000Y-80720000D03*
X217200000Y-79320000D03*
X215800000Y-79320000D03*
X214400000Y-79320000D03*
X217200000Y-77920000D03*
X215800000Y-77920000D03*
X214400000Y-77920000D03*
D26*
X226050000Y-71600000D03*
X226050000Y-72870000D03*
X226050000Y-74140000D03*
X226050000Y-75410000D03*
X226050000Y-76680000D03*
X226050000Y-77950000D03*
X226050000Y-79220000D03*
X226050000Y-80490000D03*
X226050000Y-81760000D03*
X226050000Y-83030000D03*
X226050000Y-84300000D03*
X226050000Y-85570000D03*
X226050000Y-86840000D03*
X226050000Y-88110000D03*
D27*
X224285000Y-89360000D03*
X223015000Y-89360000D03*
X221745000Y-89360000D03*
X220475000Y-89360000D03*
X219205000Y-89360000D03*
X217935000Y-89360000D03*
X216665000Y-89360000D03*
X215395000Y-89360000D03*
X214125000Y-89360000D03*
X212855000Y-89360000D03*
X211585000Y-89360000D03*
X210315000Y-89360000D03*
D26*
X208550000Y-88110000D03*
X208550000Y-86840000D03*
X208550000Y-85570000D03*
X208550000Y-84300000D03*
X208550000Y-83030000D03*
X208550000Y-81760000D03*
X208550000Y-80490000D03*
X208550000Y-79220000D03*
X208550000Y-77950000D03*
X208550000Y-76680000D03*
X208550000Y-75410000D03*
X208550000Y-74140000D03*
X208550000Y-72870000D03*
X208550000Y-71600000D03*
%TD*%
D21*
%TO.C,C1*%
X211337500Y-99807500D03*
X211337500Y-99167500D03*
%TD*%
D18*
%TO.C,C12*%
X198020000Y-78120000D03*
X197380000Y-78120000D03*
%TD*%
D28*
%TO.C,U3*%
X205322050Y-98537499D03*
X205322050Y-99487500D03*
X205322050Y-100437501D03*
X208077950Y-100437501D03*
X208077950Y-98537499D03*
%TD*%
D19*
%TO.C,C2*%
X210337500Y-99807500D03*
X210337500Y-99167500D03*
%TD*%
D21*
%TO.C,R6*%
X246325001Y-82810000D03*
X246325001Y-83450000D03*
%TD*%
D29*
%TO.C,J2*%
X245075001Y-71600000D03*
X243074999Y-71600000D03*
D30*
X246575000Y-69900000D03*
%TD*%
D19*
%TO.C,R5*%
X245825000Y-76770000D03*
X245825000Y-76130000D03*
%TD*%
D31*
%TO.C,S4*%
X241200000Y-85120000D03*
D32*
X238700000Y-85120000D03*
X236200000Y-85120000D03*
%TD*%
D18*
%TO.C,C13*%
X198020000Y-84120000D03*
X197380000Y-84120000D03*
%TD*%
M02*
