%TF.GenerationSoftware,KiCad,Pcbnew,7.0.7*%
%TF.CreationDate,2023-11-26T12:29:05-07:00*%
%TF.ProjectId,mouse,6d6f7573-652e-46b6-9963-61645f706362,rev?*%
%TF.SameCoordinates,Original*%
%TF.FileFunction,Copper,L1,Top*%
%TF.FilePolarity,Positive*%
%FSLAX46Y46*%
G04 Gerber Fmt 4.6, Leading zero omitted, Abs format (unit mm)*
G04 Created by KiCad (PCBNEW 7.0.7) date 2023-11-26 12:29:05*
%MOMM*%
%LPD*%
G01*
G04 APERTURE LIST*
G04 Aperture macros list*
%AMRoundRect*
0 Rectangle with rounded corners*
0 $1 Rounding radius*
0 $2 $3 $4 $5 $6 $7 $8 $9 X,Y pos of 4 corners*
0 Add a 4 corners polygon primitive as box body*
4,1,4,$2,$3,$4,$5,$6,$7,$8,$9,$2,$3,0*
0 Add four circle primitives for the rounded corners*
1,1,$1+$1,$2,$3*
1,1,$1+$1,$4,$5*
1,1,$1+$1,$6,$7*
1,1,$1+$1,$8,$9*
0 Add four rect primitives between the rounded corners*
20,1,$1+$1,$2,$3,$4,$5,0*
20,1,$1+$1,$4,$5,$6,$7,0*
20,1,$1+$1,$6,$7,$8,$9,0*
20,1,$1+$1,$8,$9,$2,$3,0*%
G04 Aperture macros list end*
%TA.AperFunction,EtchedComponent*%
%ADD10C,0.010000*%
%TD*%
%TA.AperFunction,ComponentPad*%
%ADD11O,1.500000X1.200000*%
%TD*%
%TA.AperFunction,SMDPad,CuDef*%
%ADD12R,0.299999X0.670001*%
%TD*%
%TA.AperFunction,SMDPad,CuDef*%
%ADD13R,1.320800X0.508000*%
%TD*%
%TA.AperFunction,ComponentPad*%
%ADD14O,1.000000X1.500000*%
%TD*%
%TA.AperFunction,SMDPad,CuDef*%
%ADD15R,1.000000X0.300000*%
%TD*%
%TA.AperFunction,SMDPad,CuDef*%
%ADD16R,1.300000X2.000000*%
%TD*%
%TA.AperFunction,SMDPad,CuDef*%
%ADD17RoundRect,0.100000X-0.130000X-0.100000X0.130000X-0.100000X0.130000X0.100000X-0.130000X0.100000X0*%
%TD*%
%TA.AperFunction,SMDPad,CuDef*%
%ADD18RoundRect,0.100000X-0.100000X0.130000X-0.100000X-0.130000X0.100000X-0.130000X0.100000X0.130000X0*%
%TD*%
%TA.AperFunction,SMDPad,CuDef*%
%ADD19RoundRect,0.100000X0.130000X0.100000X-0.130000X0.100000X-0.130000X-0.100000X0.130000X-0.100000X0*%
%TD*%
%TA.AperFunction,SMDPad,CuDef*%
%ADD20RoundRect,0.100000X0.100000X-0.130000X0.100000X0.130000X-0.100000X0.130000X-0.100000X-0.130000X0*%
%TD*%
%TA.AperFunction,SMDPad,CuDef*%
%ADD21RoundRect,0.150000X0.150000X-0.512500X0.150000X0.512500X-0.150000X0.512500X-0.150000X-0.512500X0*%
%TD*%
%TA.AperFunction,ComponentPad*%
%ADD22C,1.500000*%
%TD*%
%TA.AperFunction,SMDPad,CuDef*%
%ADD23R,0.400000X1.350000*%
%TD*%
%TA.AperFunction,ComponentPad*%
%ADD24C,1.450000*%
%TD*%
%TA.AperFunction,ComponentPad*%
%ADD25O,1.200000X1.900000*%
%TD*%
%TA.AperFunction,SMDPad,CuDef*%
%ADD26R,1.500000X1.900000*%
%TD*%
%TA.AperFunction,SMDPad,CuDef*%
%ADD27R,1.397000X1.422400*%
%TD*%
%TA.AperFunction,ComponentPad*%
%ADD28C,0.400000*%
%TD*%
%TA.AperFunction,SMDPad,CuDef*%
%ADD29R,0.900000X0.900000*%
%TD*%
%TA.AperFunction,SMDPad,CuDef*%
%ADD30R,1.500000X0.900000*%
%TD*%
%TA.AperFunction,SMDPad,CuDef*%
%ADD31R,0.900000X1.500000*%
%TD*%
%TA.AperFunction,SMDPad,CuDef*%
%ADD32R,1.003300X0.508000*%
%TD*%
%TA.AperFunction,ComponentPad*%
%ADD33C,1.320800*%
%TD*%
%TA.AperFunction,ComponentPad*%
%ADD34C,1.701800*%
%TD*%
%TA.AperFunction,ComponentPad*%
%ADD35R,1.900000X1.900000*%
%TD*%
%TA.AperFunction,ComponentPad*%
%ADD36C,1.900000*%
%TD*%
%TA.AperFunction,ViaPad*%
%ADD37C,0.800000*%
%TD*%
%TA.AperFunction,ViaPad*%
%ADD38C,0.600000*%
%TD*%
%TA.AperFunction,Conductor*%
%ADD39C,0.250000*%
%TD*%
%TA.AperFunction,Conductor*%
%ADD40C,0.200000*%
%TD*%
G04 APERTURE END LIST*
%TO.C,J5*%
D10*
X224826000Y-33951000D02*
X224852000Y-33953000D01*
X224878000Y-33956000D01*
X224904000Y-33961000D01*
X224929000Y-33967000D01*
X224955000Y-33974000D01*
X224979000Y-33983000D01*
X225003000Y-33993000D01*
X225027000Y-34004000D01*
X225050000Y-34017000D01*
X225072000Y-34031000D01*
X225094000Y-34045000D01*
X225115000Y-34061000D01*
X225135000Y-34078000D01*
X225154000Y-34096000D01*
X225172000Y-34115000D01*
X225189000Y-34135000D01*
X225205000Y-34156000D01*
X225219000Y-34178000D01*
X225233000Y-34200000D01*
X225246000Y-34223000D01*
X225257000Y-34247000D01*
X225267000Y-34271000D01*
X225276000Y-34295000D01*
X225283000Y-34321000D01*
X225289000Y-34346000D01*
X225294000Y-34372000D01*
X225297000Y-34398000D01*
X225299000Y-34424000D01*
X225300000Y-34450000D01*
X225300000Y-35350000D01*
X225299000Y-35376000D01*
X225297000Y-35402000D01*
X225294000Y-35428000D01*
X225289000Y-35454000D01*
X225283000Y-35479000D01*
X225276000Y-35505000D01*
X225267000Y-35529000D01*
X225257000Y-35553000D01*
X225246000Y-35577000D01*
X225233000Y-35600000D01*
X225219000Y-35622000D01*
X225205000Y-35644000D01*
X225189000Y-35665000D01*
X225172000Y-35685000D01*
X225154000Y-35704000D01*
X225135000Y-35722000D01*
X225115000Y-35739000D01*
X225094000Y-35755000D01*
X225072000Y-35769000D01*
X225050000Y-35783000D01*
X225027000Y-35796000D01*
X225003000Y-35807000D01*
X224979000Y-35817000D01*
X224955000Y-35826000D01*
X224929000Y-35833000D01*
X224904000Y-35839000D01*
X224878000Y-35844000D01*
X224852000Y-35847000D01*
X224826000Y-35849000D01*
X224800000Y-35850000D01*
X223500000Y-35850000D01*
X223500000Y-33950000D01*
X224800000Y-33950000D01*
X224826000Y-33951000D01*
%TA.AperFunction,EtchedComponent*%
G36*
X224826000Y-33951000D02*
G01*
X224852000Y-33953000D01*
X224878000Y-33956000D01*
X224904000Y-33961000D01*
X224929000Y-33967000D01*
X224955000Y-33974000D01*
X224979000Y-33983000D01*
X225003000Y-33993000D01*
X225027000Y-34004000D01*
X225050000Y-34017000D01*
X225072000Y-34031000D01*
X225094000Y-34045000D01*
X225115000Y-34061000D01*
X225135000Y-34078000D01*
X225154000Y-34096000D01*
X225172000Y-34115000D01*
X225189000Y-34135000D01*
X225205000Y-34156000D01*
X225219000Y-34178000D01*
X225233000Y-34200000D01*
X225246000Y-34223000D01*
X225257000Y-34247000D01*
X225267000Y-34271000D01*
X225276000Y-34295000D01*
X225283000Y-34321000D01*
X225289000Y-34346000D01*
X225294000Y-34372000D01*
X225297000Y-34398000D01*
X225299000Y-34424000D01*
X225300000Y-34450000D01*
X225300000Y-35350000D01*
X225299000Y-35376000D01*
X225297000Y-35402000D01*
X225294000Y-35428000D01*
X225289000Y-35454000D01*
X225283000Y-35479000D01*
X225276000Y-35505000D01*
X225267000Y-35529000D01*
X225257000Y-35553000D01*
X225246000Y-35577000D01*
X225233000Y-35600000D01*
X225219000Y-35622000D01*
X225205000Y-35644000D01*
X225189000Y-35665000D01*
X225172000Y-35685000D01*
X225154000Y-35704000D01*
X225135000Y-35722000D01*
X225115000Y-35739000D01*
X225094000Y-35755000D01*
X225072000Y-35769000D01*
X225050000Y-35783000D01*
X225027000Y-35796000D01*
X225003000Y-35807000D01*
X224979000Y-35817000D01*
X224955000Y-35826000D01*
X224929000Y-35833000D01*
X224904000Y-35839000D01*
X224878000Y-35844000D01*
X224852000Y-35847000D01*
X224826000Y-35849000D01*
X224800000Y-35850000D01*
X223500000Y-35850000D01*
X223500000Y-33950000D01*
X224800000Y-33950000D01*
X224826000Y-33951000D01*
G37*
%TD.AperFunction*%
X218900000Y-35850000D02*
X217600000Y-35850000D01*
X217574000Y-35849000D01*
X217548000Y-35847000D01*
X217522000Y-35844000D01*
X217496000Y-35839000D01*
X217471000Y-35833000D01*
X217445000Y-35826000D01*
X217421000Y-35817000D01*
X217397000Y-35807000D01*
X217373000Y-35796000D01*
X217350000Y-35783000D01*
X217328000Y-35769000D01*
X217306000Y-35755000D01*
X217285000Y-35739000D01*
X217265000Y-35722000D01*
X217246000Y-35704000D01*
X217228000Y-35685000D01*
X217211000Y-35665000D01*
X217195000Y-35644000D01*
X217181000Y-35622000D01*
X217167000Y-35600000D01*
X217154000Y-35577000D01*
X217143000Y-35553000D01*
X217133000Y-35529000D01*
X217124000Y-35505000D01*
X217117000Y-35479000D01*
X217111000Y-35454000D01*
X217106000Y-35428000D01*
X217103000Y-35402000D01*
X217101000Y-35376000D01*
X217100000Y-35350000D01*
X217100000Y-34450000D01*
X217101000Y-34424000D01*
X217103000Y-34398000D01*
X217106000Y-34372000D01*
X217111000Y-34346000D01*
X217117000Y-34321000D01*
X217124000Y-34295000D01*
X217133000Y-34271000D01*
X217143000Y-34247000D01*
X217154000Y-34223000D01*
X217167000Y-34200000D01*
X217181000Y-34178000D01*
X217195000Y-34156000D01*
X217211000Y-34135000D01*
X217228000Y-34115000D01*
X217246000Y-34096000D01*
X217265000Y-34078000D01*
X217285000Y-34061000D01*
X217306000Y-34045000D01*
X217328000Y-34031000D01*
X217350000Y-34017000D01*
X217373000Y-34004000D01*
X217397000Y-33993000D01*
X217421000Y-33983000D01*
X217445000Y-33974000D01*
X217471000Y-33967000D01*
X217496000Y-33961000D01*
X217522000Y-33956000D01*
X217548000Y-33953000D01*
X217574000Y-33951000D01*
X217600000Y-33950000D01*
X218900000Y-33950000D01*
X218900000Y-35850000D01*
%TA.AperFunction,EtchedComponent*%
G36*
X218900000Y-35850000D02*
G01*
X217600000Y-35850000D01*
X217574000Y-35849000D01*
X217548000Y-35847000D01*
X217522000Y-35844000D01*
X217496000Y-35839000D01*
X217471000Y-35833000D01*
X217445000Y-35826000D01*
X217421000Y-35817000D01*
X217397000Y-35807000D01*
X217373000Y-35796000D01*
X217350000Y-35783000D01*
X217328000Y-35769000D01*
X217306000Y-35755000D01*
X217285000Y-35739000D01*
X217265000Y-35722000D01*
X217246000Y-35704000D01*
X217228000Y-35685000D01*
X217211000Y-35665000D01*
X217195000Y-35644000D01*
X217181000Y-35622000D01*
X217167000Y-35600000D01*
X217154000Y-35577000D01*
X217143000Y-35553000D01*
X217133000Y-35529000D01*
X217124000Y-35505000D01*
X217117000Y-35479000D01*
X217111000Y-35454000D01*
X217106000Y-35428000D01*
X217103000Y-35402000D01*
X217101000Y-35376000D01*
X217100000Y-35350000D01*
X217100000Y-34450000D01*
X217101000Y-34424000D01*
X217103000Y-34398000D01*
X217106000Y-34372000D01*
X217111000Y-34346000D01*
X217117000Y-34321000D01*
X217124000Y-34295000D01*
X217133000Y-34271000D01*
X217143000Y-34247000D01*
X217154000Y-34223000D01*
X217167000Y-34200000D01*
X217181000Y-34178000D01*
X217195000Y-34156000D01*
X217211000Y-34135000D01*
X217228000Y-34115000D01*
X217246000Y-34096000D01*
X217265000Y-34078000D01*
X217285000Y-34061000D01*
X217306000Y-34045000D01*
X217328000Y-34031000D01*
X217350000Y-34017000D01*
X217373000Y-34004000D01*
X217397000Y-33993000D01*
X217421000Y-33983000D01*
X217445000Y-33974000D01*
X217471000Y-33967000D01*
X217496000Y-33961000D01*
X217522000Y-33956000D01*
X217548000Y-33953000D01*
X217574000Y-33951000D01*
X217600000Y-33950000D01*
X218900000Y-33950000D01*
X218900000Y-35850000D01*
G37*
%TD.AperFunction*%
%TD*%
D11*
%TO.P,PAW1,1,NC1*%
%TO.N,unconnected-(PAW1-NC1-Pad1)*%
X215850000Y-96247500D03*
%TO.P,PAW1,2,NC2*%
%TO.N,unconnected-(PAW1-NC2-Pad2)*%
X215850000Y-98027500D03*
%TO.P,PAW1,3,GND*%
%TO.N,GND*%
X215850000Y-99807500D03*
%TO.P,PAW1,4,VDD*%
%TO.N,PWR_1.9V*%
X215850000Y-101587500D03*
%TO.P,PAW1,5,VDDREG*%
%TO.N,VDDREG*%
X215850000Y-103367500D03*
%TO.P,PAW1,6,NC6*%
%TO.N,unconnected-(PAW1-NC6-Pad6)*%
X215850000Y-105147500D03*
%TO.P,PAW1,7,VDDIO*%
%TO.N,PWR_3.3V*%
X215850000Y-106927500D03*
%TO.P,PAW1,8,GNDIO*%
%TO.N,GND1*%
X215850000Y-108707500D03*
%TO.P,PAW1,9,MOTION*%
%TO.N,MOTION*%
X226550000Y-109597500D03*
%TO.P,PAW1,10,SCLK*%
%TO.N,SCLK*%
X226550000Y-107817500D03*
%TO.P,PAW1,11,MOSI*%
%TO.N,MOSI*%
X226550000Y-106037500D03*
%TO.P,PAW1,12,MISO*%
%TO.N,MISO*%
X226550000Y-104257500D03*
%TO.P,PAW1,13,NCS*%
%TO.N,NCS*%
X226550000Y-102477500D03*
%TO.P,PAW1,14,NRESET*%
%TO.N,NRESET*%
X226550000Y-100697500D03*
%TO.P,PAW1,15,LED_P*%
%TO.N,LED_P*%
X226550000Y-98917500D03*
%TO.P,PAW1,16,NC16*%
%TO.N,unconnected-(PAW1-NC16-Pad16)*%
X226550000Y-97137500D03*
%TD*%
D12*
%TO.P,PWRSW1,1,GND*%
%TO.N,GND*%
X246325001Y-78709999D03*
%TO.P,PWRSW1,2,VOUT*%
%TO.N,PWR_OUT*%
X245825000Y-78709999D03*
%TO.P,PWRSW1,3,VIN1*%
%TO.N,VBUS*%
X245325000Y-78709999D03*
%TO.P,PWRSW1,4,PR1*%
%TO.N,Net-(PWRSW1-PR1)*%
X244824999Y-78709999D03*
%TO.P,PWRSW1,5,MODE*%
%TO.N,VBUS*%
X244824999Y-80190001D03*
%TO.P,PWRSW1,6,VIN2*%
%TO.N,+BATT*%
X245325000Y-80190001D03*
%TO.P,PWRSW1,7,VOUT*%
%TO.N,PWR_OUT*%
X245825000Y-80190001D03*
%TO.P,PWRSW1,8,ST*%
%TO.N,PWRSTAT*%
X246325001Y-80190001D03*
%TD*%
D13*
%TO.P,CHGR1,1,STAT*%
%TO.N,Net-(CHGR1-STAT)*%
X235404600Y-73169999D03*
%TO.P,CHGR1,2,VSS*%
%TO.N,Net-(CHGR1-VSS)*%
X235404600Y-74120000D03*
%TO.P,CHGR1,3,VBAT*%
%TO.N,+BATT*%
X235404600Y-75070001D03*
%TO.P,CHGR1,4,VDD*%
%TO.N,VBUS*%
X237995400Y-75070001D03*
%TO.P,CHGR1,5,PROG*%
%TO.N,GND*%
X237995400Y-73169999D03*
%TD*%
D14*
%TO.P,SMB5,1,COM*%
%TO.N,SW4_COM_OFF*%
X213450000Y-119870000D03*
%TO.P,SMB5,2,NO*%
%TO.N,PWR_3.3V_OFF*%
X213450000Y-124950000D03*
%TO.P,SMB5,3,NC*%
%TO.N,GND_OFF*%
X213450000Y-130030000D03*
%TD*%
D15*
%TO.P,J4,1,1*%
%TO.N,unconnected-(J4-Pad1)*%
X226250000Y-124200001D03*
%TO.P,J4,2,2*%
%TO.N,unconnected-(J4-Pad2)*%
X226250000Y-123700000D03*
%TO.P,J4,3,3*%
%TO.N,SW4_COM_OFF*%
X226250000Y-123200000D03*
%TO.P,J4,4,4*%
%TO.N,SW3_COM_OFF*%
X226250000Y-122699999D03*
D16*
%TO.P,J4,P1,P1*%
%TO.N,GND_OFF*%
X228949999Y-126499999D03*
%TO.P,J4,P2,P2*%
%TO.N,PWR_3.3V_OFF*%
X228949999Y-120400001D03*
%TD*%
%TO.P,J6,P2,P2*%
%TO.N,PWR_3.3V*%
X197500001Y-68950000D03*
%TO.P,J6,P1,P1*%
%TO.N,GND*%
X197500001Y-62850002D03*
D15*
%TO.P,J6,4,4*%
%TO.N,SW4_COM*%
X200200000Y-66650002D03*
%TO.P,J6,3,3*%
%TO.N,SW3_COM*%
X200200000Y-66150001D03*
%TO.P,J6,2,2*%
%TO.N,unconnected-(J6-Pad2)*%
X200200000Y-65650001D03*
%TO.P,J6,1,1*%
%TO.N,unconnected-(J6-Pad1)*%
X200200000Y-65150000D03*
%TD*%
D17*
%TO.P,R1,1*%
%TO.N,MISO*%
X231200000Y-104257500D03*
%TO.P,R1,2*%
%TO.N,PWR_3.3V*%
X231840000Y-104257500D03*
%TD*%
%TO.P,C7,1*%
%TO.N,Net-(D1-A)*%
X232880000Y-99950000D03*
%TO.P,C7,2*%
%TO.N,GND*%
X233520000Y-99950000D03*
%TD*%
%TO.P,R2,1*%
%TO.N,Net-(D2-K)*%
X232200000Y-73169999D03*
%TO.P,R2,2*%
%TO.N,Net-(CHGR1-STAT)*%
X232840000Y-73169999D03*
%TD*%
%TO.P,R11,1*%
%TO.N,LED_P*%
X230560000Y-98917500D03*
%TO.P,R11,2*%
%TO.N,Net-(D1-A)*%
X231200000Y-98917500D03*
%TD*%
D18*
%TO.P,C8,1*%
%TO.N,GND*%
X233700000Y-75810000D03*
%TO.P,C8,2*%
%TO.N,+BATT*%
X233700000Y-76450000D03*
%TD*%
D19*
%TO.P,D2,1,K*%
%TO.N,Net-(D2-K)*%
X231200000Y-73169999D03*
%TO.P,D2,2,A*%
%TO.N,VBUS*%
X230560000Y-73169999D03*
%TD*%
D17*
%TO.P,R3,2*%
%TO.N,Net-(CHGR1-VSS)*%
X232840000Y-74120000D03*
%TO.P,R3,1*%
%TO.N,GND*%
X232200000Y-74120000D03*
%TD*%
D18*
%TO.P,C3,1*%
%TO.N,VDDREG*%
X210200000Y-108067500D03*
%TO.P,C3,2*%
%TO.N,GND1*%
X210200000Y-108707500D03*
%TD*%
D20*
%TO.P,C4,1*%
%TO.N,GND1*%
X209200000Y-108707500D03*
%TO.P,C4,2*%
%TO.N,VDDREG*%
X209200000Y-108067500D03*
%TD*%
D19*
%TO.P,D1,1,K*%
%TO.N,GND*%
X233520000Y-98917500D03*
%TO.P,D1,2,A*%
%TO.N,Net-(D1-A)*%
X232880000Y-98917500D03*
%TD*%
D20*
%TO.P,C6,1*%
%TO.N,GND1*%
X211200000Y-108707500D03*
%TO.P,C6,2*%
%TO.N,PWR_3.3V*%
X211200000Y-108067500D03*
%TD*%
D18*
%TO.P,C5,1*%
%TO.N,PWR_3.3V*%
X212200000Y-108067500D03*
%TO.P,C5,2*%
%TO.N,GND1*%
X212200000Y-108707500D03*
%TD*%
%TO.P,C9,1*%
%TO.N,GND*%
X240200000Y-73169999D03*
%TO.P,C9,2*%
%TO.N,VBUS*%
X240200000Y-73809999D03*
%TD*%
D19*
%TO.P,R20,1*%
%TO.N,PWR_3.3V*%
X244520000Y-51520000D03*
%TO.P,R20,2*%
%TO.N,SW2_NO*%
X243880000Y-51520000D03*
%TD*%
D18*
%TO.P,R18,2*%
%TO.N,Net-(J5-D-)*%
X225200000Y-42925000D03*
%TO.P,R18,1*%
%TO.N,USB_D-*%
X225200000Y-42285000D03*
%TD*%
%TO.P,R7,2*%
%TO.N,Net-(C13-Pad2)*%
X202200000Y-81440000D03*
%TO.P,R7,1*%
%TO.N,Net-(C12-Pad2)*%
X202200000Y-80800000D03*
%TD*%
D21*
%TO.P,U1,1,VIN*%
%TO.N,PWR_OUT*%
X238750000Y-80087500D03*
%TO.P,U1,2,GND*%
%TO.N,GND*%
X239700000Y-80087500D03*
%TO.P,U1,3,EN*%
%TO.N,PWR_EN*%
X240650000Y-80087500D03*
%TO.P,U1,4,NC*%
%TO.N,unconnected-(U1-NC-Pad4)*%
X240650000Y-77812500D03*
%TO.P,U1,5,VOUT*%
%TO.N,PWR_3.3V*%
X238750000Y-77812500D03*
%TD*%
D14*
%TO.P,MMB1,3,NC*%
%TO.N,GND*%
X210200000Y-62030000D03*
%TO.P,MMB1,2,NO*%
%TO.N,SW5_NO*%
X210200000Y-56950000D03*
%TO.P,MMB1,1,COM*%
%TO.N,SCROLL_CLICK*%
X210200000Y-51870000D03*
%TD*%
D19*
%TO.P,R10,2*%
%TO.N,Net-(C13-Pad2)*%
X203380000Y-82620000D03*
%TO.P,R10,1*%
%TO.N,XTAL2*%
X204020000Y-82620000D03*
%TD*%
D18*
%TO.P,R17,2*%
%TO.N,Net-(J5-D+)*%
X226200000Y-43770000D03*
%TO.P,R17,1*%
%TO.N,USB_D+*%
X226200000Y-43130000D03*
%TD*%
D20*
%TO.P,C11,2*%
%TO.N,PWR_3.3V*%
X237200000Y-80130000D03*
%TO.P,C11,1*%
%TO.N,GND*%
X237200000Y-80770000D03*
%TD*%
D19*
%TO.P,R9,2*%
%TO.N,Net-(C12-Pad2)*%
X203380000Y-79620000D03*
%TO.P,R9,1*%
%TO.N,XTAL1*%
X204020000Y-79620000D03*
%TD*%
D18*
%TO.P,C14,2*%
%TO.N,EN*%
X203200000Y-73270000D03*
%TO.P,C14,1*%
%TO.N,GND*%
X203200000Y-72630000D03*
%TD*%
D22*
%TO.P,ENC1,1,A*%
%TO.N,SCROLL_UP*%
X232200000Y-57950000D03*
%TO.P,ENC1,2,B*%
%TO.N,SCROLL_DOWN*%
X232200000Y-55450000D03*
%TO.P,ENC1,3,COM*%
%TO.N,GND*%
X232200000Y-52950000D03*
%TD*%
D23*
%TO.P,J5,1,VBUS*%
%TO.N,VBUS*%
X222500000Y-37575000D03*
%TO.P,J5,2,D-*%
%TO.N,Net-(J5-D-)*%
X221850000Y-37575000D03*
%TO.P,J5,3,D+*%
%TO.N,Net-(J5-D+)*%
X221200000Y-37575000D03*
%TO.P,J5,4,ID*%
%TO.N,unconnected-(J5-ID-Pad4)*%
X220550000Y-37575000D03*
%TO.P,J5,5,GND*%
%TO.N,GND*%
X219900000Y-37575000D03*
D24*
%TO.P,J5,SH1,SHIELD1*%
X223700000Y-37600000D03*
%TO.P,J5,SH2,SHIELD2*%
X218700000Y-37600000D03*
D25*
%TO.P,J5,SH3,SHIELD3*%
%TO.N,unconnected-(J5-SHIELD3-PadSH3)*%
X224700000Y-34900000D03*
D26*
%TO.P,J5,SH4,SHIELD4*%
%TO.N,GND*%
X222200000Y-34900000D03*
%TO.P,J5,SH5,SHIELD5*%
X220200000Y-34900000D03*
D25*
%TO.P,J5,SH6,SHIELD6*%
%TO.N,unconnected-(J5-SHIELD6-PadSH6)*%
X217700000Y-34900000D03*
%TD*%
D20*
%TO.P,R8,2*%
%TO.N,EN*%
X203200000Y-75130000D03*
%TO.P,R8,1*%
%TO.N,PWR_3.3V*%
X203200000Y-75770000D03*
%TD*%
D14*
%TO.P,LMB1,1,COM*%
%TO.N,GND*%
X203700000Y-46370000D03*
%TO.P,LMB1,2,NO*%
%TO.N,SW1_NO*%
X203700000Y-51450000D03*
%TO.P,LMB1,3,NC*%
%TO.N,SW1_NC*%
X203700000Y-56530000D03*
%TD*%
D27*
%TO.P,XTAL1,1,1*%
%TO.N,Net-(C12-Pad2)*%
X199700000Y-80027800D03*
%TO.P,XTAL1,2,2*%
%TO.N,Net-(C13-Pad2)*%
X199700000Y-82212200D03*
%TD*%
D17*
%TO.P,R13,2*%
%TO.N,SW1_NC*%
X199020000Y-56530000D03*
%TO.P,R13,1*%
%TO.N,PWR_3.3V*%
X198380000Y-56530000D03*
%TD*%
D14*
%TO.P,RMB1,1,COM*%
%TO.N,GND*%
X239200000Y-46440000D03*
%TO.P,RMB1,2,NO*%
%TO.N,SW2_NO*%
X239200000Y-51520000D03*
%TO.P,RMB1,3,NC*%
%TO.N,SW2_NC*%
X239200000Y-56600000D03*
%TD*%
D17*
%TO.P,R12,2*%
%TO.N,SW5_NO*%
X199020000Y-53950000D03*
%TO.P,R12,1*%
%TO.N,PWR_3.3V*%
X198380000Y-53950000D03*
%TD*%
D20*
%TO.P,C10,2*%
%TO.N,PWR_3.3V*%
X236200000Y-80130000D03*
%TO.P,C10,1*%
%TO.N,GND*%
X236200000Y-80770000D03*
%TD*%
D18*
%TO.P,R4,2*%
%TO.N,Net-(PWRSW1-PR1)*%
X244824999Y-76770000D03*
%TO.P,R4,1*%
%TO.N,VBUS*%
X244824999Y-76130000D03*
%TD*%
D17*
%TO.P,R15,2*%
%TO.N,PWR_3.3V*%
X235020000Y-57950000D03*
%TO.P,R15,1*%
%TO.N,SCROLL_UP*%
X234380000Y-57950000D03*
%TD*%
D19*
%TO.P,R19,2*%
%TO.N,SW2_NC*%
X243880000Y-56600000D03*
%TO.P,R19,1*%
%TO.N,PWR_3.3V*%
X244520000Y-56600000D03*
%TD*%
D17*
%TO.P,R14,2*%
%TO.N,SW1_NO*%
X199020000Y-51450000D03*
%TO.P,R14,1*%
%TO.N,PWR_3.3V*%
X198380000Y-51450000D03*
%TD*%
%TO.P,R16,2*%
%TO.N,PWR_3.3V*%
X235020000Y-55450000D03*
%TO.P,R16,1*%
%TO.N,SCROLL_DOWN*%
X234380000Y-55450000D03*
%TD*%
D14*
%TO.P,SMB4,1,COM*%
%TO.N,SW3_COM_OFF*%
X220450000Y-119870000D03*
%TO.P,SMB4,2,NO*%
%TO.N,PWR_3.3V_OFF*%
X220450000Y-124950000D03*
%TO.P,SMB4,3,NC*%
%TO.N,GND_OFF*%
X220450000Y-130030000D03*
%TD*%
D28*
%TO.P,ESP1,41_21*%
%TO.N,N/C*%
X216500000Y-80720000D03*
%TO.P,ESP1,41_20*%
X215100000Y-80720000D03*
%TO.P,ESP1,41_19*%
X217200000Y-80020000D03*
%TO.P,ESP1,41_18*%
X215800000Y-80020000D03*
%TO.P,ESP1,41_17*%
X214400000Y-80020000D03*
%TO.P,ESP1,41_16*%
X216500000Y-79320000D03*
%TO.P,ESP1,41_15*%
X215100000Y-79320000D03*
%TO.P,ESP1,41_14*%
X217200000Y-78620000D03*
%TO.P,ESP1,41_13*%
X215800000Y-78620000D03*
%TO.P,ESP1,41_12*%
X214400000Y-78620000D03*
%TO.P,ESP1,41_11*%
X216500000Y-77920000D03*
%TO.P,ESP1,41_10*%
X215100000Y-77920000D03*
D29*
%TO.P,ESP1,41_9,GND*%
%TO.N,GND*%
X217200000Y-80720000D03*
%TO.P,ESP1,41_8,GND*%
X215800000Y-80720000D03*
%TO.P,ESP1,41_7,GND*%
X214400000Y-80720000D03*
%TO.P,ESP1,41_6,GND*%
X217200000Y-79320000D03*
%TO.P,ESP1,41_5,GND*%
X215800000Y-79320000D03*
%TO.P,ESP1,41_4,GND*%
X214400000Y-79320000D03*
%TO.P,ESP1,41_3,GND*%
X217200000Y-77920000D03*
%TO.P,ESP1,41_2,GND*%
X215800000Y-77920000D03*
%TO.P,ESP1,41_1,GND*%
X214400000Y-77920000D03*
D30*
%TO.P,ESP1,40,GND*%
X226050000Y-71600000D03*
%TO.P,ESP1,39,IO1*%
%TO.N,PWR_1.9V_EN*%
X226050000Y-72870000D03*
%TO.P,ESP1,38,IO2*%
%TO.N,MOTION*%
X226050000Y-74140000D03*
%TO.P,ESP1,37,TXD0*%
%TO.N,TXD0*%
X226050000Y-75410000D03*
%TO.P,ESP1,36,RXD0*%
%TO.N,RXD0*%
X226050000Y-76680000D03*
%TO.P,ESP1,35,MTMS*%
%TO.N,TMS*%
X226050000Y-77950000D03*
%TO.P,ESP1,34,MTDI*%
%TO.N,TDI*%
X226050000Y-79220000D03*
%TO.P,ESP1,33,MTDO*%
%TO.N,TDO*%
X226050000Y-80490000D03*
%TO.P,ESP1,32,MTCK*%
%TO.N,TCK*%
X226050000Y-81760000D03*
%TO.P,ESP1,31,NRESET*%
%TO.N,NRESET*%
X226050000Y-83030000D03*
%TO.P,ESP1,30,MISO*%
%TO.N,MISO*%
X226050000Y-84300000D03*
%TO.P,ESP1,29,SCLK*%
%TO.N,SCLK*%
X226050000Y-85570000D03*
%TO.P,ESP1,28,MOSI*%
%TO.N,MOSI*%
X226050000Y-86840000D03*
%TO.P,ESP1,27,NCS*%
%TO.N,NCS*%
X226050000Y-88110000D03*
D31*
%TO.P,ESP1,26,IO45*%
%TO.N,unconnected-(ESP1-IO45-Pad26)*%
X224285000Y-89360000D03*
%TO.P,ESP1,25,IO48*%
%TO.N,unconnected-(ESP1-IO48-Pad25)*%
X223015000Y-89360000D03*
%TO.P,ESP1,24,IO47*%
%TO.N,unconnected-(ESP1-IO47-Pad24)*%
X221745000Y-89360000D03*
%TO.P,ESP1,23,IO21*%
%TO.N,unconnected-(ESP1-IO21-Pad23)*%
X220475000Y-89360000D03*
%TO.P,ESP1,22,IO14*%
%TO.N,unconnected-(ESP1-IO14-Pad22)*%
X219205000Y-89360000D03*
%TO.P,ESP1,21,IO13*%
%TO.N,unconnected-(ESP1-IO13-Pad21)*%
X217935000Y-89360000D03*
%TO.P,ESP1,20,IO12*%
%TO.N,unconnected-(ESP1-IO12-Pad20)*%
X216665000Y-89360000D03*
%TO.P,ESP1,19,IO11*%
%TO.N,SW3_COM*%
X215395000Y-89360000D03*
%TO.P,ESP1,18,IO10*%
%TO.N,SW4_COM*%
X214125000Y-89360000D03*
%TO.P,ESP1,17,IO9*%
%TO.N,LED_B*%
X212855000Y-89360000D03*
%TO.P,ESP1,16,IO46*%
%TO.N,LED_G*%
X211585000Y-89360000D03*
%TO.P,ESP1,15,IO3*%
%TO.N,LED_R*%
X210315000Y-89360000D03*
D30*
%TO.P,ESP1,14,USB_D+*%
%TO.N,USB_D+*%
X208550000Y-88110000D03*
%TO.P,ESP1,13,USB_D-*%
%TO.N,USB_D-*%
X208550000Y-86840000D03*
%TO.P,ESP1,12,IO8*%
%TO.N,SCROLL_DOWN*%
X208550000Y-85570000D03*
%TO.P,ESP1,11,IO18*%
%TO.N,SCROLL_UP*%
X208550000Y-84300000D03*
%TO.P,ESP1,10,IO17*%
%TO.N,SCROLL_CLICK*%
X208550000Y-83030000D03*
%TO.P,ESP1,9,XTALN*%
%TO.N,XTAL2*%
X208550000Y-81760000D03*
%TO.P,ESP1,8,XTALP*%
%TO.N,XTAL1*%
X208550000Y-80490000D03*
%TO.P,ESP1,7,IO7*%
%TO.N,SW2_NC*%
X208550000Y-79220000D03*
%TO.P,ESP1,6,IO6*%
%TO.N,SW2_NO*%
X208550000Y-77950000D03*
%TO.P,ESP1,5,IO5*%
%TO.N,SW1_NC*%
X208550000Y-76680000D03*
%TO.P,ESP1,4,IO4*%
%TO.N,SW1_NO*%
X208550000Y-75410000D03*
%TO.P,ESP1,3,EN*%
%TO.N,EN*%
X208550000Y-74140000D03*
%TO.P,ESP1,2,3V3*%
%TO.N,PWR_3.3V*%
X208550000Y-72870000D03*
%TO.P,ESP1,1,GND*%
%TO.N,GND*%
X208550000Y-71600000D03*
%TD*%
D20*
%TO.P,C1,1*%
%TO.N,GND*%
X211337500Y-99807500D03*
%TO.P,C1,2*%
%TO.N,PWR_1.9V*%
X211337500Y-99167500D03*
%TD*%
D17*
%TO.P,C12,2*%
%TO.N,Net-(C12-Pad2)*%
X198020000Y-78120000D03*
%TO.P,C12,1*%
%TO.N,GND*%
X197380000Y-78120000D03*
%TD*%
D32*
%TO.P,U3,1,VIN*%
%TO.N,PWR_OUT*%
X205322050Y-98537499D03*
%TO.P,U3,2,GND*%
%TO.N,GND*%
X205322050Y-99487500D03*
%TO.P,U3,3,EN*%
%TO.N,PWR_1.9V_EN*%
X205322050Y-100437501D03*
%TO.P,U3,4,GND*%
%TO.N,GND*%
X208077950Y-100437501D03*
%TO.P,U3,5,VOUT*%
%TO.N,PWR_1.9V*%
X208077950Y-98537499D03*
%TD*%
D18*
%TO.P,C2,2*%
%TO.N,GND*%
X210337500Y-99807500D03*
%TO.P,C2,1*%
%TO.N,PWR_1.9V*%
X210337500Y-99167500D03*
%TD*%
D20*
%TO.P,R6,2*%
%TO.N,PWRSTAT*%
X246325001Y-82810000D03*
%TO.P,R6,1*%
%TO.N,PWR_OUT*%
X246325001Y-83450000D03*
%TD*%
D33*
%TO.P,J2,1,1*%
%TO.N,+BATT*%
X245075001Y-71600000D03*
%TO.P,J2,2,2*%
%TO.N,GND*%
X243074999Y-71600000D03*
D34*
%TO.P,J2,3*%
%TO.N,N/C*%
X246575000Y-69900000D03*
%TD*%
D18*
%TO.P,R5,2*%
%TO.N,Net-(PWRSW1-PR1)*%
X245825000Y-76770000D03*
%TO.P,R5,1*%
%TO.N,GND*%
X245825000Y-76130000D03*
%TD*%
D35*
%TO.P,S4,1*%
%TO.N,PWR_EN*%
X241200000Y-85120000D03*
D36*
%TO.P,S4,2*%
%TO.N,PWR_OUT*%
X238700000Y-85120000D03*
%TO.P,S4,3*%
%TO.N,GND*%
X236200000Y-85120000D03*
%TD*%
D17*
%TO.P,C13,2*%
%TO.N,Net-(C13-Pad2)*%
X198020000Y-84120000D03*
%TO.P,C13,1*%
%TO.N,GND*%
X197380000Y-84120000D03*
%TD*%
D37*
%TO.N,SW2_NC*%
X239200000Y-61950000D03*
%TO.N,SW2_NO*%
X239200000Y-60450000D03*
%TO.N,SW2_NC*%
X214700000Y-67950000D03*
X214700000Y-72450000D03*
%TO.N,GND*%
X237995400Y-63450000D03*
X237995400Y-59450000D03*
%TO.N,PWR_3.3V*%
X235020000Y-59450000D03*
X235020000Y-63450000D03*
%TO.N,SW2_NO*%
X213200000Y-67950000D03*
X213200000Y-72450000D03*
%TO.N,GND*%
X219900000Y-40950000D03*
%TO.N,USB_D-*%
X241200000Y-42285000D03*
%TO.N,USB_D+*%
X242200000Y-43130000D03*
%TO.N,SW3_COM*%
X215395000Y-91225500D03*
%TO.N,SW4_COM*%
X214125000Y-91225500D03*
%TO.N,SW2_NC*%
X211200000Y-79220000D03*
%TO.N,PWR_3.3V*%
X206200000Y-68950000D03*
%TO.N,PWR_OUT*%
X238700000Y-93950000D03*
%TO.N,PWR_3.3V*%
X231840000Y-105450000D03*
%TO.N,PWR_1.9V_EN*%
X229200000Y-72870000D03*
X235200000Y-90950000D03*
%TO.N,GND*%
X236200000Y-91950000D03*
%TO.N,NRESET*%
X237200000Y-88950000D03*
%TO.N,PWR_1.9V*%
X211337500Y-97950000D03*
%TO.N,+BATT*%
X235404600Y-76450000D03*
%TO.N,VBUS*%
X237995400Y-76450000D03*
%TO.N,GND*%
X232200000Y-75810000D03*
X237995400Y-71600000D03*
%TO.N,PWR_3.3V*%
X244520000Y-66950000D03*
%TO.N,VDDREG*%
X210200000Y-103367500D03*
D38*
%TO.N,+BATT*%
X244075000Y-82450000D03*
D37*
%TO.N,VBUS*%
X246850500Y-77450000D03*
X243575000Y-76130000D03*
X223700000Y-40950000D03*
%TO.N,Net-(C12-Pad2)*%
X202200000Y-79620000D03*
X199700000Y-78120000D03*
%TO.N,Net-(C13-Pad2)*%
X199700000Y-84120000D03*
X202200000Y-82620000D03*
%TO.N,EN*%
X203200000Y-74140000D03*
%TO.N,SW1_NO*%
X212200000Y-75450000D03*
%TO.N,SW1_NC*%
X211200000Y-76680000D03*
%TO.N,SW2_NO*%
X211200000Y-77950000D03*
%TO.N,SCROLL_UP*%
X219200000Y-84300000D03*
%TO.N,SCROLL_DOWN*%
X236700000Y-63450000D03*
X220200000Y-85570000D03*
X222700000Y-69950000D03*
%TO.N,SW3_COM*%
X205200000Y-69950000D03*
%TO.N,SW4_COM*%
X204187701Y-69962299D03*
%TO.N,XTAL1*%
X205700000Y-80490000D03*
%TO.N,XTAL2*%
X205700000Y-81760000D03*
%TO.N,SCROLL_CLICK*%
X218200000Y-83030000D03*
%TO.N,USB_D-*%
X222700000Y-86840000D03*
%TO.N,USB_D+*%
X224200000Y-86840000D03*
%TO.N,NCS*%
X230200000Y-88120000D03*
X230200000Y-102450000D03*
%TO.N,MOSI*%
X229200000Y-86840000D03*
X229200000Y-106037500D03*
%TO.N,SCLK*%
X228200000Y-85570000D03*
X228200000Y-107817500D03*
%TO.N,MISO*%
X231200000Y-84300000D03*
X231200000Y-102950000D03*
%TO.N,NRESET*%
X237200000Y-100697500D03*
%TO.N,TCK*%
X221200000Y-81760000D03*
%TO.N,TDO*%
X220200000Y-80490000D03*
%TO.N,TDI*%
X221200000Y-79220000D03*
%TO.N,TMS*%
X220200000Y-77950000D03*
%TO.N,RXD0*%
X221200000Y-76680000D03*
%TO.N,TXD0*%
X220240000Y-75410000D03*
%TO.N,MOTION*%
X233200000Y-90950000D03*
X223700000Y-74140000D03*
X225200000Y-90950000D03*
X233200000Y-109597500D03*
%TO.N,PWR_OUT*%
X245075000Y-83450000D03*
%TO.N,GND*%
X237200000Y-81950000D03*
X239700000Y-81950000D03*
X213200000Y-43950000D03*
X247575000Y-76130000D03*
X217200000Y-71600000D03*
X202700000Y-64950000D03*
X197380000Y-71600000D03*
X219900000Y-43950000D03*
X197380000Y-77120000D03*
X236200000Y-98950000D03*
X247575000Y-78709999D03*
X213200000Y-64950000D03*
X203200000Y-71600000D03*
X232200000Y-43950000D03*
X232200000Y-71600000D03*
X210200000Y-64950000D03*
%TO.N,PWR_3.3V*%
X237200000Y-78450000D03*
X206200000Y-72870000D03*
X194700000Y-68950000D03*
X198380000Y-59450000D03*
X194700000Y-75770000D03*
X212200000Y-106950000D03*
X200700000Y-68950000D03*
X234200000Y-66950000D03*
%TD*%
D39*
%TO.N,SW4_COM_OFF*%
X213450000Y-121950000D02*
X213450000Y-119870000D01*
X226250000Y-123200000D02*
X214700000Y-123200000D01*
X214700000Y-123200000D02*
X213450000Y-121950000D01*
%TO.N,SW3_COM_OFF*%
X221699999Y-122699999D02*
X220450000Y-121450000D01*
X220450000Y-121450000D02*
X220450000Y-119870000D01*
X226250000Y-122699999D02*
X221699999Y-122699999D01*
%TO.N,GND_OFF*%
X227620000Y-130030000D02*
X220450000Y-130030000D01*
X228949999Y-128700001D02*
X227620000Y-130030000D01*
X228949999Y-126499999D02*
X228949999Y-128700001D01*
%TO.N,PWR_3.3V_OFF*%
X227700000Y-124950000D02*
X220450000Y-124950000D01*
X228949999Y-123700001D02*
X227700000Y-124950000D01*
X228949999Y-120400001D02*
X228949999Y-123700001D01*
%TO.N,GND*%
X217200000Y-71600000D02*
X208550000Y-71600000D01*
X237995400Y-71600000D02*
X232200000Y-71600000D01*
X243074999Y-71600000D02*
X237995400Y-71600000D01*
%TO.N,VBUS*%
X243575000Y-79825000D02*
X243575000Y-76130000D01*
X244824999Y-80190001D02*
X243940001Y-80190001D01*
X243940001Y-80190001D02*
X243575000Y-79825000D01*
D40*
%TO.N,PWR_OUT*%
X245075000Y-83450000D02*
X245075000Y-87575000D01*
X245075000Y-87575000D02*
X238700000Y-93950000D01*
D39*
%TO.N,VBUS*%
X240200000Y-73809999D02*
X241254999Y-73809999D01*
%TO.N,GND*%
X219900000Y-43950000D02*
X219900000Y-40950000D01*
X219900000Y-40950000D02*
X219900000Y-37575000D01*
%TO.N,VBUS*%
X222500000Y-39750000D02*
X222500000Y-37575000D01*
X223700000Y-40950000D02*
X222500000Y-39750000D01*
%TO.N,GND*%
X236200000Y-82950000D02*
X236200000Y-85120000D01*
X237200000Y-81950000D02*
X236200000Y-82950000D01*
%TO.N,SCROLL_DOWN*%
X233700000Y-69950000D02*
X222700000Y-69950000D01*
X236700000Y-66950000D02*
X233700000Y-69950000D01*
X236700000Y-63450000D02*
X236700000Y-66950000D01*
%TO.N,SW2_NC*%
X233200000Y-62950000D02*
X234200000Y-61950000D01*
X233200000Y-64950000D02*
X233200000Y-62950000D01*
X230200000Y-67950000D02*
X233200000Y-64950000D01*
X234200000Y-61950000D02*
X239200000Y-61950000D01*
X214700000Y-67950000D02*
X230200000Y-67950000D01*
%TO.N,SW2_NO*%
X237700000Y-53020000D02*
X239200000Y-51520000D01*
X237700000Y-57450000D02*
X237700000Y-53020000D01*
X239200000Y-60450000D02*
X239200000Y-58950000D01*
X234200000Y-60450000D02*
X239200000Y-60450000D01*
X232200000Y-62450000D02*
X234200000Y-60450000D01*
X232200000Y-64450000D02*
X232200000Y-62450000D01*
X239200000Y-58950000D02*
X237700000Y-57450000D01*
X229700000Y-66950000D02*
X232200000Y-64450000D01*
X213200000Y-67950000D02*
X214200000Y-66950000D01*
X214200000Y-66950000D02*
X229700000Y-66950000D01*
%TO.N,GND*%
X237995400Y-63450000D02*
X237995400Y-71600000D01*
%TO.N,PWR_3.3V*%
X235020000Y-66130000D02*
X234200000Y-66950000D01*
X235020000Y-63450000D02*
X235020000Y-66130000D01*
%TO.N,GND*%
X236200000Y-53950000D02*
X235200000Y-52950000D01*
X237995400Y-59450000D02*
X236200000Y-57654600D01*
X236200000Y-57654600D02*
X236200000Y-53950000D01*
X235200000Y-52950000D02*
X232200000Y-52950000D01*
%TO.N,SCROLL_DOWN*%
X220200000Y-85570000D02*
X208550000Y-85570000D01*
%TO.N,TCK*%
X226050000Y-81760000D02*
X221200000Y-81760000D01*
%TO.N,TDO*%
X226050000Y-80490000D02*
X220200000Y-80490000D01*
%TO.N,TDI*%
X226050000Y-79220000D02*
X221200000Y-79220000D01*
%TO.N,TMS*%
X226050000Y-77950000D02*
X220200000Y-77950000D01*
%TO.N,RXD0*%
X221200000Y-76680000D02*
X226050000Y-76680000D01*
%TO.N,TXD0*%
X220240000Y-75410000D02*
X226050000Y-75410000D01*
%TO.N,MOTION*%
X223700000Y-74140000D02*
X226050000Y-74140000D01*
%TO.N,SW2_NC*%
X214700000Y-75720000D02*
X214700000Y-72450000D01*
X211200000Y-79220000D02*
X214700000Y-75720000D01*
%TO.N,PWR_3.3V*%
X235020000Y-57950000D02*
X235020000Y-59450000D01*
%TO.N,SW2_NO*%
X213200000Y-72450000D02*
X213200000Y-75950000D01*
X213200000Y-75950000D02*
X211200000Y-77950000D01*
%TO.N,SW1_NO*%
X212160000Y-75410000D02*
X208550000Y-75410000D01*
X212200000Y-75450000D02*
X212160000Y-75410000D01*
%TO.N,SW1_NC*%
X211200000Y-76680000D02*
X208550000Y-76680000D01*
%TO.N,SW2_NO*%
X208550000Y-77950000D02*
X211200000Y-77950000D01*
%TO.N,GND*%
X202700000Y-64950000D02*
X210200000Y-64950000D01*
X200600002Y-62850002D02*
X197500001Y-62850002D01*
X202700000Y-64950000D02*
X200600002Y-62850002D01*
%TO.N,SW3_COM*%
X205200000Y-67950000D02*
X203400001Y-66150001D01*
X203400001Y-66150001D02*
X200200000Y-66150001D01*
X205200000Y-69950000D02*
X205200000Y-67950000D01*
%TO.N,SW4_COM*%
X202800002Y-66650002D02*
X200200000Y-66650002D01*
X204200000Y-68050000D02*
X202800002Y-66650002D01*
X204200000Y-69950000D02*
X204200000Y-68050000D01*
X204187701Y-69962299D02*
X204200000Y-69950000D01*
%TO.N,SCROLL_UP*%
X219200000Y-84300000D02*
X208550000Y-84300000D01*
%TO.N,SCROLL_CLICK*%
X218200000Y-83030000D02*
X208550000Y-83030000D01*
%TO.N,PWR_3.3V*%
X196200000Y-59450000D02*
X198380000Y-59450000D01*
X194700000Y-60950000D02*
X196200000Y-59450000D01*
X194700000Y-68950000D02*
X194700000Y-60950000D01*
X232200000Y-68950000D02*
X234200000Y-66950000D01*
X206200000Y-68950000D02*
X232200000Y-68950000D01*
%TO.N,GND*%
X213200000Y-43950000D02*
X213200000Y-64950000D01*
X213200000Y-64950000D02*
X210200000Y-64950000D01*
%TO.N,PWR_1.9V_EN*%
X229200000Y-72870000D02*
X226050000Y-72870000D01*
D40*
%TO.N,USB_D-*%
X225200000Y-42285000D02*
X241200000Y-42285000D01*
%TO.N,USB_D+*%
X226200000Y-43130000D02*
X242200000Y-43130000D01*
D39*
%TO.N,GND*%
X232200000Y-52950000D02*
X232200000Y-43950000D01*
D40*
%TO.N,USB_D+*%
X224200000Y-86840000D02*
X222930000Y-88110000D01*
X222930000Y-88110000D02*
X208550000Y-88110000D01*
%TO.N,USB_D-*%
X222700000Y-86840000D02*
X208550000Y-86840000D01*
D39*
%TO.N,SW3_COM*%
X215395000Y-89360000D02*
X215395000Y-91225500D01*
%TO.N,SW4_COM*%
X214125000Y-89360000D02*
X214125000Y-91225500D01*
%TO.N,PWR_3.3V*%
X206200000Y-72870000D02*
X208550000Y-72870000D01*
%TO.N,SW2_NC*%
X211200000Y-79220000D02*
X208550000Y-79220000D01*
%TO.N,GND*%
X217200000Y-71600000D02*
X217200000Y-77920000D01*
X217200000Y-71600000D02*
X226050000Y-71600000D01*
%TO.N,VBUS*%
X231200000Y-77450000D02*
X230560000Y-76810000D01*
X236995400Y-77450000D02*
X231200000Y-77450000D01*
X230560000Y-76810000D02*
X230560000Y-73169999D01*
X237995400Y-76450000D02*
X236995400Y-77450000D01*
%TO.N,GND*%
X232200000Y-74120000D02*
X232200000Y-75810000D01*
%TO.N,+BATT*%
X235404600Y-76450000D02*
X233700000Y-76450000D01*
X235404600Y-75070001D02*
X235404600Y-76450000D01*
%TO.N,VBUS*%
X237995400Y-76450000D02*
X237995400Y-75070001D01*
X240200000Y-75450000D02*
X240200000Y-73809999D01*
X239200000Y-76450000D02*
X240200000Y-75450000D01*
X237995400Y-76450000D02*
X239200000Y-76450000D01*
%TO.N,PWR_3.3V*%
X237837500Y-77812500D02*
X238750000Y-77812500D01*
X237200000Y-78450000D02*
X237837500Y-77812500D01*
X237200000Y-80130000D02*
X237200000Y-78450000D01*
%TO.N,SCROLL_DOWN*%
X232200000Y-55450000D02*
X234380000Y-55450000D01*
%TO.N,PWR_3.3V*%
X235020000Y-55450000D02*
X235020000Y-57950000D01*
%TO.N,PWR_OUT*%
X205322050Y-98537499D02*
X205322050Y-95827950D01*
X205322050Y-95827950D02*
X207200000Y-93950000D01*
X207200000Y-93950000D02*
X238700000Y-93950000D01*
%TO.N,PWR_3.3V*%
X231840000Y-105450000D02*
X231840000Y-104257500D01*
%TO.N,PWR_1.9V_EN*%
X234200000Y-91950000D02*
X235200000Y-90950000D01*
X206313604Y-91950000D02*
X234200000Y-91950000D01*
X202750000Y-95513604D02*
X206313604Y-91950000D01*
X202750000Y-99500000D02*
X202750000Y-95513604D01*
X203687501Y-100437501D02*
X202750000Y-99500000D01*
X205322050Y-100437501D02*
X203687501Y-100437501D01*
%TO.N,GND*%
X235200000Y-92950000D02*
X236200000Y-91950000D01*
X203700000Y-95950000D02*
X206700000Y-92950000D01*
X206700000Y-92950000D02*
X235200000Y-92950000D01*
X203700000Y-98950000D02*
X203700000Y-95950000D01*
X204237500Y-99487500D02*
X203700000Y-98950000D01*
X205322050Y-99487500D02*
X204237500Y-99487500D01*
%TO.N,MOTION*%
X233200000Y-90950000D02*
X225200000Y-90950000D01*
%TO.N,GND*%
X207023701Y-100437501D02*
X208077950Y-100437501D01*
X206073700Y-99487500D02*
X207023701Y-100437501D01*
X205322050Y-99487500D02*
X206073700Y-99487500D01*
%TO.N,NRESET*%
X237200000Y-88950000D02*
X237200000Y-88862347D01*
X237200000Y-88862347D02*
X231367653Y-83030000D01*
X226550000Y-100697500D02*
X237200000Y-100697500D01*
X231367653Y-83030000D02*
X226050000Y-83030000D01*
%TO.N,PWR_1.9V*%
X211337500Y-99167500D02*
X211337500Y-97950000D01*
%TO.N,GND*%
X215850000Y-99807500D02*
X211337500Y-99807500D01*
%TO.N,PWR_1.9V*%
X209707499Y-98537499D02*
X208077950Y-98537499D01*
X210337500Y-99167500D02*
X209707499Y-98537499D01*
%TO.N,GND*%
X209707499Y-100437501D02*
X208077950Y-100437501D01*
X210337500Y-99807500D02*
X209707499Y-100437501D01*
X211337500Y-99807500D02*
X210337500Y-99807500D01*
%TO.N,PWR_1.9V*%
X211337500Y-99167500D02*
X210337500Y-99167500D01*
%TO.N,GND*%
X233700000Y-75810000D02*
X232200000Y-75810000D01*
%TO.N,VBUS*%
X241254999Y-73809999D02*
X243575000Y-76130000D01*
%TO.N,GND*%
X240200000Y-73169999D02*
X237995400Y-73169999D01*
X245825000Y-74350001D02*
X243074999Y-71600000D01*
X245825000Y-76130000D02*
X245825000Y-74350001D01*
%TO.N,VBUS*%
X243530000Y-76175000D02*
X243575000Y-76130000D01*
%TO.N,Net-(D2-K)*%
X231200000Y-73169999D02*
X232200000Y-73169999D01*
%TO.N,Net-(CHGR1-VSS)*%
X233020000Y-74120000D02*
X235404600Y-74120000D01*
%TO.N,Net-(CHGR1-STAT)*%
X233020000Y-73169999D02*
X235404600Y-73169999D01*
%TO.N,GND*%
X237995400Y-73169999D02*
X237995400Y-71600000D01*
%TO.N,PWR_3.3V*%
X200700000Y-68950000D02*
X197500001Y-68950000D01*
X244520000Y-66950000D02*
X244520000Y-56600000D01*
X198380000Y-56530000D02*
X198380000Y-59450000D01*
X198380000Y-56530000D02*
X198380000Y-53950000D01*
%TO.N,SW1_NC*%
X203700000Y-56530000D02*
X199020000Y-56530000D01*
%TO.N,PWR_3.3V*%
X198380000Y-51450000D02*
X198380000Y-53950000D01*
%TO.N,SW5_NO*%
X210200000Y-54950000D02*
X210200000Y-56950000D01*
X209200000Y-53950000D02*
X210200000Y-54950000D01*
X199020000Y-53950000D02*
X209200000Y-53950000D01*
%TO.N,SW1_NO*%
X199020000Y-51450000D02*
X203700000Y-51450000D01*
%TO.N,PWR_3.3V*%
X244520000Y-51520000D02*
X244520000Y-56600000D01*
%TO.N,SW2_NC*%
X243880000Y-56600000D02*
X239200000Y-56600000D01*
%TO.N,SW2_NO*%
X243880000Y-51520000D02*
X239200000Y-51520000D01*
%TO.N,VDDREG*%
X210200000Y-103367500D02*
X215850000Y-103367500D01*
X210200000Y-108067500D02*
X210200000Y-103367500D01*
X209200000Y-108067500D02*
X210200000Y-108067500D01*
%TO.N,GND1*%
X210200000Y-108707500D02*
X209200000Y-108707500D01*
X211200000Y-108707500D02*
X210200000Y-108707500D01*
X212200000Y-108707500D02*
X211200000Y-108707500D01*
X215850000Y-108707500D02*
X212200000Y-108707500D01*
%TO.N,Net-(D1-A)*%
X231200000Y-98917500D02*
X232880000Y-98917500D01*
X232880000Y-98917500D02*
X232880000Y-99950000D01*
D40*
%TO.N,+BATT*%
X245325000Y-80190001D02*
X245325000Y-81200000D01*
X245325000Y-81200000D02*
X244075000Y-82450000D01*
D39*
%TO.N,VBUS*%
X245325000Y-78075000D02*
X245950000Y-77450000D01*
X245950000Y-77450000D02*
X246850500Y-77450000D01*
X245325000Y-78709999D02*
X245325000Y-78075000D01*
X244824999Y-76130000D02*
X243575000Y-76130000D01*
%TO.N,Net-(C12-Pad2)*%
X199700000Y-78120000D02*
X200700000Y-78120000D01*
X202200000Y-79620000D02*
X203380000Y-79620000D01*
X199700000Y-78120000D02*
X199700000Y-80027800D01*
X199700000Y-78120000D02*
X198020000Y-78120000D01*
X202200000Y-80800000D02*
X202200000Y-79620000D01*
X200700000Y-78120000D02*
X202200000Y-79620000D01*
%TO.N,Net-(C13-Pad2)*%
X202200000Y-82620000D02*
X203380000Y-82620000D01*
X200700000Y-84120000D02*
X202200000Y-82620000D01*
X199700000Y-84120000D02*
X200700000Y-84120000D01*
X199700000Y-84120000D02*
X199700000Y-82212200D01*
X202200000Y-82620000D02*
X202200000Y-81440000D01*
X198020000Y-84120000D02*
X199700000Y-84120000D01*
%TO.N,EN*%
X203200000Y-74140000D02*
X208550000Y-74140000D01*
X203200000Y-73270000D02*
X203200000Y-74140000D01*
X203200000Y-75130000D02*
X203200000Y-74140000D01*
%TO.N,SW2_NO*%
X239130000Y-51520000D02*
X239200000Y-51520000D01*
%TO.N,SCROLL_UP*%
X234380000Y-57950000D02*
X232200000Y-57950000D01*
%TO.N,XTAL1*%
X205700000Y-80490000D02*
X208550000Y-80490000D01*
X204830000Y-79620000D02*
X205700000Y-80490000D01*
X204020000Y-79620000D02*
X204830000Y-79620000D01*
%TO.N,XTAL2*%
X204840000Y-82620000D02*
X205700000Y-81760000D01*
X204020000Y-82620000D02*
X204840000Y-82620000D01*
X208550000Y-81760000D02*
X205700000Y-81760000D01*
%TO.N,NCS*%
X230200000Y-88120000D02*
X226060000Y-88120000D01*
X230200000Y-102450000D02*
X230172500Y-102477500D01*
X226060000Y-88120000D02*
X226050000Y-88110000D01*
X230172500Y-102477500D02*
X226550000Y-102477500D01*
%TO.N,MOSI*%
X229200000Y-86840000D02*
X226050000Y-86840000D01*
X229200000Y-106037500D02*
X226550000Y-106037500D01*
%TO.N,SCLK*%
X228200000Y-85570000D02*
X226050000Y-85570000D01*
X228200000Y-107817500D02*
X226550000Y-107817500D01*
%TO.N,MISO*%
X231200000Y-104257500D02*
X226550000Y-104257500D01*
X231200000Y-104257500D02*
X231200000Y-102950000D01*
X231200000Y-84300000D02*
X226050000Y-84300000D01*
%TO.N,MOTION*%
X233200000Y-109597500D02*
X226550000Y-109597500D01*
%TO.N,Net-(J5-D-)*%
X222700000Y-42950000D02*
X225200000Y-42950000D01*
X221850000Y-37575000D02*
X221850000Y-42100000D01*
X221850000Y-42100000D02*
X222700000Y-42950000D01*
%TO.N,Net-(J5-D+)*%
X222520000Y-43770000D02*
X226200000Y-43770000D01*
X221200000Y-42450000D02*
X222520000Y-43770000D01*
X221200000Y-37575000D02*
X221200000Y-42450000D01*
%TO.N,LED_P*%
X230560000Y-98917500D02*
X226550000Y-98917500D01*
%TO.N,PWR_OUT*%
X238750000Y-80087500D02*
X238750000Y-85070000D01*
X245825000Y-78709999D02*
X245825000Y-80190001D01*
X245075000Y-82450000D02*
X245825000Y-81700000D01*
D40*
X246325001Y-83450000D02*
X245075000Y-83450000D01*
D39*
X245075000Y-83450000D02*
X245075000Y-82450000D01*
X245825000Y-81700000D02*
X245825000Y-80190001D01*
%TO.N,Net-(PWRSW1-PR1)*%
X245825000Y-76770000D02*
X244824999Y-76770000D01*
X244824999Y-76770000D02*
X244824999Y-78709999D01*
%TO.N,PWRSTAT*%
X246325001Y-82810000D02*
X246325001Y-80190001D01*
%TO.N,PWR_EN*%
X240650000Y-81900000D02*
X241200000Y-82450000D01*
X241200000Y-82450000D02*
X241200000Y-85120000D01*
X240650000Y-80087500D02*
X240650000Y-81900000D01*
%TO.N,GND*%
X233520000Y-99950000D02*
X235200000Y-99950000D01*
X220200000Y-34900000D02*
X219900000Y-35200000D01*
X235200000Y-99950000D02*
X236200000Y-98950000D01*
X203200000Y-71600000D02*
X208550000Y-71600000D01*
X203200000Y-72630000D02*
X203200000Y-71600000D01*
X197380000Y-78120000D02*
X197380000Y-84120000D01*
X223700000Y-36600000D02*
X223700000Y-37600000D01*
X222200000Y-35100000D02*
X223700000Y-36600000D01*
X236200000Y-80770000D02*
X237200000Y-80770000D01*
X197380000Y-77120000D02*
X197380000Y-78120000D01*
X232200000Y-71600000D02*
X226050000Y-71600000D01*
X237200000Y-80770000D02*
X237200000Y-81950000D01*
X246325001Y-78709999D02*
X247575000Y-78709999D01*
X233520000Y-98917500D02*
X233520000Y-99950000D01*
X222200000Y-34900000D02*
X220200000Y-34900000D01*
X219900000Y-35200000D02*
X219900000Y-37575000D01*
X247575000Y-78709999D02*
X247575000Y-76130000D01*
X247575000Y-76130000D02*
X245825000Y-76130000D01*
X222200000Y-34900000D02*
X222200000Y-35100000D01*
X197400000Y-71600000D02*
X203200000Y-71600000D01*
X210200000Y-64950000D02*
X210200000Y-62030000D01*
X239700000Y-81950000D02*
X239700000Y-80087500D01*
%TO.N,PWR_3.3V*%
X212200000Y-106950000D02*
X212222500Y-106927500D01*
X194700000Y-68950000D02*
X197500001Y-68950000D01*
X211200000Y-108067500D02*
X212200000Y-108067500D01*
X236200000Y-80130000D02*
X237200000Y-80130000D01*
X212200000Y-108067500D02*
X212200000Y-106950000D01*
X212222500Y-106927500D02*
X215850000Y-106927500D01*
X194700000Y-75770000D02*
X203200000Y-75770000D01*
%TO.N,PWR_3.3V_OFF*%
X220450000Y-124950000D02*
X213450000Y-124950000D01*
%TO.N,GND_OFF*%
X220450000Y-130030000D02*
X213450000Y-130030000D01*
%TD*%
M02*
