%TF.GenerationSoftware,KiCad,Pcbnew,7.0.7*%
%TF.CreationDate,2023-11-26T12:29:05-07:00*%
%TF.ProjectId,mouse,6d6f7573-652e-46b6-9963-61645f706362,rev?*%
%TF.SameCoordinates,Original*%
%TF.FileFunction,Soldermask,Bot*%
%TF.FilePolarity,Negative*%
%FSLAX46Y46*%
G04 Gerber Fmt 4.6, Leading zero omitted, Abs format (unit mm)*
G04 Created by KiCad (PCBNEW 7.0.7) date 2023-11-26 12:29:05*
%MOMM*%
%LPD*%
G01*
G04 APERTURE LIST*
%ADD10C,0.788500*%
%ADD11C,0.010000*%
%ADD12O,1.500000X1.200000*%
%ADD13O,1.000000X1.500000*%
%ADD14C,1.500000*%
%ADD15C,1.320800*%
%ADD16C,1.701800*%
%ADD17R,1.900000X1.900000*%
%ADD18C,1.900000*%
G04 APERTURE END LIST*
D10*
%TO.C,J5*%
X224094250Y-37600000D02*
G75*
G03*
X224094250Y-37600000I-394250J0D01*
G01*
X219094250Y-37600000D02*
G75*
G03*
X219094250Y-37600000I-394250J0D01*
G01*
D11*
X224829000Y-33887000D02*
X224859000Y-33890000D01*
X224888000Y-33893000D01*
X224917000Y-33899000D01*
X224946000Y-33906000D01*
X224974000Y-33914000D01*
X225002000Y-33924000D01*
X225029000Y-33935000D01*
X225056000Y-33948000D01*
X225082000Y-33962000D01*
X225107000Y-33977000D01*
X225131000Y-33994000D01*
X225155000Y-34012000D01*
X225177000Y-34031000D01*
X225198000Y-34052000D01*
X225219000Y-34073000D01*
X225238000Y-34095000D01*
X225256000Y-34119000D01*
X225273000Y-34143000D01*
X225288000Y-34168000D01*
X225302000Y-34194000D01*
X225315000Y-34221000D01*
X225326000Y-34248000D01*
X225336000Y-34276000D01*
X225344000Y-34304000D01*
X225351000Y-34333000D01*
X225357000Y-34362000D01*
X225360000Y-34391000D01*
X225363000Y-34421000D01*
X225363000Y-34450000D01*
X225363000Y-35350000D01*
X225363000Y-35379000D01*
X225360000Y-35409000D01*
X225357000Y-35438000D01*
X225351000Y-35467000D01*
X225344000Y-35496000D01*
X225336000Y-35524000D01*
X225326000Y-35552000D01*
X225315000Y-35579000D01*
X225302000Y-35606000D01*
X225288000Y-35632000D01*
X225273000Y-35657000D01*
X225256000Y-35681000D01*
X225238000Y-35705000D01*
X225219000Y-35727000D01*
X225198000Y-35748000D01*
X225177000Y-35769000D01*
X225155000Y-35788000D01*
X225131000Y-35806000D01*
X225107000Y-35823000D01*
X225082000Y-35838000D01*
X225056000Y-35852000D01*
X225029000Y-35865000D01*
X225002000Y-35876000D01*
X224974000Y-35886000D01*
X224946000Y-35894000D01*
X224917000Y-35901000D01*
X224888000Y-35907000D01*
X224859000Y-35910000D01*
X224829000Y-35913000D01*
X224800000Y-35913000D01*
X223436000Y-35913000D01*
X223436000Y-33886000D01*
X223436500Y-33886500D01*
X224800000Y-33886000D01*
X224829000Y-33887000D01*
G36*
X224829000Y-33887000D02*
G01*
X224859000Y-33890000D01*
X224888000Y-33893000D01*
X224917000Y-33899000D01*
X224946000Y-33906000D01*
X224974000Y-33914000D01*
X225002000Y-33924000D01*
X225029000Y-33935000D01*
X225056000Y-33948000D01*
X225082000Y-33962000D01*
X225107000Y-33977000D01*
X225131000Y-33994000D01*
X225155000Y-34012000D01*
X225177000Y-34031000D01*
X225198000Y-34052000D01*
X225219000Y-34073000D01*
X225238000Y-34095000D01*
X225256000Y-34119000D01*
X225273000Y-34143000D01*
X225288000Y-34168000D01*
X225302000Y-34194000D01*
X225315000Y-34221000D01*
X225326000Y-34248000D01*
X225336000Y-34276000D01*
X225344000Y-34304000D01*
X225351000Y-34333000D01*
X225357000Y-34362000D01*
X225360000Y-34391000D01*
X225363000Y-34421000D01*
X225363000Y-34450000D01*
X225363000Y-35350000D01*
X225363000Y-35379000D01*
X225360000Y-35409000D01*
X225357000Y-35438000D01*
X225351000Y-35467000D01*
X225344000Y-35496000D01*
X225336000Y-35524000D01*
X225326000Y-35552000D01*
X225315000Y-35579000D01*
X225302000Y-35606000D01*
X225288000Y-35632000D01*
X225273000Y-35657000D01*
X225256000Y-35681000D01*
X225238000Y-35705000D01*
X225219000Y-35727000D01*
X225198000Y-35748000D01*
X225177000Y-35769000D01*
X225155000Y-35788000D01*
X225131000Y-35806000D01*
X225107000Y-35823000D01*
X225082000Y-35838000D01*
X225056000Y-35852000D01*
X225029000Y-35865000D01*
X225002000Y-35876000D01*
X224974000Y-35886000D01*
X224946000Y-35894000D01*
X224917000Y-35901000D01*
X224888000Y-35907000D01*
X224859000Y-35910000D01*
X224829000Y-35913000D01*
X224800000Y-35913000D01*
X223436000Y-35913000D01*
X223436000Y-33886000D01*
X223436500Y-33886500D01*
X224800000Y-33886000D01*
X224829000Y-33887000D01*
G37*
X218964000Y-35913000D02*
X217600000Y-35913000D01*
X217571000Y-35913000D01*
X217541000Y-35910000D01*
X217512000Y-35907000D01*
X217483000Y-35901000D01*
X217454000Y-35894000D01*
X217426000Y-35886000D01*
X217398000Y-35876000D01*
X217371000Y-35865000D01*
X217344000Y-35852000D01*
X217318000Y-35838000D01*
X217293000Y-35823000D01*
X217269000Y-35806000D01*
X217245000Y-35788000D01*
X217223000Y-35769000D01*
X217202000Y-35748000D01*
X217181000Y-35727000D01*
X217162000Y-35705000D01*
X217144000Y-35681000D01*
X217127000Y-35657000D01*
X217112000Y-35632000D01*
X217098000Y-35606000D01*
X217085000Y-35579000D01*
X217074000Y-35552000D01*
X217064000Y-35524000D01*
X217056000Y-35496000D01*
X217049000Y-35467000D01*
X217043000Y-35438000D01*
X217040000Y-35409000D01*
X217037000Y-35379000D01*
X217037000Y-35350000D01*
X217037000Y-34450000D01*
X217037000Y-34421000D01*
X217040000Y-34391000D01*
X217043000Y-34362000D01*
X217049000Y-34333000D01*
X217056000Y-34304000D01*
X217064000Y-34276000D01*
X217074000Y-34248000D01*
X217085000Y-34221000D01*
X217098000Y-34194000D01*
X217112000Y-34168000D01*
X217127000Y-34143000D01*
X217144000Y-34119000D01*
X217162000Y-34095000D01*
X217181000Y-34073000D01*
X217202000Y-34052000D01*
X217223000Y-34031000D01*
X217245000Y-34012000D01*
X217269000Y-33994000D01*
X217293000Y-33977000D01*
X217318000Y-33962000D01*
X217344000Y-33948000D01*
X217371000Y-33935000D01*
X217398000Y-33924000D01*
X217426000Y-33914000D01*
X217454000Y-33906000D01*
X217483000Y-33899000D01*
X217512000Y-33893000D01*
X217541000Y-33890000D01*
X217571000Y-33887000D01*
X217600000Y-33886000D01*
X218963500Y-33886500D01*
X218964000Y-33886000D01*
X218964000Y-35913000D01*
G36*
X218964000Y-35913000D02*
G01*
X217600000Y-35913000D01*
X217571000Y-35913000D01*
X217541000Y-35910000D01*
X217512000Y-35907000D01*
X217483000Y-35901000D01*
X217454000Y-35894000D01*
X217426000Y-35886000D01*
X217398000Y-35876000D01*
X217371000Y-35865000D01*
X217344000Y-35852000D01*
X217318000Y-35838000D01*
X217293000Y-35823000D01*
X217269000Y-35806000D01*
X217245000Y-35788000D01*
X217223000Y-35769000D01*
X217202000Y-35748000D01*
X217181000Y-35727000D01*
X217162000Y-35705000D01*
X217144000Y-35681000D01*
X217127000Y-35657000D01*
X217112000Y-35632000D01*
X217098000Y-35606000D01*
X217085000Y-35579000D01*
X217074000Y-35552000D01*
X217064000Y-35524000D01*
X217056000Y-35496000D01*
X217049000Y-35467000D01*
X217043000Y-35438000D01*
X217040000Y-35409000D01*
X217037000Y-35379000D01*
X217037000Y-35350000D01*
X217037000Y-34450000D01*
X217037000Y-34421000D01*
X217040000Y-34391000D01*
X217043000Y-34362000D01*
X217049000Y-34333000D01*
X217056000Y-34304000D01*
X217064000Y-34276000D01*
X217074000Y-34248000D01*
X217085000Y-34221000D01*
X217098000Y-34194000D01*
X217112000Y-34168000D01*
X217127000Y-34143000D01*
X217144000Y-34119000D01*
X217162000Y-34095000D01*
X217181000Y-34073000D01*
X217202000Y-34052000D01*
X217223000Y-34031000D01*
X217245000Y-34012000D01*
X217269000Y-33994000D01*
X217293000Y-33977000D01*
X217318000Y-33962000D01*
X217344000Y-33948000D01*
X217371000Y-33935000D01*
X217398000Y-33924000D01*
X217426000Y-33914000D01*
X217454000Y-33906000D01*
X217483000Y-33899000D01*
X217512000Y-33893000D01*
X217541000Y-33890000D01*
X217571000Y-33887000D01*
X217600000Y-33886000D01*
X218963500Y-33886500D01*
X218964000Y-33886000D01*
X218964000Y-35913000D01*
G37*
%TD*%
D12*
%TO.C,PAW1*%
X215850000Y-96247500D03*
X215850000Y-98027500D03*
X215850000Y-99807500D03*
X215850000Y-101587500D03*
X215850000Y-103367500D03*
X215850000Y-105147500D03*
X215850000Y-106927500D03*
X215850000Y-108707500D03*
X226550000Y-109597500D03*
X226550000Y-107817500D03*
X226550000Y-106037500D03*
X226550000Y-104257500D03*
X226550000Y-102477500D03*
X226550000Y-100697500D03*
X226550000Y-98917500D03*
X226550000Y-97137500D03*
%TD*%
D13*
%TO.C,SMB5*%
X213450000Y-119870000D03*
X213450000Y-124950000D03*
X213450000Y-130030000D03*
%TD*%
%TO.C,MMB1*%
X210200000Y-62030000D03*
X210200000Y-56950000D03*
X210200000Y-51870000D03*
%TD*%
D14*
%TO.C,ENC1*%
X232200000Y-57950000D03*
X232200000Y-55450000D03*
X232200000Y-52950000D03*
%TD*%
D13*
%TO.C,LMB1*%
X203700000Y-46370000D03*
X203700000Y-51450000D03*
X203700000Y-56530000D03*
%TD*%
%TO.C,RMB1*%
X239200000Y-46440000D03*
X239200000Y-51520000D03*
X239200000Y-56600000D03*
%TD*%
%TO.C,SMB4*%
X220450000Y-119870000D03*
X220450000Y-124950000D03*
X220450000Y-130030000D03*
%TD*%
D15*
%TO.C,J2*%
X245075001Y-71600000D03*
X243074999Y-71600000D03*
D16*
X246575000Y-69900000D03*
%TD*%
D17*
%TO.C,S4*%
X241200000Y-85120000D03*
D18*
X238700000Y-85120000D03*
X236200000Y-85120000D03*
%TD*%
M02*
